<svg width="41" height="66" viewBox="0 0 41 66" fill="none" xmlns="http://www.w3.org/2000/svg">
<path d="M38.212 18.0909C37.3618 11.6059 33.9722 3.20312 20.6634 3.20312C7.35446 3.20312 3.96512 11.6059 3.11486 18.0909C2.68937 21.6535 2.87028 25.2626 3.65013 28.7647C6.10905 41.1489 11.803 52.6613 20.1529 62.1319C20.285 62.2733 20.47 62.3536 20.6635 62.3536C20.857 62.3536 21.042 62.2733 21.1741 62.1319C29.5241 52.6613 35.2178 41.1489 37.6769 28.7647C38.4566 25.2626 38.6377 21.6535 38.212 18.0909Z" fill="#A4C2F7"/>
<path d="M33.4608 18.0908C32.6632 12.0092 29.5339 4.24101 18.1703 3.29852C17.9935 4.02783 17.314 4.52124 16.5659 4.46342C15.113 4.41837 13.5159 4.57551 11.9789 4.48329C11.9902 5.05474 11.6756 5.58309 11.1678 5.84558C10.0691 6.31984 8.95649 6.76165 7.90155 7.33044C7.08056 7.7733 5.84702 8.34564 5.69041 9.35801C5.61326 9.76026 5.3662 10.1095 5.0129 10.3165C4.33184 13.6506 3.43067 16.9893 2.5625 20.3114C2.63061 23.2039 2.69818 26.0954 2.76487 28.986C3.20685 28.8062 3.70523 28.8273 4.13054 29.0437C4.55584 29.2601 4.86622 29.6506 4.98097 30.1139C6.36438 35.2451 7.62345 40.5018 8.86107 45.7151C9.11292 46.3595 9.36087 46.9974 9.59587 47.6253C9.88142 48.3878 10.1602 49.2487 10.4438 50.1575C10.9685 49.9663 11.5536 50.0425 12.0117 50.3618C12.4698 50.681 12.7438 51.2035 12.746 51.762V51.8633C12.7495 52.2553 12.609 52.635 12.3513 52.9303C12.4271 52.9516 12.4964 52.9908 12.573 53.0094C13.3437 53.1607 13.8743 53.8712 13.8005 54.653C15.1556 56.5594 16.5255 58.4542 17.8855 60.3565C25.3943 51.2064 30.5569 40.3622 32.9256 28.765C33.7052 25.2627 33.8863 21.6535 33.4608 18.0908Z" fill="#E3E7F2"/>
<path d="M3.1169 18.0909C3.96734 11.6063 7.35686 3.20312 20.6656 3.20312C21.5169 3.20312 22.3251 3.23931 23.0972 3.30546C11.7869 4.27225 8.66595 12.0207 7.86996 18.0909C7.44448 21.6537 7.62538 25.2626 8.40523 28.7649C10.745 40.1786 15.7811 50.867 23.0931 59.9378C22.2673 60.9424 21.5971 61.6859 21.176 62.1318C21.0439 62.2731 20.8589 62.3535 20.6654 62.3535C20.4719 62.3535 20.2869 62.2733 20.1548 62.1318C11.8049 52.6613 6.11108 41.1489 3.65199 28.7647C2.87232 25.2626 2.69124 21.6535 3.1169 18.0909Z" fill="white"/>
<path d="M20.4986 65.9844C19.8239 65.9829 19.179 65.7051 18.7143 65.2157C9.6521 54.9825 3.48179 42.516 0.839619 29.1018C-0.0249819 25.2082 -0.223698 21.1963 0.252095 17.2363C1.73009 5.9604 8.73163 0 20.5003 0C32.2706 0 39.2722 5.9604 40.7468 17.2363C41.2239 21.1961 41.0257 25.2082 40.161 29.1018C37.5205 42.5162 31.35 54.9825 22.2863 65.214C21.8206 65.7045 21.1746 65.9831 20.4986 65.9844ZM20.5003 3.4299C10.4188 3.4299 4.90692 8.09232 3.64995 17.6818C3.22627 21.258 3.41018 24.8802 4.19398 28.395C6.71561 40.817 12.3235 52.4036 20.5003 62.0855C28.6786 52.4045 34.2867 40.8176 36.8066 28.395C37.5906 24.8802 37.7741 21.2578 37.3489 17.6818C36.0935 8.09232 30.5832 3.4299 20.5003 3.4299Z" fill="#256095"/>
<path d="M20.5002 32.6719C15.3181 32.6719 10.6464 29.6283 8.66312 24.9604C6.68007 20.2925 7.77623 14.9195 11.4405 11.3467C15.1048 7.77401 20.6156 6.70524 25.4032 8.63874C30.1907 10.5722 33.3125 15.1272 33.3125 20.1798C33.3049 27.0758 27.573 32.6644 20.5002 32.6719ZM20.5002 11.0889C16.7291 11.0889 13.3292 13.3039 11.886 16.7008C10.4428 20.0978 11.2406 24.0079 13.9072 26.608C16.5738 29.208 20.5841 29.9858 24.0684 28.5787C27.5526 27.1716 29.8241 23.8567 29.8241 20.1798C29.8178 15.1616 25.647 11.0951 20.5002 11.0889Z" fill="#256095"/>
</svg>
