<svg width="290" height="170" viewBox="0 0 290 170" fill="none" xmlns="http://www.w3.org/2000/svg">
<path opacity="0.4" d="M20.3522 163.306C19.7646 163.873 18.5307 163.925 17.7081 163.615C17.003 163.306 17.003 162.841 16.1216 161.346C14.8877 159.282 14.1238 158.87 14.3001 157.89C14.4176 157.219 14.8877 157.168 14.8877 156.549C14.8877 156.033 14.5351 155.672 12.8311 154.228C11.0683 152.784 10.9508 152.732 10.5395 152.216C9.8344 151.236 10.187 150.978 9.42309 150.101C8.77674 149.379 8.42419 149.328 7.54281 148.348C7.42529 148.193 7.42529 148.193 6.66143 147.11C5.30998 145.201 5.19246 144.995 4.83991 144.737C4.1348 144.17 3.84101 144.273 3.54721 143.809C3.19466 143.241 3.54721 142.88 3.48845 141.797C3.4297 140.714 3.01838 140.714 2.66583 138.909C2.4308 137.774 2.60707 137.826 2.37204 137.31C1.84321 135.969 0.84431 135.659 1.02059 135.04C1.19686 134.525 2.07824 134.164 2.78335 134.215C3.48845 134.267 3.60597 134.731 4.36984 135.04C5.54501 135.453 7.30777 135.04 7.77784 134.215C8.18916 133.493 7.48405 132.668 7.89536 132.41C8.07164 132.307 8.30667 132.358 8.77674 132.461C9.95192 132.771 10.5983 133.029 11.0683 133.184C12.2435 133.545 13.595 133.441 13.6537 133.235C13.7712 132.874 10.1282 132.049 10.2457 131.327C10.3045 130.966 11.4209 130.656 12.361 130.708C14.3001 130.759 15.0052 132.1 16.0041 131.791C16.9442 131.533 16.5329 130.295 17.8844 129.625C18.7657 129.16 19.4708 129.418 19.9997 128.799C20.4697 128.284 20.3522 127.613 20.3522 127.458C20.2935 126.994 20.1172 126.685 19.177 125.705C17.7668 124.106 17.5318 124.003 17.4143 123.487C17.238 122.713 17.7081 122.455 17.4143 121.836C17.1205 121.217 16.6504 121.269 15.7103 120.444C15.1227 119.979 14.1825 119.154 14.3001 118.329C14.4176 117.71 15.0052 117.762 15.2402 117.039C15.4165 116.42 14.9464 116.214 14.8289 115.028C14.7701 114.46 14.7114 113.996 15.0052 113.48C15.4165 112.758 16.0041 112.862 16.2979 112.191C16.5917 111.572 16.4154 110.85 16.0628 110.386C15.7103 109.922 15.2402 109.715 14.5939 109.457C13.5362 108.993 13.0661 109.148 12.8899 108.838C12.5961 108.426 13.0074 107.807 13.595 106.878C14.1238 106.053 14.5939 105.383 15.0639 105.434C15.5928 105.486 15.534 106.311 16.3566 106.569C16.8855 106.775 17.6493 106.569 18.0019 106.156C18.2957 105.847 18.2369 105.434 18.2369 104.66C18.2369 103.99 18.1194 103.835 18.1194 103.423C18.0606 101.927 19.177 100.741 19.3533 100.534C19.9997 99.8121 20.3522 99.9152 20.9398 99.1416C21.2924 98.6258 21.7037 98.11 21.5274 97.6458C21.2924 96.9237 20.1172 96.9237 19.9409 96.2531C19.8234 95.7889 20.3522 95.6342 20.2935 95.0668C20.2347 94.2416 19.177 94.0868 19.2358 93.4679C19.2358 93.0037 19.8234 93.0037 20.5285 92.0753C20.9398 91.5595 20.7635 91.4563 21.2924 90.6311C21.7624 89.8574 21.9975 89.4447 22.4675 89.1353C23.2314 88.6195 23.6427 88.8774 24.4653 88.3616C25.0529 87.949 24.8766 87.7426 25.5818 87.1753C25.758 87.0205 26.4044 86.5047 27.3445 86.2469C28.5784 85.8858 29.0485 86.35 29.7536 85.9374C30.635 85.4732 30.5762 84.4416 30.9876 84.4932C31.5164 84.4932 31.9277 86.0405 31.9277 86.0405C32.104 86.0405 32.6916 86.1437 33.1616 86.5563C33.3967 86.7626 33.5142 87.0205 33.5142 87.1237C33.6905 87.4847 33.5142 87.7426 33.6317 87.7942C33.8667 87.8974 35.0419 87.2269 34.9832 86.5563C34.9244 85.7311 33.0441 85.5247 33.1029 84.8026C33.1029 84.3384 34.043 84.1837 34.043 83.7195C34.043 83.1521 32.7503 82.8427 32.8091 82.6363C32.8678 82.3269 35.3357 82.5332 35.747 82.5848C41.0941 83.049 43.7382 83.3069 44.6196 82.2237C45.4422 81.1921 44.2083 79.5416 45.3835 78.7679C45.8535 78.4585 46.2648 78.5616 46.9112 78.0974C47.1462 77.9427 47.3225 77.6848 47.9101 76.6016C48.6739 75.1574 48.4977 75.209 48.7327 74.9511C49.379 74.2806 49.9666 74.4869 51.2006 73.8164C51.4356 73.7132 52.1407 73.249 52.7871 72.4753C53.9035 71.1343 53.3746 70.3606 54.256 69.7932C54.9024 69.3806 55.1962 69.6901 56.7239 69.1227C57.4878 68.8132 57.8991 68.7101 58.1341 68.4006C58.9567 67.4722 57.8991 66.4922 58.6042 65.5638C59.0155 65.048 59.6618 64.8416 60.8958 64.5322C61.4834 64.3774 61.8947 64.2743 62.4235 64.2743C63.1286 64.3259 63.1286 64.5322 64.1863 64.6869C64.6563 64.7385 65.0676 64.7901 65.5965 64.7385C65.949 64.6869 66.0078 64.6353 66.1841 64.6353C66.8892 64.7385 67.5943 65.7701 67.2417 66.2343C66.9479 66.5953 66.1253 66.2343 65.8315 66.6469C65.7727 66.7501 65.6552 66.9564 66.5366 68.2974C67.183 69.2774 67.3592 69.2774 67.7705 69.9479C68.0643 70.4637 68.0056 70.5153 68.4756 71.5469C69.0045 72.6816 69.0632 72.5269 69.1808 72.8879C69.5333 73.9711 68.9457 74.2806 69.1808 75.6216C69.2983 76.2921 69.4158 76.189 69.7096 77.2721C70.0034 78.3553 70.1209 78.9227 70.0034 79.5416C69.7683 80.8311 68.7694 81.6048 68.6519 81.7079C67.5943 82.4816 66.4191 82.5332 65.8315 82.5332C64.5976 82.5848 62.4823 82.2753 61.9534 81.1921C61.7184 80.6763 62.0122 80.4184 61.6596 79.6448C61.3071 78.9742 61.0133 79.129 60.4845 78.3037C60.1319 77.7879 59.8969 77.169 59.4856 75.9311L59.368 75.57C59.368 75.57 59.4856 72.9395 59.1918 72.8879C58.898 72.8364 58.3691 75.1574 58.0166 75.1058C57.7816 75.0543 57.7228 73.61 57.8403 73.61C58.0166 73.61 59.2505 76.189 58.0753 77.6848C57.7228 78.149 57.1352 78.6132 56.5476 79.0774C55.725 79.7479 55.6075 79.6963 55.3137 80.0058C54.6086 80.7279 54.4323 81.6048 54.3148 82.43C54.1973 83.1521 54.0798 83.8742 54.3735 84.8026C54.4911 85.2153 54.9611 86.7111 55.96 86.7626C56.5476 86.8142 57.194 86.35 57.429 85.8342C57.7816 85.0605 56.9002 84.5963 57.1352 83.5648C57.3115 82.8427 57.8991 82.1721 58.2516 82.2237C58.4867 82.2753 58.5454 82.6363 58.8392 83.6163C59.368 85.4216 59.7794 86.0405 59.9556 86.2469C60.3082 86.7111 60.7782 87.3816 61.3658 87.33C62.1297 87.2784 62.5998 86.0405 62.7173 85.7826C63.0698 84.9058 62.8348 84.5963 63.1874 84.2869C63.5399 83.9774 64.01 84.029 65.5377 84.0805C68.1819 84.1837 68.5932 84.0805 69.2395 84.4416C69.357 84.5448 70.2384 85.1121 70.1796 85.7826C70.1796 86.4016 69.4745 86.7626 69.5333 86.8658C69.6508 87.0205 71.4723 86.4532 72.53 85.1121C73.2939 84.0805 72.8826 83.5648 73.7639 82.5848C74.5278 81.7595 75.0566 81.8627 75.4679 81.089C76.0555 80.0574 75.4679 79.1806 75.8793 78.9742C76.3493 78.7679 77.5833 79.7479 78.1121 80.8827C78.5234 81.7079 78.876 83.1005 78.2296 83.5132C77.5833 83.9258 76.5844 82.8427 75.5267 83.3069C74.8803 83.5648 74.469 84.39 74.5278 85.1121C74.5866 85.7826 75.0566 86.5048 75.7617 86.6595C76.5844 86.8658 76.8782 86.1437 78.5234 85.8342C78.876 85.7826 79.4635 85.7311 80.6387 85.6795C81.3438 85.6279 82.0489 85.6279 82.9303 85.6795C84.1055 85.7311 84.6931 85.7311 84.9869 85.8858C86.0445 86.4016 86.2208 87.4332 86.9259 87.3816C87.1609 87.3816 87.3372 87.2269 87.5135 87.0721C88.2774 86.5048 88.2774 85.5763 88.3949 85.5763C88.6299 85.5763 88.3361 88.1553 89.2175 88.4647C89.6876 88.6195 89.9814 88.0521 90.804 88.0005C91.9204 87.8974 92.2142 88.7742 93.5069 89.0837C95.2109 89.4963 96.5623 88.5163 96.9149 88.9289C97.2674 89.3932 95.7985 90.4763 96.0923 90.8889C96.3861 91.25 97.855 91.1468 98.5601 90.4247C99.4415 89.5479 98.6189 88.3616 99.4415 87.7426C100.147 87.1753 101.381 87.5363 101.909 87.6395C104.73 88.3616 107.491 91.1468 108.49 94.0868C108.667 94.6542 108.902 95.531 109.431 95.5826C109.959 95.6342 110.606 94.7574 110.782 93.9837C111.076 92.9005 110.488 91.8689 110.194 91.4047C109.489 90.2184 108.96 90.27 108.902 89.6511C108.843 88.5679 110.606 88.2584 110.782 86.7626C110.899 85.8858 110.312 85.6795 110.606 85.009C110.958 84.0805 112.251 84.2869 113.485 83.3069C115.013 82.069 114.249 80.5732 115.541 79.9542C116.482 79.49 117.951 79.8511 118.832 80.6248C119.772 81.45 119.948 82.6363 119.596 83.5132C119.184 84.4932 118.303 84.4932 118.068 85.4216C117.892 86.2469 118.479 86.5563 118.597 87.5363C118.714 88.4647 118.244 88.7742 117.245 90.7858C116.129 93.0553 115.424 94.551 116.07 95.3247C116.07 95.3247 117.069 96.4595 117.069 96.8205C117.069 96.8721 117.069 96.9237 117.069 96.9237C117.069 96.9237 117.069 97.0268 117.01 97.13C116.893 97.5426 115.776 98.471 115.776 98.471C115.248 98.9352 115.365 99.09 114.778 99.8637C114.307 100.483 113.309 101.72 111.957 101.978C110.429 102.236 109.372 101.05 108.902 101.411C108.549 101.72 108.902 102.597 109.313 103.113C110.136 104.042 111.487 104.145 111.722 104.196C113.661 104.351 115.13 103.165 115.894 102.546C116.423 102.133 117.363 101.359 117.892 100.122C118.597 98.471 117.833 97.5426 118.714 96.6658C119.243 96.15 120.242 95.7889 121.065 96.0468C121.887 96.3047 122.24 97.1816 122.357 97.6973C122.416 97.9552 122.357 98.2647 122.181 98.9868C122.005 100.018 121.887 100.07 121.946 100.328C122.122 101.205 123.591 101.875 124.003 101.617C124.355 101.411 123.65 100.637 123.533 98.9352C123.415 97.6974 123.768 97.6458 123.533 97.0268C123.121 95.8405 121.476 94.9121 119.948 94.8089C118.949 94.7574 118.479 95.0668 118.127 94.7574C117.422 94.2416 118.009 92.7458 118.186 92.3332C118.773 90.8374 119.419 90.8889 119.713 89.8574C120.183 88.1553 118.538 87.2269 119.243 86.0921C119.537 85.5763 119.89 85.7826 121.3 84.6479C122.005 84.0805 122.416 83.7195 122.71 83.1521C123.18 82.2237 123.063 81.1405 122.945 81.1405C122.651 81.089 120.888 84.7511 122.475 87.0721C123.356 88.3616 125.002 88.9289 125.178 88.7742C125.354 88.6195 123.944 87.7942 124.003 86.6079C124.061 85.7311 124.943 84.6995 126.059 84.4932C127.234 84.2869 127.822 85.2153 130.584 86.1437C131.054 86.2984 132.758 86.8142 132.934 86.5563C133.169 86.1437 130.466 85.1121 129.937 82.9458C129.702 82.0174 129.879 80.5732 130.877 79.7995C132.993 78.2006 136.695 81.1406 139.104 79.6963C141.337 78.3553 139.104 75.209 141.572 73.1458C143.628 71.4437 146.214 72.7332 150.444 70.309C151.326 69.7932 151.913 69.4322 152.501 68.7101C153.911 66.9048 152.912 65.3059 154.322 64.2227C155.321 63.449 157.025 63.3974 157.436 63.8616C157.848 64.3259 156.79 65.3059 157.201 65.7701C157.613 66.1827 158.67 65.5638 159.375 66.0795C160.022 66.5437 159.787 67.4206 160.139 67.5237C160.727 67.6785 161.197 65.9764 162.431 65.6669C163.665 65.409 164.958 66.5953 165.721 67.2659C166.544 68.0395 168.601 69.8448 168.307 71.9595C168.131 73.1974 167.249 73.4553 164.605 76.2406C162.372 78.5616 161.021 80.0574 161.432 80.5216C161.902 81.1406 165.31 80.5216 166.72 78.6648C167.895 77.0658 167.19 75.3121 168.189 74.9511C169.012 74.6932 169.482 75.8795 171.127 76.0858C173.478 76.4469 174.712 74.2806 176.533 74.7964C177.767 75.1574 177.649 76.3437 178.825 76.55C180.117 76.8079 181.88 75.7248 182.409 74.3837C183.055 72.7332 181.351 71.65 181.998 70.6185C182.761 69.4837 185.993 69.2258 188.05 70.4637C189.813 71.5469 189.284 72.8879 191.281 74.6932C193.103 76.3953 195.865 77.2721 196.511 76.7048C197.334 75.9827 194.925 73.1458 195.865 72.3722C196.511 71.8048 197.804 72.9911 199.273 72.4237C200.859 71.8564 200.624 70.1027 202.093 69.7416C203.327 69.4322 204.208 70.5153 204.62 70.1543C205.149 69.7416 204.326 67.4206 202.504 66.6985C201.447 66.2859 200.565 66.5437 200.389 66.1311C200.154 65.5122 201.799 64.2227 201.799 64.2227C200.565 65.6669 204.561 60.6122 206.559 60.9217C207.969 61.128 208.439 63.1395 209.085 62.9848C209.849 62.8301 208.968 60.2511 210.554 59.0132C211.553 58.2396 213.081 58.3427 213.786 58.3943C215.725 58.4975 216.078 59.3227 217.253 59.1164C218.134 58.9617 218.722 58.188 219.897 56.6922C221.366 54.8354 221.248 54.3196 222.306 53.4943C222.6 53.288 224.304 51.9469 225.714 52.4112C226.595 52.7206 226.537 53.4943 227.477 53.8038C228.417 54.1133 229.768 53.7006 230.415 52.9785C231.414 51.8954 230.356 50.709 231.472 49.4712C231.943 48.9554 232.119 49.1617 232.883 48.4396C233.235 48.1301 234.117 47.3048 234.469 46.1185C234.939 44.6743 234.352 43.488 234.645 43.3849C234.998 43.2817 235.409 44.8291 236.643 45.087C237.818 45.3449 239.405 44.3649 239.346 43.6428C239.229 42.508 235.057 42.6112 234.645 41.0638C234.469 40.2901 235.468 39.8775 237.348 37.2986C238.641 35.5449 238.347 35.5449 239.111 34.6165C240.521 33.0175 241.403 33.1207 244.399 31.1091C245.927 30.0775 246.338 29.6133 249.1 27.7049C250.687 26.6217 251.509 26.106 252.508 26.2091C253.625 26.2607 254.153 26.9312 255.329 26.7765C256.386 26.6217 257.209 25.9512 257.15 25.6933C256.974 25.2291 254.506 26.0028 253.918 25.126C253.389 24.4554 254.388 23.0112 255.211 22.2891C255.916 21.6186 256.092 21.8765 257.855 20.7933C258.737 20.226 259.089 19.9165 259.5 20.0197C260.088 20.1744 260.323 20.9481 260.558 21.5154C260.911 22.5986 260.617 22.9081 260.969 23.3207C261.557 23.9396 262.497 23.3207 263.555 23.8881C264.495 24.4039 265.024 25.6417 264.671 26.467C264.495 26.8796 264.26 26.8796 263.261 27.7049C261.733 28.9428 261.91 29.1491 261.263 29.4586C259.794 30.1291 258.266 29.2007 257.914 29.7165C257.796 29.8712 257.796 29.9744 258.854 31.728C255.329 31.8312 254.917 32.4502 254.917 32.4502C254.623 32.9659 254.917 33.7912 255.505 34.2038C256.21 34.668 256.798 34.2038 257.914 34.5649C259.03 34.9259 259.559 35.8028 259.677 35.9575C260.206 36.7828 260.441 38.0722 259.735 39.0522C259.148 39.8259 258.09 40.187 258.031 40.187C257.855 40.2386 257.679 40.2901 257.679 40.2901C257.679 40.2901 260.264 39.4133 263.261 38.8975C265.729 38.4333 266.669 38.4849 267.492 38.8459C268.197 39.1554 269.196 39.8259 269.078 40.4449C268.961 41.167 267.492 41.1154 266.845 42.0954C266.434 42.7143 266.61 43.3849 267.139 45.0354C267.844 47.0985 268.49 48.5943 268.961 49.7291C270.606 53.5459 270.253 53.2364 270.841 54.1648C271.663 55.5575 272.545 56.4859 272.192 56.9501C271.84 57.4143 270.723 56.7438 269.724 57.3111C269.078 57.6722 268.843 58.2911 268.49 59.2196C268.255 59.8385 267.962 60.6638 268.138 61.6953C268.373 62.8301 269.078 63.5522 268.843 63.7585C268.726 63.8616 268.432 63.7585 268.138 63.6038C267.433 63.3459 267.198 62.9332 267.08 62.9848C266.786 63.088 267.962 64.5838 267.374 65.9248C267.08 66.5437 266.669 66.5953 266.61 67.2143C266.551 67.8848 266.904 68.4006 267.315 68.968C268.138 70.0511 268.608 69.8964 269.254 70.8248C270.018 71.8564 269.666 72.3722 270.371 72.9395C271.017 73.4553 272.075 73.7132 272.662 73.3521C273.367 72.9395 273.132 71.8564 273.485 71.8564C273.838 71.8048 273.896 73.249 275.013 73.8679C275.894 74.3321 276.482 73.7648 277.657 74.3321C278.362 74.6932 279.185 75.3637 279.185 75.3637C278.186 76.55 278.186 76.8079 278.186 76.8079C278.127 77.5816 279.067 78.3037 279.772 78.6648C281.182 79.3353 282.123 78.8195 283.004 79.5932C283.121 79.6963 283.65 80.1606 283.591 80.6763C283.474 81.3469 282.358 81.3984 282.005 82.1205C281.594 82.8942 282.123 83.9774 282.769 84.5963C283.944 85.7311 285.824 85.6279 285.883 86.1437C285.883 86.5048 285.002 86.5563 284.59 87.3816C284.355 87.8458 284.355 88.4132 284.473 88.7742C284.767 89.6511 285.824 90.0121 286.412 90.3732C288.997 91.8689 289.526 96.0984 288.527 96.6658C288.057 96.9237 287.528 96.3047 285.237 95.2731C283.709 94.551 283.474 94.551 281.006 93.6226C277.304 92.1784 275.483 91.5079 273.779 90.4247C272.486 89.6511 270.9 88.6195 269.372 86.8142C268.784 86.0921 267.08 83.9258 266.61 80.9342C266.316 79.0774 266.845 78.9742 266.493 77.169C266.199 75.6216 265.553 74.5385 264.495 72.5269C263.143 70.1027 262.556 69.5869 262.673 68.349C262.791 67.3174 263.32 66.9048 263.026 66.1827C262.732 65.5637 262.203 65.5638 260.676 64.5838C259.383 63.7585 258.56 63.1911 258.443 62.4174C258.325 61.5406 259.207 60.8701 259.03 60.7669C258.854 60.6122 257.033 61.5922 257.033 62.7269C257.033 63.449 257.679 63.6553 258.619 64.8932C258.913 65.2543 259.5 66.1311 259.794 67.2143C260.206 68.5553 259.618 72.63 259.735 71.289C259.735 71.289 257.62 68.6069 256.21 68.8648C255.622 68.968 255.27 69.6901 254.565 71.1858C253.742 72.8364 253.389 73.6616 253.507 74.59C253.683 75.8279 254.388 75.7248 254.917 77.4785C255.387 78.8195 255.035 79.1806 255.564 80.7795C255.916 81.7595 256.21 82.7395 256.915 82.8427C257.855 82.9974 258.737 81.45 259.03 81.6563C259.265 81.8111 259.03 82.8942 258.266 83.7711C257.796 84.3384 257.561 84.2869 257.091 84.9058C256.915 85.1637 256.798 85.37 256.386 86.4016C255.799 87.8974 255.681 88.2068 255.505 88.2068C255.093 88.2068 255.211 86.6595 254.388 86.35C253.566 86.0921 252.391 87.2784 251.627 87.949C250.863 88.7226 250.217 89.29 250.217 90.1153C250.217 91.0437 250.922 91.4047 250.687 91.9205C250.334 92.591 248.806 92.0237 247.807 92.9005C247.22 93.4679 247.631 93.8289 246.985 94.551C246.221 95.4795 245.34 95.17 244.047 95.9952C243.929 96.0984 242.519 97.0268 242.049 98.5742C241.697 99.7605 242.225 99.9668 241.873 101.514C241.579 102.752 241.226 102.855 241.285 103.629C241.344 104.609 241.99 104.764 242.167 105.795C242.284 106.569 241.99 106.724 241.755 107.962C241.638 108.632 241.461 110.076 241.814 111.675C242.225 113.274 242.754 113.119 242.754 114.048C242.754 115.492 241.461 115.853 240.874 117.968C240.815 118.226 240.345 119.876 240.991 120.134C241.696 120.495 243.165 118.484 244.341 118.896C244.928 119.103 244.811 119.722 245.868 120.908C246.28 121.32 246.985 122.043 247.161 121.888C247.514 121.682 246.103 119.309 246.515 119.051C246.809 118.896 247.69 120.186 248.689 119.979C249.335 119.876 249.746 119.206 249.923 118.742C250.217 117.658 249.218 116.988 249.57 116.42C249.864 115.956 250.804 115.956 252.626 116.008C254.506 116.059 255.916 116.42 256.386 116.369H256.445C256.68 116.472 256.21 117.194 256.386 117.658C256.621 118.226 257.62 118.071 258.678 118.69C259.794 119.309 260.264 120.289 260.499 120.701C261.146 121.991 260.617 122.558 261.146 123.745C261.557 124.673 262.203 124.931 263.143 125.756C265.435 127.768 266.493 130.192 266.845 131.585C267.315 133.184 266.669 132.874 267.022 135.608C267.433 138.651 268.197 139.27 268.373 141.952C268.49 143.448 268.197 142.88 268.197 145.769C268.138 148.348 268.373 149.689 268.079 152.319C268.02 152.784 267.903 153.764 267.55 154.898C267.139 156.136 266.904 156.807 266.199 157.374C265.082 158.354 263.143 158.663 263.143 158.663C263.143 158.663 261.851 158.354 261.204 158.715C260.676 159.025 260.969 159.643 260.441 160.933C260.088 161.81 259.559 162.635 259.383 162.583C259.148 162.532 259.97 161.088 259.5 159.334C259.207 158.302 258.325 157.013 256.974 156.085C256.21 155.569 255.74 155.569 255.564 155.105C255.211 154.279 255.857 153.093 256.798 152.474C257.973 151.7 258.972 152.061 259.442 151.339C259.677 150.978 259.559 150.72 259.207 149.276C258.737 147.213 258.913 147.419 258.56 146.233C258.149 144.84 257.561 143.448 257.561 143.448L256.621 140.456C256.621 140.456 255.035 139.992 253.977 140.456C252.802 140.92 252.391 142.468 252.273 142.88C252.038 143.757 252.332 143.964 251.979 144.428C251.744 144.737 251.509 144.84 249.688 145.666C248.689 146.13 248.571 146.181 248.395 146.13C247.572 146.027 247.69 145.047 246.515 144.17C245.751 143.602 244.869 143.448 244.458 143.396C243.929 143.293 243.4 143.293 242.402 143.345C240.11 143.551 239.934 143.964 238.759 143.964C237.525 143.964 236.584 143.448 234.88 142.468C233.823 141.849 233.118 141.333 231.825 140.25C229.592 138.445 229.651 138.187 228.417 137.465C227.359 136.846 225.832 135.969 224.245 136.33C223.658 136.433 223.54 136.639 222.659 136.846C221.601 137.052 221.072 136.949 220.191 136.949C219.721 136.949 218.134 137.052 216.724 137.929C215.549 138.651 215.02 139.579 214.55 140.456C214.256 141.024 213.61 142.158 214.021 142.519C214.374 142.829 214.961 142.365 215.549 142.622C216.548 143.087 216.313 145.098 216.254 145.666C216.019 147.729 215.138 148.141 215.549 149.276C215.901 150.205 216.724 150.462 216.606 151.288C216.606 151.597 216.43 151.855 215.784 152.577C214.491 153.97 213.904 154.692 213.198 154.95C211.612 155.466 210.907 154.331 209.379 154.898C208.028 155.414 207.851 156.6 206.97 156.549C206.206 156.497 206.147 155.466 205.266 155.311C204.091 155.105 202.739 156.807 202.563 157.013C201.917 157.89 202.211 158.096 201.623 158.715C200.859 159.54 200.272 159.334 198.861 160.262C197.686 161.036 197.921 161.346 197.04 161.758C196.746 161.913 196.452 162.016 193.867 162.274C191.634 162.48 191.34 162.429 191.164 162.377C190.048 162.119 190.106 161.655 188.755 161.242C188.52 161.139 188.344 161.088 186.111 160.83C183.76 160.52 183.408 160.469 182.879 160.52C182.056 160.52 181.351 160.572 180.529 160.881C179.588 161.242 179.588 161.552 178.825 161.913C177.767 162.429 176.18 162.48 175.064 161.913C173.536 161.191 174.124 160.005 172.596 159.282C171.539 158.818 171.127 159.282 169.188 158.715C168.601 158.509 168.542 158.457 167.308 158.045C165.428 157.426 165.134 157.426 164.899 157.477C163.841 157.632 163.254 158.612 162.96 159.076C162.842 159.334 162.078 160.572 162.49 161.965C162.783 163.048 163.547 163.306 163.43 164.028C163.312 164.698 162.49 165.111 161.961 165.369C158.964 166.813 155.262 165.678 154.91 165.575C153.735 165.214 153.735 165.008 150.503 163.77C149.21 163.254 148.681 163.099 147.976 163.099C146.919 163.099 146.155 163.563 144.392 164.698C141.513 166.503 141.043 166.916 139.691 167.638C137.811 168.618 136.518 169.289 135.519 168.876C134.579 168.463 133.757 167.019 133.757 167.019C130.584 167.329 130.114 167.174 130.114 167.174C129.526 166.968 128.88 166.142 127.587 164.492C126.529 163.151 126.471 162.893 125.883 162.583C125.472 162.377 125.178 162.377 122.945 162.274C120.536 162.171 120.242 162.119 119.89 161.913C118.891 161.294 119.008 160.211 118.421 160.211C117.715 160.159 117.422 161.552 116.717 161.5C116.129 161.449 115.776 160.417 115.365 159.334C114.895 157.941 114.954 157.477 114.425 156.291C114.249 155.93 114.072 155.569 113.661 154.847C111.37 151.133 110.077 150.462 110.194 148.915C110.253 147.78 111.017 147.161 110.723 147.007C110.312 146.697 108.725 148.451 105.787 149.276C104.142 149.74 102.321 149.844 102.086 149.431C101.851 148.967 103.613 148.038 103.378 147.574C103.143 147.058 101.204 147.78 100.382 146.904C99.9704 146.491 100.264 146.078 99.7941 145.666C99.1477 145.15 98.2076 145.717 97.7375 145.305C96.9737 144.686 98.5014 142.984 97.6788 142.004C97.5025 141.797 97.0324 141.642 96.2098 141.385C94.9759 141.024 93.977 140.714 92.8018 140.766C91.3916 140.817 91.5678 141.333 90.2752 141.436C88.2186 141.591 87.396 140.301 85.5157 140.663C84.6931 140.817 84.8694 141.024 83.988 141.281C83.5179 141.385 82.284 141.643 78.6409 140.405C76.4668 139.683 75.5267 139.115 74.9391 139.528C74.469 139.837 74.469 140.508 74.469 140.766C74.469 141.488 74.8216 142.055 75.1741 142.519C75.8792 143.499 76.7019 143.912 76.5844 144.015C76.4081 144.221 73.999 142.674 72.765 143.396C72.2362 143.706 72.4125 144.17 71.7661 144.634C70.8848 145.253 70.0034 144.84 69.7683 145.253C69.4158 145.82 70.591 147.161 70.9435 147.574C71.5311 148.245 71.8249 148.296 71.8249 148.606C71.8249 149.276 70.4147 150.05 69.1808 149.895C68.3581 149.792 66.3016 148.451 66.9479 148.864C66.9479 148.864 65.3614 147.78 63.8337 146.904C62.3647 146.078 61.6596 145.666 61.0133 145.459C59.0155 144.892 58.1929 145.717 56.9589 144.995C55.9013 144.376 55.8425 143.448 55.0199 143.396C54.1385 143.345 53.3746 144.325 53.2571 144.221C53.0809 144.118 54.0798 143.293 54.1973 142.158C54.256 141.333 53.9035 140.456 53.2571 139.889C52.6695 139.321 52.3757 139.528 51.6119 138.806C50.9068 138.187 50.9068 137.826 50.3779 137.671C49.6728 137.465 49.2615 137.98 48.8502 137.723C48.3801 137.413 48.909 136.588 48.4977 136.227C48.2039 136.02 47.7338 136.227 47.0287 136.381C45.5597 136.691 45.3835 136.33 43.7382 136.588C42.4455 136.794 41.3879 136.897 40.859 137.619C40.2127 138.445 40.9765 139.425 40.5065 139.683C39.9189 140.044 38.0386 139.115 37.8623 138.032C37.7448 137.104 38.8025 136.536 38.4499 136.02C38.2149 135.659 37.2747 135.608 36.6872 135.814C36.2758 135.969 35.9821 136.381 35.3945 137.258C34.278 138.909 34.278 138.909 34.1018 139.012C33.0441 139.734 31.9277 139.321 31.6339 139.94C31.3989 140.456 31.9865 141.385 31.9865 141.385C31.9865 141.385 31.2814 142.365 31.5164 143.035C31.6927 143.551 32.339 143.448 32.8678 144.067C33.1616 144.376 33.1616 144.634 33.3379 146.181C33.5729 147.935 33.6317 148.245 33.3967 148.399C32.8091 148.76 31.3989 147.729 31.2814 147.884C31.1051 148.09 33.3379 149.482 33.0441 150.256C32.8091 150.824 30.9288 150.824 30.0474 150.72C28.2847 150.566 27.7558 149.895 26.7569 150.256C25.9931 150.514 26.1693 151.03 25.288 151.391C24.054 151.907 22.9964 151.391 22.7026 151.855C22.6438 151.907 22.6438 152.01 22.9376 153.145C22.9376 153.145 23.1726 154.176 23.0551 154.898C22.8788 155.827 22.2325 155.93 21.5274 156.961C20.9986 157.787 20.9398 158.457 20.8223 159.489C20.2935 161.861 21.0573 162.635 20.3522 163.306Z" fill="#E3E7F2" stroke="#426FAD" stroke-width="2" stroke-miterlimit="10"/>
<path d="M184.65 28.2394C183.322 18.1165 178.031 5 157.256 5C136.482 5 131.191 18.1165 129.864 28.2394C129.2 33.8006 129.482 39.4343 130.699 44.901C134.538 64.2324 143.426 82.203 156.46 96.9865C156.666 97.2071 156.955 97.3325 157.257 97.3325C157.559 97.3325 157.848 97.2071 158.054 96.9865C171.088 82.203 179.976 64.2324 183.814 44.901C185.031 39.4343 185.314 33.8006 184.65 28.2394Z" fill="#A4C2F7"/>
<path d="M177.232 28.2394C175.987 18.7461 171.102 6.62013 153.363 5.14893C153.087 6.28735 152.027 7.05756 150.859 6.9673C148.591 6.89698 146.098 7.14227 143.699 6.99831C143.716 7.89033 143.225 8.71508 142.433 9.12483C140.718 9.86513 138.981 10.5548 137.334 11.4426C136.053 12.134 134.127 13.0274 133.883 14.6076C133.762 15.2355 133.377 15.7807 132.825 16.1038C131.762 21.3083 130.355 26.5198 129 31.7056C129.106 36.2208 129.212 40.7343 129.316 45.2465C130.006 44.9658 130.784 44.9987 131.448 45.3365C132.112 45.6743 132.596 46.2839 132.775 47.007C134.935 55.0167 136.9 63.2224 138.832 71.3602C139.225 72.366 139.612 73.3619 139.979 74.3419C140.425 75.5321 140.86 76.876 141.303 78.2946C142.121 77.9961 143.035 78.1152 143.75 78.6135C144.465 79.1118 144.893 79.9275 144.896 80.7993V80.9574C144.902 81.5692 144.682 82.1619 144.28 82.6229C144.398 82.6561 144.507 82.7173 144.626 82.7464C145.829 82.9825 146.657 84.0916 146.542 85.312C148.657 88.2879 150.796 91.2455 152.919 94.2151C164.64 79.9319 172.699 63.0045 176.396 44.9016C177.613 39.4345 177.896 33.8005 177.232 28.2394Z" fill="#E3E7F2"/>
<path d="M129.866 28.2394C131.193 18.1171 136.484 5 157.259 5C158.588 5 159.849 5.05648 161.055 5.15974C143.4 6.66888 138.528 18.7641 137.285 28.2394C136.621 33.8009 136.903 39.4343 138.121 44.9013C141.773 62.7177 149.634 79.4021 161.048 93.5615C159.759 95.1296 158.713 96.2902 158.056 96.9862C157.849 97.2069 157.561 97.3323 157.259 97.3323C156.957 97.3323 156.668 97.2071 156.461 96.9862C143.427 82.203 134.54 64.2324 130.701 44.9011C129.484 39.4343 129.201 33.8006 129.866 28.2394Z" fill="white"/>
<path d="M156.998 103C155.945 102.998 154.938 102.564 154.213 101.8C140.067 85.8263 130.435 66.3665 126.311 45.4272C124.961 39.3494 124.651 33.0869 125.394 26.9055C127.701 9.30404 138.63 0 157 0C175.374 0 186.303 9.30404 188.605 26.9055C189.35 33.0866 189.04 39.3494 187.69 45.4272C183.569 66.3668 173.937 85.8263 159.788 101.798C159.061 102.563 158.053 102.998 156.998 103ZM157 5.35399C141.264 5.35399 132.66 12.6319 130.697 27.6009C130.036 33.1833 130.323 38.8373 131.547 44.324C135.483 63.7144 144.237 81.8007 157 96.914C169.767 81.8022 178.521 63.7153 182.454 44.324C183.678 38.8373 183.964 33.183 183.301 27.6009C181.341 12.6319 172.74 5.35399 157 5.35399Z" fill="#256095"/>
<path d="M157 51C148.911 51 141.619 46.2491 138.523 38.9626C135.427 31.6761 137.139 23.2889 142.858 17.712C148.578 12.135 157.18 10.4667 164.654 13.4849C172.127 16.503 177 23.6132 177 31.5002C176.988 42.2647 168.041 50.9884 157 51ZM157 17.3096C151.114 17.3096 145.806 20.767 143.554 26.0696C141.301 31.3721 142.546 37.4757 146.709 41.5345C150.871 45.5929 157.131 46.8071 162.57 44.6107C168.009 42.4142 171.555 37.2397 171.555 31.5002C171.545 23.667 165.034 17.3191 157 17.3096Z" fill="#256095"/>
</svg>
