<svg width="130" height="98" viewBox="0 0 130 98" fill="none" xmlns="http://www.w3.org/2000/svg">
<path d="M45.8672 95.5502L71.4258 76.1982L45.8672 95.5502Z" fill="#EB7A0C"/>
<path d="M54.496 63.7004L45.8672 95.5506L71.4258 76.1979L54.496 63.7004Z" fill="#A4C2F7"/>
<path d="M54.4949 63.7002L46.004 95.5502L39.3945 53.9002L127.84 2.45044L54.4949 63.7002Z" fill="#A4C2F7"/>
<path d="M125.772 6.93812C125 6.96673 124.277 6.50583 123.897 5.74194L54.4941 63.7001L97.6381 95.55L126.433 6.78575C126.22 6.87361 125.997 6.92499 125.772 6.93812Z" fill="#A4C2F7"/>
<path d="M114.897 12.2507L54.4961 63.7005L93.3256 90.6504L119.212 9.80054L114.897 12.2507Z" fill="#E3E7F2"/>
<path d="M120.815 4.09912L2.58594 31.8501L39.3954 53.9001L122.42 5.60296C121.687 5.46344 121.075 4.89016 120.815 4.09912Z" fill="white"/>
<path d="M114.898 9.80029L9.19531 36.7503L39.396 53.9002L116.503 11.3041C115.77 11.1643 115.158 10.5913 114.898 9.80029Z" fill="#E3E7F2"/>
<path d="M97.6412 98C97.2241 98.0003 96.8157 97.8631 96.4657 97.6054L53.3217 65.7554C52.7275 65.3172 52.3605 64.5758 52.3399 63.7717C52.3194 62.9675 52.6476 62.203 53.2184 61.7264L104.976 18.5045L40.3805 56.08C39.7549 56.4445 39.0119 56.4402 38.3897 56.068L1.58049 34.0178C0.775024 33.535 0.323201 32.53 0.451192 31.506C0.579183 30.4821 1.25949 29.6595 2.15131 29.4505L127.366 0.060029C128.228 -0.160643 129.122 0.238669 129.622 1.06736C129.667 1.14062 129.708 1.21739 129.744 1.29707C129.946 1.72324 130.031 2.20808 129.988 2.6897C129.978 2.81667 129.958 2.94219 129.929 3.06537C129.91 3.15294 129.886 3.23934 129.858 3.32369L99.6657 96.3969C99.3539 97.3607 98.5454 98.0012 97.6412 98ZM58.2871 63.5758L96.552 91.8226L123.336 9.25497L58.2871 63.5758ZM8.90964 32.8668L39.4116 51.1388L112.699 8.50597L8.90964 32.8668Z" fill="#256095"/>
<path d="M45.8703 97.9999C44.9194 98.0008 44.08 97.2944 43.804 96.2611C43.528 95.2275 43.8803 94.1107 44.6717 93.5114L70.2295 74.1602C70.8707 73.6672 71.6955 73.6023 72.3904 73.9903C73.0854 74.3782 73.5439 75.1593 73.5919 76.0371C73.64 76.9148 73.2699 77.7546 72.6227 78.2371L47.0649 97.5883C46.7113 97.8563 46.2957 97.9996 45.8703 97.9999Z" fill="#428DFF"/>
<path d="M46.0068 97.9999C45.9667 97.9999 45.9245 97.9976 45.8824 97.9949C44.887 97.9302 44.0604 97.0994 43.8831 95.9853L37.2746 54.3352C37.106 53.2736 37.5689 52.2117 38.4145 51.7201L126.86 0.270294C127.86 -0.311742 129.086 0.0761852 129.678 1.16174C130.269 2.24729 130.027 3.66677 129.122 4.42366L56.3545 65.1904L48.0713 96.2602C47.7961 97.2938 46.9572 98.0005 46.0068 97.9999ZM41.8039 55.2517L46.5396 85.0967L52.4341 62.9896C52.5688 62.4831 52.8445 62.0397 53.2198 61.7262L104.978 18.5043L41.8039 55.2517Z" fill="#256095"/>
<path d="M45.8686 98C45.1839 98 44.5401 97.631 44.1333 97.0058C43.7264 96.3805 43.6051 95.5729 43.8061 94.8297L52.4349 62.9797C52.6339 62.2447 53.1247 61.6586 53.7611 61.3962C54.3975 61.1338 55.1053 61.2257 55.673 61.6446L72.602 74.1435C73.2106 74.5927 73.5794 75.3595 73.5837 76.1838C73.5881 77.0081 73.227 77.7796 72.623 78.237L47.0652 97.5881C46.7111 97.8572 46.2944 98.0005 45.8686 98ZM55.7193 67.5233L49.7111 89.6953L67.5037 76.2253L55.7193 67.5233Z" fill="#256095"/>
</svg>
