<svg width="118" height="118" viewBox="0 0 118 118" fill="none" xmlns="http://www.w3.org/2000/svg">
<path d="M26.448 7.63771C26.4494 6.35041 26.8372 5.09099 27.5644 4.0127L7.17078 9.29475C5.39572 9.75447 3.88245 10.877 2.96353 12.4153C2.04461 13.9535 1.79567 15.7819 2.27125 17.4975L26.2991 104.179C26.3091 104.214 26.3444 104.237 26.382 104.233C26.4196 104.228 26.4477 104.197 26.4477 104.16L26.448 7.63771Z" fill="#E3E7F2"/>
<path d="M63.0729 1.96655H86.6623C90.4887 1.96655 93.5907 4.96502 93.5907 8.66384V109.336C93.5907 113.035 90.4887 116.033 86.6623 116.033H63.0729C59.2465 116.033 56.1445 113.035 56.1445 109.336V8.66384C56.1443 4.96502 59.2462 1.96655 63.0729 1.96655Z" fill="#A4C2F7"/>
<path d="M33.3776 1.96655H56.967C60.7934 1.96655 63.8953 4.96502 63.8953 8.66384V109.336C63.8953 113.035 60.7934 116.033 56.967 116.033H33.3776C29.5511 116.033 26.4492 113.035 26.4492 109.336V8.66384C26.4492 4.96502 29.5511 1.96655 33.3776 1.96655Z" fill="white"/>
<path d="M39.4811 1.96655H78.5219C82.3484 1.96655 85.4503 4.96502 85.4503 8.66384V109.336C85.4503 113.035 82.3484 116.033 78.5219 116.033H39.4811C35.6547 116.033 32.5527 113.035 32.5527 109.336V8.66384C32.5527 4.96502 35.6547 1.96655 39.4811 1.96655Z" fill="#E3E7F2"/>
<path d="M93.5921 13.7671H56.1445V92.4344H93.5921V13.7671Z" fill="#A4C2F7"/>
<path d="M85.4506 13.7671H32.5527V92.4344H85.4506V13.7671Z" fill="url(#paint0_linear)"/>
<path d="M59.0039 110.134C62.3748 110.134 65.1074 107.493 65.1074 104.234C65.1074 100.976 62.3748 98.3342 59.0039 98.3342C55.633 98.3342 52.9004 100.976 52.9004 104.234C52.9004 107.493 55.633 110.134 59.0039 110.134Z" fill="#A4C2F7"/>
<path d="M84.6271 118H33.3786C28.431 117.994 24.4216 114.119 24.416 109.336V8.66362C24.4218 3.88111 28.431 0.00538913 33.3786 0H84.6271C89.5746 0.00562344 93.5841 3.88111 93.5897 8.66362V109.336C93.5838 114.119 89.5746 117.994 84.6271 118ZM33.3786 3.93313C30.6773 3.93618 28.4882 6.05223 28.4851 8.66338V109.336C28.4882 111.947 30.6773 114.063 33.3786 114.067H84.6271C87.3284 114.064 89.5174 111.948 89.5206 109.336V8.66362C89.5174 6.05247 87.3284 3.93641 84.6271 3.93336L33.3786 3.93313Z" fill="#256095"/>
<path d="M59.0014 112.1C54.507 112.1 50.8633 108.578 50.8633 104.233C50.8633 99.8886 54.5067 96.3667 59.0014 96.3667C63.4959 96.3667 67.1396 99.8886 67.1396 104.233C67.1348 108.576 63.494 112.095 59.0014 112.1ZM59.0014 100.3C56.7542 100.3 54.9324 102.061 54.9324 104.233C54.9324 106.406 56.7542 108.167 59.0014 108.167C61.2487 108.167 63.0705 106.406 63.0705 104.233C63.0679 102.062 61.2475 100.303 59.0014 100.3Z" fill="#256095"/>
<path d="M91.5553 94.3999H26.4504C25.3267 94.3999 24.416 93.5194 24.416 92.4334C24.416 91.3471 25.3269 90.4668 26.4504 90.4668H91.5553C92.679 90.4668 93.5897 91.3473 93.5897 92.4334C93.5897 93.5194 92.6788 94.3999 91.5553 94.3999Z" fill="#256095"/>
<path d="M91.5553 15.7334H26.4504C25.3267 15.7334 24.416 14.8529 24.416 13.7669C24.416 12.6808 25.3269 11.8003 26.4504 11.8003H91.5553C92.679 11.8003 93.5897 12.6808 93.5897 13.7669C93.5897 14.8529 92.6788 15.7334 91.5553 15.7334Z" fill="#256095"/>
<path d="M59.0027 9.83303H50.8645C49.7408 9.83303 48.8301 8.9525 48.8301 7.86647C48.8301 6.78044 49.741 5.8999 50.8645 5.8999H59.0027C60.1264 5.8999 61.0371 6.78044 61.0371 7.86647C61.0371 8.9525 60.1262 9.83303 59.0027 9.83303Z" fill="#256095"/>
<path d="M67.1411 9.83303H65.1067C63.9829 9.83303 63.0723 8.9525 63.0723 7.86647C63.0723 6.78044 63.9832 5.8999 65.1067 5.8999H67.1411C68.2649 5.8999 69.1755 6.78044 69.1755 7.86647C69.1755 8.9525 68.2646 9.83303 67.1411 9.83303Z" fill="#256095"/>
<path d="M27.0734 7.86629C26.3062 7.86605 25.6045 7.44874 25.2584 6.78682C24.6844 6.31211 24.4301 5.56887 24.5976 4.85681C24.7651 4.14474 25.3272 3.58122 26.0571 3.39307L32.1637 1.81616L29.2688 6.11247C29.1389 6.30648 29.0235 6.50916 28.9241 6.71934C28.5923 7.41899 27.8692 7.86699 27.0734 7.86629Z" fill="#256095"/>
<path d="M26.4472 103.968C25.713 103.968 25.0355 103.586 24.675 102.968C23.9493 102.799 23.377 102.261 23.1838 101.564L22.6692 99.7065C22.4108 98.7741 22.8903 97.7985 23.8012 97.4032C24.7121 97.0079 25.7852 97.3099 26.334 98.1162C26.8917 98.0876 27.4374 98.2816 27.8431 98.6525C28.2491 99.0235 28.4799 99.5392 28.4816 100.079V102.002C28.4818 102.523 28.2676 103.024 27.8858 103.392C27.5043 103.761 26.9868 103.968 26.4472 103.968Z" fill="#256095"/>
<path d="M26.4477 94.3522C25.4049 94.352 24.5311 93.5898 24.4242 92.5872C24.0664 93.3405 23.2582 93.7962 22.4038 93.7264C21.5494 93.6568 20.8316 93.0767 20.6094 92.276L20.0948 90.4189C19.9067 89.7403 20.1074 89.0163 20.6212 88.5193C21.1351 88.0226 21.8841 87.8286 22.5863 88.0104C23.2885 88.1922 23.8366 88.7222 24.0247 89.4008L24.413 90.8008V90.4627C24.413 89.3764 25.3239 88.4961 26.4474 88.4961C27.5712 88.4961 28.4819 89.3767 28.4819 90.4627V92.3852C28.4821 92.9068 28.2676 93.407 27.886 93.7761C27.5048 94.1451 26.9872 94.3522 26.4477 94.3522Z" fill="#256095"/>
<path d="M19.9985 84.4456C19.0782 84.4451 18.2727 83.8474 18.0346 82.9879L17.5191 81.1308C17.2282 80.0818 17.8722 79.0035 18.9574 78.7223C20.0426 78.4411 21.1581 79.0637 21.449 80.1127L21.9646 81.9698C22.1285 82.5605 21.9985 83.1913 21.6134 83.6766C21.228 84.1616 20.6312 84.446 19.9985 84.4456Z" fill="#256095"/>
<path d="M17.4263 75.1577C16.5059 75.1572 15.7004 74.5595 15.4624 73.7001L14.9468 71.8409C14.6559 70.7919 15.3 69.7137 16.3852 69.4325C17.4704 69.1514 18.5859 69.7739 18.8768 70.8229L19.3923 72.6818C19.5557 73.2725 19.4258 73.903 19.0406 74.388C18.6554 74.8733 18.0589 75.1577 17.4263 75.1577Z" fill="#256095"/>
<path d="M14.8506 65.8679C13.9302 65.867 13.125 65.2695 12.8867 64.4103L12.3721 62.5532C12.184 61.8746 12.3847 61.1506 12.8986 60.6536C13.4125 60.1569 14.1615 59.9629 14.8637 60.1447C15.5656 60.3265 16.1139 60.8565 16.302 61.5351L16.8166 63.3922C16.98 63.9829 16.8501 64.6134 16.4649 65.0985C16.0798 65.5837 15.4832 65.8679 14.8506 65.8679Z" fill="#256095"/>
<path d="M12.2761 56.5799C11.3557 56.579 10.5505 55.9815 10.3122 55.1223L9.79758 53.2651C9.50864 52.2168 10.1527 51.1402 11.2369 50.8594C12.3212 50.5787 13.4357 51.1997 13.7278 52.2473L14.2424 54.1044C14.4057 54.6951 14.2758 55.3256 13.8907 55.8107C13.5052 56.2957 12.9087 56.5799 12.2761 56.5799Z" fill="#256095"/>
<path d="M9.70265 47.2922C8.78227 47.2913 7.97703 46.6938 7.73876 45.8346L7.22415 43.9757C6.93328 42.9267 7.57732 41.8484 8.66277 41.5673C9.74798 41.2861 10.8635 41.9087 11.1544 42.9579L11.669 44.8168C11.8088 45.3208 11.7359 45.8576 11.4658 46.3093C11.1958 46.7611 10.751 47.0905 10.2296 47.225C10.0578 47.2697 9.88057 47.2922 9.70265 47.2922Z" fill="#256095"/>
<path d="M7.12744 38.0022C6.20707 38.0017 5.40159 37.404 5.16356 36.5446L4.64798 34.6874C4.35711 33.6384 5.00115 32.5601 6.08635 32.279C7.17155 31.9978 8.28706 32.6203 8.57793 33.6694L9.0935 35.5265C9.25736 36.1172 9.12744 36.748 8.74227 37.2332C8.35711 37.7182 7.76033 38.0025 7.12744 38.0022Z" fill="#256095"/>
<path d="M4.55151 28.7144C3.63114 28.7139 2.82566 28.1162 2.58738 27.2567L2.07181 25.3993C1.78094 24.3503 2.42498 23.272 3.51018 22.9909C4.59538 22.7097 5.71088 23.3323 6.00176 24.3813L6.51733 26.2384C6.68119 26.8291 6.55127 27.4599 6.1661 27.9451C5.78094 28.4304 5.18416 28.7146 4.55151 28.7144Z" fill="#256095"/>
<path d="M2.06545 19.4072C1.01806 19.406 0.142529 18.6366 0.0416927 17.6288C0.0138173 17.3446 8.1891e-07 17.0622 8.1891e-07 16.7836C-0.000241576 16.237 0.0533276 15.6918 0.159981 15.155C0.296934 14.4649 0.804267 13.8981 1.49097 13.6678C2.17768 13.4375 2.93904 13.5787 3.48879 14.0385C4.03854 14.4982 4.29257 15.2063 4.15562 15.8963C4.09769 16.1876 4.06884 16.4833 4.06908 16.7797C4.06908 16.939 4.07708 17.0946 4.09284 17.2541C4.19852 18.3348 3.37874 19.294 2.26106 19.3976C2.19634 19.4046 2.13089 19.4079 2.06545 19.4072Z" fill="#256095"/>
<path d="M7.36477 12.2377C6.34429 12.2368 5.48233 11.5053 5.3495 10.5273C5.21667 9.54925 5.85368 8.62724 6.83926 8.37161L8.76145 7.87417C9.84665 7.593 10.9622 8.21556 11.253 9.26456C11.5439 10.3136 10.8999 11.3919 9.81466 11.673L7.89247 12.1705C7.72036 12.2152 7.54293 12.238 7.36477 12.2377Z" fill="#256095"/>
<path d="M16.9722 9.74682C15.9517 9.74589 15.0898 9.0144 14.9569 8.03643C14.8241 7.05846 15.4611 6.13648 16.4467 5.88086L18.3679 5.38344C19.4531 5.10228 20.5686 5.72482 20.8595 6.77402C21.1503 7.82298 20.5063 8.90123 19.4209 9.18239L17.4996 9.67981C17.3278 9.72433 17.1503 9.74706 16.9722 9.74682Z" fill="#256095"/>
<path d="M91.5559 8.66383C91.5545 7.37653 91.1666 6.11711 90.4395 5.03882L110.833 10.3209C112.608 10.7806 114.121 11.9032 115.04 13.4414C115.959 14.9797 116.208 16.808 115.732 18.5236L91.7045 105.205C91.6946 105.241 91.6592 105.263 91.6216 105.258C91.584 105.254 91.5559 105.223 91.5559 105.186V8.66383Z" fill="#E3E7F2"/>
<path d="M93.2049 107.379L89.5837 106.983L89.5183 105.186V8.66342C89.5161 7.75593 89.2419 6.86884 88.7285 6.10897L85.8516 1.81641L111.357 8.42138C113.653 9.01582 115.611 10.4678 116.799 12.4581C117.988 14.4481 118.31 16.813 117.695 19.0326L93.2049 107.379ZM93.5505 7.88176C93.5752 8.14114 93.5874 8.40216 93.5874 8.66342V90.8046L113.765 18.0147C114.101 16.8027 113.925 15.5114 113.276 14.4246C112.626 13.3379 111.558 12.545 110.304 12.2202L93.5505 7.88176Z" fill="#256095"/>
<defs>
<linearGradient id="paint0_linear" x1="25.4601" y1="20.4731" x2="105.769" y2="55.7938" gradientUnits="userSpaceOnUse">
<stop stop-color="#D4E1F4"/>
<stop offset="0.172" stop-color="#D4E1F4"/>
<stop offset="0.2" stop-color="#DAE4F4"/>
<stop offset="0.201" stop-color="#F6F1F4"/>
<stop offset="0.202" stop-color="#FDF4F4"/>
<stop offset="0.205" stop-color="#FFF5F4"/>
<stop offset="0.252" stop-color="#FFF5F4"/>
<stop offset="0.26" stop-color="#D4E1F4"/>
<stop offset="0.397" stop-color="#D4E1F4"/>
<stop offset="0.42" stop-color="#DAE4F4"/>
<stop offset="0.421" stop-color="#F6F1F4"/>
<stop offset="0.422" stop-color="#FDF4F4"/>
<stop offset="0.425" stop-color="#FFF5F4"/>
<stop offset="0.489" stop-color="#FFF5F4"/>
<stop offset="0.5" stop-color="#D6E2F4"/>
<stop offset="0.501" stop-color="#D4E1F4"/>
<stop offset="0.706" stop-color="#D4E1F4"/>
<stop offset="0.74" stop-color="#D4E1F4"/>
<stop offset="0.741" stop-color="#FFF5F4"/>
<stop offset="0.835" stop-color="#FFF5F4"/>
<stop offset="0.85" stop-color="#FFF5F4"/>
<stop offset="0.851" stop-color="#D4E1F4"/>
</linearGradient>
</defs>
</svg>
