<svg width="1131" height="1083" viewBox="0 0 1131 1083" fill="none" xmlns="http://www.w3.org/2000/svg">
<path d="M822.065 363.549L690.435 337.14L515.853 401.759L305.247 378.159L205.208 442.215L140.641 704.342L522.504 762.499L776.618 690.294L840.354 709.68H1090.59L822.065 363.549Z" fill="#E1F4FD"/>
<path d="M563.517 0L224.052 198.632L119.857 374.226L140.641 704.342L840.355 709.68H1090.59L974.201 404.849L854.487 301.179L794.631 151.994L625.591 120.528L563.517 0Z" fill="#25A9EB" fill-opacity="0.05"/>
<path d="M192.293 349L99.7368 453.233L13 631.074L232.197 639.502L192.293 349Z" fill="#E1F4FD"/>
<path d="M566.58 0L474.214 179.746L566.58 250.678V305.085L474.214 358.983L405.077 349.068L485.965 399.661L539.8 386.949L506.187 497.542L439.782 542.797L508.647 624.661L777 578.136L773.447 642.203L526.136 690L2 642.203L87.5342 481.271L165.144 401.186L145.468 338.644L240.02 179.746L566.58 0Z" fill="#DFF3FD"/>
<path d="M2 638.015L529.766 659.852L782.091 630L1071.56 649.978L1131 736.629L1111.19 809.69L926.553 868.928V922.94L611.765 1055.47L435.109 1083L404.015 1020.86L219.655 986.244L61.7107 850.925L107.113 785.646L61.7107 776.122L87.301 696.556L2 638.015Z" fill="#71B7D1"/>
<path d="M3.60742 637.701L87.2955 696.741L61.3337 775.631L105.796 785.51L60.6742 850.118L215.395 986.246L341.367 932.996L405.678 1002.27C405.678 1002.27 459.482 969.553 457.051 968.028C454.62 966.503 441.497 883.912 441.497 883.912L241.488 861.783L284.258 786.743L364.958 784.45L524.394 664.058L3.60742 637.701Z" fill="#96CAE3"/>
<path d="M776.7 690L851 696.802L753.498 925L714 914.635L776.7 690Z" fill="#70B4D4"/>
<path d="M1091 701.369L839.097 888.915L753 925L851.039 697L1091 701.369Z" fill="#96CAE3"/>
<path d="M713.265 566.97L717.699 459.928L821.34 422L804.713 538.032L895.884 519.771L787.532 630.184L708 619.789L713.265 566.97Z" fill="#DFF3FD"/>
<path d="M144.644 338.669L334.296 190.262L371.969 204.895L284.175 381.533L417.093 436.749L500.048 432.691L408.529 480.058L259.818 479.749L244.965 547.948L353.25 577.695L395.136 666.655L159.883 650.181L153.552 520.776L182.055 436.479L144.644 338.669Z" fill="#C7EAFB"/>
<path d="M741.703 374.226L673.533 475.368L741.703 539.986L727.848 457.106L741.703 374.226Z" fill="#DFF3FD"/>
</svg>
