<svg width="148" height="148" viewBox="0 0 148 148" fill="none" xmlns="http://www.w3.org/2000/svg">
<path d="M74 147C114.317 147 147 114.317 147 74C147 33.6832 114.317 1 74 1C33.6832 1 1 33.6832 1 74C1 114.317 33.6832 147 74 147Z" stroke="#0660A4" stroke-miterlimit="10"/>
<path d="M74.0001 127.839C103.735 127.839 127.84 103.734 127.84 73.9994C127.84 44.2644 103.735 20.1594 74.0001 20.1594C44.2651 20.1594 20.1602 44.2644 20.1602 73.9994C20.1602 103.734 44.2651 127.839 74.0001 127.839Z" stroke="#0660A4" stroke-miterlimit="10"/>
<path d="M22.9207 40.2157L25.1252 43.4576L24.1132 44.8702L17.1777 34.4612L18.3587 32.8124L30.4583 36.0104L29.4116 37.4716L25.6092 36.4596L22.9207 40.2157ZM24.449 36.0474L20.9755 35.1211C20.1835 34.9104 19.5073 34.658 18.845 34.4264L18.8219 34.4588C19.285 35.0192 19.7296 35.6167 20.1604 36.2257L22.1704 39.2361L24.449 36.0474Z" fill="#256095"/>
<path d="M23.6133 26.5561C24.2799 25.7055 25.0165 24.9123 25.8155 24.1848C27.1331 22.9644 28.1845 22.3924 29.2288 22.3322C29.6512 22.3043 30.0744 22.3732 30.4661 22.5337C30.8578 22.6943 31.2077 22.9422 31.489 23.2585C32.538 24.3932 32.4407 25.8799 31.7205 27.1165L31.7553 27.1558C32.7047 26.6927 33.7097 26.9057 34.7657 27.5865C36.1852 28.4966 37.1786 29.1126 37.6858 29.2608L36.4098 30.4418C36.0277 30.3445 35.1316 29.8027 33.8626 28.9829C32.4731 28.0566 31.5584 28.0891 30.4029 29.0871L29.2451 30.1639L32.6908 33.8829L31.4565 35.0246L23.6133 26.5561ZM28.4762 29.3349L29.7383 28.1771C31.0559 26.9544 31.2921 25.5302 30.3821 24.5507C29.3562 23.4415 28.0154 23.7865 26.7001 24.9814C26.2815 25.3493 25.9042 25.7616 25.5747 26.211L28.4762 29.3349Z" fill="#256095"/>
<path d="M46.2118 23.0388C45.8459 23.6107 44.9637 24.5185 43.6368 25.3869C40.5662 27.3992 37.1227 27.1676 35.0108 23.9581C33.0054 20.8944 33.9572 17.3051 37.3265 15.0913C38.6858 14.2044 39.714 13.9033 40.2003 13.8339L40.536 15.089C39.6529 15.2641 38.8142 15.6153 38.0698 16.1218C35.5226 17.7937 34.7769 20.3711 36.4604 22.9415C38.0305 25.3382 40.5731 25.8732 43.2246 24.1364C44.0166 23.6341 44.7058 22.9858 45.2554 22.2259L46.2118 23.0388Z" fill="#256095"/>
<path d="M46.6696 11.9255L43.0108 13.4423L42.5176 12.2566L51.4261 8.55151L51.917 9.73947L48.2373 11.2748L52.2273 20.8988L50.6549 21.5495L46.6696 11.9255Z" fill="#256095"/>
<path d="M55.4995 7.52094L58.6466 18.7914L57.0256 19.2546L53.8809 7.97481L55.4995 7.52094Z" fill="#256095"/>
<path d="M70.0634 16.4198C69.4891 16.7811 68.3034 17.2257 66.7334 17.4434C63.0978 17.9505 60.0735 16.2693 59.5432 12.4693C59.0383 8.84056 61.442 6.00152 65.4343 5.44343C67.0414 5.21186 68.0997 5.38786 68.5674 5.53374L68.3359 6.80969C67.4629 6.59102 66.5547 6.55085 65.6659 6.69159C62.6416 7.11305 60.8747 9.1277 61.2985 12.1728C61.6921 15.0096 63.7647 16.5727 66.9024 16.1419C67.8306 16.0251 68.7281 15.7327 69.547 15.2805L70.0634 16.4198Z" fill="#256095"/>
<path d="M75.5929 15.0564C76.4637 15.6467 77.4651 16.0163 78.5107 16.1332C80.222 16.3115 81.308 15.6075 81.4307 14.4334C81.5465 13.3451 80.919 12.6504 79.2332 11.8607C77.1907 10.9645 75.9912 9.84373 76.1602 8.20422C76.3501 6.39103 78.1656 5.2216 80.6828 5.48559C81.672 5.55827 82.6314 5.85693 83.4871 6.35861L82.8966 7.53498C82.1671 7.08591 81.3452 6.80801 80.4929 6.72217C78.726 6.53692 77.9456 7.41688 77.8692 8.20885C77.7557 9.29723 78.4875 9.91552 80.2081 10.726C82.32 11.7148 83.3342 12.7824 83.1536 14.4913C82.9661 16.2883 81.3219 17.6847 78.2652 17.3628C77.017 17.2308 75.6855 16.7607 75.0371 16.2721L75.5929 15.0564Z" fill="#256095"/>
<path d="M93.4527 20.1466C92.7812 20.2416 91.5168 20.1674 89.9931 19.7298C86.4663 18.7132 84.3868 15.9483 85.4474 12.2617C86.4593 8.74181 89.8009 7.1185 93.682 8.23467C95.2427 8.68391 96.1412 9.26747 96.5094 9.58935L95.78 10.6615C95.0723 10.1091 94.2614 9.70367 93.3948 9.46893C90.4608 8.62602 88.0247 9.74913 87.1772 12.7109C86.3852 15.4643 87.6403 17.7406 90.6855 18.6159C91.5848 18.8889 92.5279 18.9879 93.4643 18.9077L93.4527 20.1466Z" fill="#256095"/>
<path d="M101.698 11.5154L99.4165 15.8527L104.997 18.7751L107.29 14.4309L108.797 15.2205L103.353 25.5925L101.848 24.8029L104.395 19.9399L98.8145 17.0198L96.2672 21.8828L94.7852 21.1001L100.209 10.7258L101.698 11.5154Z" fill="#256095"/>
<path d="M117.65 29.4831C115.047 32.556 111.588 32.424 109.052 30.2774C106.426 28.0543 106.132 24.6641 108.42 21.9617C110.821 19.1273 114.353 18.9351 117.007 21.1813C119.721 23.4901 119.894 26.8432 117.65 29.4831ZM109.814 23.1057C108.193 25.0138 107.901 27.6977 109.923 29.409C111.944 31.1203 114.531 30.4233 116.247 28.397C117.752 26.6209 118.289 23.893 116.152 22.0821C114.015 20.2713 111.474 21.1466 109.814 23.1057Z" fill="#256095"/>
<path d="M126.28 40.557C123.061 42.9792 119.717 42.0854 117.712 39.4293C115.642 36.6805 116.105 33.3089 118.935 31.1808C121.903 28.9461 125.391 29.5389 127.482 32.3178C129.622 35.1591 129.059 38.4683 126.28 40.557ZM120.051 32.5957C118.052 34.0985 117.17 36.6504 118.761 38.7647C120.352 40.8789 123.034 40.7747 125.155 39.1769C127.007 37.7874 128.142 35.2402 126.458 32.9986C124.775 30.757 122.098 31.0511 120.046 32.5957H120.051Z" fill="#256095"/>
<path d="M132.648 40.561L133.387 42.0709L124.013 46.6513L126.454 51.6532L125.317 52.209L122.135 45.6926L132.648 40.561Z" fill="#256095"/>
<path d="M73.2477 26.3173C73.1666 26.4308 73.4677 26.6485 74.3268 27.5817C75.3943 28.7396 75.3387 28.853 75.7996 29.1471C76.6679 29.7075 77.2955 29.5894 77.4669 29.9877C77.6382 30.386 77.1959 30.914 76.6818 31.1456C76.0404 31.4304 75.6236 31.0946 74.9914 31.2752C74.1276 31.5207 74.1276 32.3659 73.5186 33.2158C72.6595 34.4176 71.1427 34.8368 70.6749 34.9804C68.4241 35.6218 67.3913 34.2347 63.7603 34.2857C61.7757 34.3134 62.0351 34.7279 59.8375 34.7858C56.2574 34.8785 55.4608 33.7785 53.8028 34.3227C51.8344 34.9757 52.5175 36.6754 50.1509 38.2084C48.7152 39.1347 48.2497 38.6507 45.2717 39.621C42.7983 40.4448 40.4725 41.6589 38.3825 43.2173C37.0639 44.1623 35.8838 45.2871 34.8766 46.5588C33.7535 48.0131 33.9017 48.3767 32.5238 50.0139C31.3197 51.4473 30.7176 52.1628 29.877 52.8066C29.0364 53.4503 28.5339 53.6611 28.6033 54.0223C28.7261 54.6661 30.4165 54.8444 33.0912 55.817C34.2096 56.2246 37.5165 57.4264 37.4331 58.1558C37.3613 58.7695 35.0086 58.1744 32.107 59.4503C30.882 59.9876 30.4675 60.4623 29.1892 60.6082C27.6099 60.7911 26.1788 60.3025 26.1788 60.3766C26.1533 60.4993 30.0136 60.8258 31.2317 62.7131C31.887 63.7274 31.7481 65.1446 30.8913 65.7374C29.6454 66.5989 26.9847 65.6633 25.4957 64.6722C24.4235 63.9613 24.134 63.3361 23.7033 63.4102C22.7771 63.5723 23.1684 66.629 23.2888 67.5784C23.6014 70.0539 23.752 71.2835 24.7384 71.8648C26.3733 72.8211 29.3907 71.6818 31.0881 70.2646C32.4242 69.1508 33.1051 67.6826 34.4713 64.7486C35.4161 62.7108 35.7056 61.6433 36.7731 61.4742C37.8407 61.3052 39.0703 62.0948 39.7164 62.8521C41.078 64.4406 40.6426 66.886 39.4014 68.4097C37.6369 70.5888 35.0734 69.8987 34.1541 72.0593C33.7558 72.9971 33.9364 73.8447 32.9777 74.6644C32.3998 75.1841 31.6476 75.4676 30.8704 75.4587C30.0622 75.4263 29.8376 75.0535 29.3258 75.0419C27.992 75.0164 26.8874 77.4989 26.6304 79.7705C26.3525 82.2159 26.8944 85.8539 28.6427 86.3518C29.9928 86.7385 31.1228 84.9809 32.8851 85.5482C33.9549 85.8932 34.4621 86.8381 34.946 86.6875C35.1081 86.6366 35.2285 86.4745 35.3374 85.2356C35.4786 83.6401 35.3374 83.2395 35.7033 82.9963C36.2035 82.6652 37.3104 82.8504 37.7388 83.3506C38.3733 84.0893 37.3358 85.2912 37.6415 85.4672C37.9124 85.6223 39.0309 84.8674 39.7743 83.7049C40.7005 82.2715 40.1031 81.7088 40.7793 80.8589C42.0992 79.2009 45.1096 80.412 46.0266 78.9624C46.5407 78.1496 45.6862 77.6216 45.9502 74.8497C46.0035 74.3078 46.1007 73.6478 46.6611 73.0944C47.1799 72.5826 48.083 72.1681 48.4998 72.4205C49.0324 72.7355 48.5739 73.9952 48.7707 74.0531C49.0347 74.1272 49.5349 71.8069 50.5608 71.8069C51.0239 71.8069 51.2254 72.2909 52.3022 73.2519C53.1613 74.0184 54.6179 75.336 55.5882 75.1044C56.306 74.9446 56.1185 74.0739 56.8641 73.8887C57.7487 73.671 58.9482 74.6737 59.585 75.2086C61.5418 76.8458 61.1296 77.6169 62.482 78.5224C64.3137 79.7497 65.7517 78.7864 67.0671 79.9535C68.0952 80.8636 67.3172 81.5397 68.4426 83.6354C69.3967 85.4139 70.5522 86.0368 70.2326 86.6459C69.9594 87.1785 69.0169 86.8774 67.4144 87.4448C66.4377 87.7806 65.555 88.3442 64.8394 89.0889C63.5866 90.4899 64.2604 91.5204 63.0262 92.3008C62.0999 92.889 61.521 92.4258 60.6966 93.0372C59.6175 93.8361 60.3608 94.8133 59.423 96.0036C58.624 97.0179 57.8622 96.5987 56.0883 97.833C54.5785 98.8843 54.8471 99.3868 53.5411 100.262C53.1428 100.531 51.4199 101.684 49.1528 101.612C46.55 101.529 45.9109 99.9148 42.6295 99.4632C41.3513 99.2872 39.0124 99.1969 38.6928 99.9634C38.4613 100.538 39.4153 101.492 43.2571 104.115C46.7746 106.517 48.5322 107.719 51.3504 109.21C56.3848 111.922 60.0945 113.311 66.6734 115.712C73.3889 118.176 75.5263 118.602 77.4622 117.843C79.5464 117.03 81.0469 114.99 80.7042 114.624C80.424 114.332 78.8725 115.059 78.7428 114.874C78.6131 114.689 80.0095 113.964 81.3642 113.049C83.9531 111.306 83.5687 110.815 85.3124 109.828C87.0562 108.842 90.1175 107.795 91.7362 108.833C92.586 109.379 92.3498 110.064 93.3803 110.641C94.339 111.178 95.0013 110.84 96.8377 110.988C97.889 111.074 99.8481 111.22 101.469 112.239C103.09 113.258 103.076 114.309 104.387 114.585C105.413 114.8 106.601 114.402 106.716 113.848C106.8 113.452 106.295 113.177 105.295 112.1C104.137 110.861 103.375 110.037 103.625 109.509C103.91 108.904 105.501 108.717 106.297 109.254C106.851 109.629 106.619 110.078 107.224 111.065C107.828 112.051 108.833 112.866 109.136 112.751C109.396 112.651 109 111.926 108.842 110.333C108.767 109.813 108.75 109.285 108.791 108.761C109.009 106.924 110.384 105.489 110.384 105.489C112.399 105.389 112.837 105.176 112.837 105.176C112.897 105.146 113.978 104.599 113.995 103.539C113.981 103.153 113.867 102.778 113.664 102.45C113.461 102.122 113.176 101.852 112.837 101.668C111.748 101.087 110.753 101.807 107.49 102.175C105.751 102.372 104.866 102.462 104.204 102.068C103.405 101.605 103.336 100.829 102.877 98.2035C102.164 94.114 101.951 93.8407 102.041 92.5231C102.131 91.2055 102.504 88.7624 103.292 88.7693C103.958 88.7693 104.739 90.5663 105.082 91.7797C105.971 94.9198 104.493 96.1379 105.6 97.7658C106.647 99.3081 109.03 99.7689 110.431 100.042C114.692 100.869 118.8 99.3474 118.647 98.5555C118.51 97.8608 115.139 98.4073 112.612 96.344C110.475 94.598 109.734 91.6246 110.746 90.9716C110.903 90.8697 111.401 90.6289 115.162 92.1618C117.54 93.1298 120.675 94.5841 120.655 94.6165C120.634 94.6489 116.322 93.3637 114.671 90.4691C114.439 90.0754 113.809 88.9615 114.326 88.2344C115.106 87.1368 118.082 87.5397 118.077 87.4934C118.073 87.4471 114.11 87.7805 113.344 86.6065C112.767 85.7196 114.405 84.5733 113.687 83.5822C113.265 82.9986 112.605 83.2603 111.797 82.6814C110.496 81.7551 111.211 80.3425 110.104 77.5498C109.549 76.1604 109.271 75.4471 108.606 75.1994C106.934 74.5718 105.498 77.5151 102.33 77.4016C100.246 77.3229 98.2827 75.952 98.3799 75.3638C98.4772 74.7756 100.758 75.38 103.21 74.1318C104.725 73.3653 105.482 72.3001 106.006 72.5479C106.529 72.7957 106.133 74.1249 106.496 74.2407C106.86 74.3564 107.386 73.3375 108.238 72.1774C109.514 70.4383 110.153 69.5699 110.885 69.3847C113.318 68.7664 117.466 73.187 117.728 72.9832C117.989 72.7795 113.661 69.38 114.539 67.2519C114.798 66.622 115.338 66.5248 115.421 65.7374C115.535 64.6282 114.601 63.4866 114.071 62.8405C113.284 61.8795 112.927 61.8447 112.818 61.333C112.587 60.2539 113.962 59.3206 114.388 59.0289C115.85 58.0331 117.42 57.966 117.355 57.6858C117.29 57.4056 115.866 57.7089 114.706 56.9725C113.346 56.1088 113.86 54.7911 112.816 54.3187C111.725 53.8255 110.806 55.1038 108.134 55.0134C107.978 55.0134 106.309 54.937 106.147 54.4785C106.015 54.108 107.024 53.9413 107.469 53.0891C107.858 52.3388 107.58 51.526 107.224 50.4909C106.686 48.9255 106.126 48.8305 106.045 47.8348C105.943 46.5681 106.811 46.23 106.413 45.5955C105.929 44.829 104.586 45.2088 103.028 44.0996C102.592 43.7893 101.87 43.2775 101.777 42.5921C101.629 41.5731 103.002 41.2026 102.805 40.5311C102.588 39.7901 100.721 39.6419 98.4887 38.9796C96.6617 38.4331 95.5084 37.8217 93.2159 36.5828C90.8596 35.3237 88.6467 33.8127 86.6162 32.0765C83.3024 29.1934 83.4066 28.0819 81.4406 27.5632C79.6552 27.1 78.8632 27.8249 76.1145 27.1C74.6371 26.7041 73.4098 26.0997 73.2477 26.3173Z" fill="#256095"/>
<path d="M79.9869 98.8473C79.6141 98.8473 79.54 97.6454 78.3659 96.0684C77.3609 94.7184 76.6361 94.5563 76.599 93.8384C76.5435 92.7361 78.1876 91.9998 78.8314 91.7126C80.2001 91.0908 81.7405 90.9559 83.1964 91.3305C84.0625 91.5621 85.4427 92.1572 85.4288 92.7199C85.4149 93.1947 84.389 93.5443 83.5392 93.5744C82.43 93.6184 81.5639 93.1113 81.5037 93.2224C81.3925 93.41 84.6646 94.6119 84.7665 96.0499C84.8105 96.6636 84.2756 97.3096 83.7128 97.3235C82.7379 97.349 82.0919 95.471 81.3578 95.5196C80.4083 95.5868 80.6005 98.8496 79.9869 98.8473Z" fill="#D6E6EE"/>
<path d="M85.8919 106.977C83.3331 106.977 80.4014 106.762 77.2938 106.535C74.948 106.361 72.5234 106.183 70.0804 106.086C68.5451 106.023 67.0236 105.993 65.4304 105.993C64.2587 105.993 63.2028 106.009 62.2695 106.023C61.5053 106.035 60.7828 106.044 60.1275 106.044C56.9226 106.044 55.114 105.782 52.8678 104.219C48.725 101.339 47.3101 96.8439 47.06 95.9709C46.8053 95.0446 45.6359 90.2511 47.7246 85.717C48.0427 85.0414 48.412 84.3911 48.8292 83.7718C49.4383 82.82 50.0149 81.9192 50.3205 80.2543C50.45 79.5434 50.4959 78.8199 50.4572 78.0983C50.4313 76.9395 50.4661 75.78 50.5614 74.6248C50.6308 73.7217 50.6957 73.2354 50.7721 72.6588C50.8416 72.1262 50.9226 71.5241 51.0245 70.4681C51.1264 69.4122 51.2121 68.5322 51.2561 67.3026C51.2723 66.6565 51.2561 66.279 51.2561 65.8807C51.2561 65.5635 51.2445 65.2347 51.2561 64.7484C51.2839 62.9467 51.3001 61.8607 51.4483 61.474C51.622 61.0108 52.4023 60.7908 53.764 60.7908C55.1256 60.7908 56.9851 61.0224 59.0901 61.291C61.7948 61.6337 64.8585 62.0251 67.8897 62.0251C72.2039 62.0251 75.4875 61.2123 77.9283 59.545C78.044 59.4663 78.1714 59.3736 78.3127 59.274C79.5006 58.4334 81.7075 56.8657 84.5257 56.8657H84.5604C86.1814 56.8657 87.9668 57.3821 88.9325 57.6554L88.9903 57.6716C90.4678 58.0907 91.5376 58.3918 92.6955 59.1953C93.5013 59.7511 94.7217 60.5847 95.5206 62.2057C95.9143 63.0116 96.5742 64.357 96.1806 65.7279C95.9073 66.675 95.5762 67.247 94.4183 68.7823C92.0679 71.8923 91.1069 73.1659 90.9216 73.4322L90.7827 73.636C88.9927 76.2249 87.3091 78.6703 88.3582 80.326C88.8213 81.0671 89.516 81.1666 90.1922 81.2639C90.9233 81.3368 91.6322 81.5565 92.2763 81.91C93.3786 82.519 96.734 84.3762 97.8016 88.0489C98.4963 90.4086 97.9544 92.4811 97.57 93.9956C97.4136 94.6304 97.1539 95.2352 96.8012 95.7856C96.3736 96.4486 96.0802 97.1889 95.9374 97.9647C95.7768 98.8075 95.7224 99.6672 95.7753 100.524C95.8031 101.29 95.824 101.894 95.5067 102.735C95.06 103.715 94.403 104.585 93.5824 105.282C92.2786 106.445 89.8333 106.977 85.8919 106.977Z" fill="white"/>
<path d="M84.0341 56.7454H84.0667C85.5651 56.7454 87.2687 57.225 88.23 57.4957C88.256 57.503 88.2815 57.5102 88.3064 57.5172L88.3646 57.5358C89.8501 57.9556 90.8302 58.2354 91.9292 58.9885C92.6905 59.5132 93.8407 60.306 94.5764 61.8077C94.9373 62.5398 95.538 63.771 95.2027 64.9346C94.9699 65.7507 94.7068 66.2543 93.5263 67.819C91.1609 70.9575 90.1923 72.2493 89.9967 72.5222L89.857 72.7273L89.8424 72.7485C87.9363 75.5108 86.1351 78.1212 87.4077 80.1074C88.027 81.0798 88.9327 81.2103 89.6615 81.3153C90.327 81.38 90.9724 81.5791 91.559 81.9006C92.616 82.4858 95.8313 84.2673 96.8371 87.73C97.4759 89.9309 96.9795 91.9121 96.6148 93.368L96.6043 93.4102C96.4601 93.9952 96.2202 94.5523 95.8942 95.0588C95.4331 95.7838 95.1169 96.5915 94.9629 97.4372C94.7926 98.3304 94.7339 99.2413 94.7883 100.149L94.7883 100.15C94.8139 100.882 94.8324 101.411 94.5554 102.14C94.1398 103.037 93.5345 103.833 92.7813 104.472C91.5753 105.526 89.2377 106.016 85.4241 106.016C82.8855 106.016 79.9854 105.803 76.9054 105.576L76.8235 105.57L76.7328 105.564C74.3978 105.393 71.9842 105.217 69.5524 105.118C67.9995 105.055 66.4628 105.025 64.8494 105.025C63.6979 105.025 62.6572 105.04 61.736 105.054L61.6667 105.055C60.8983 105.067 60.1743 105.076 59.52 105.076C56.3629 105.076 54.6959 104.843 52.5539 103.344C48.554 100.557 47.178 96.2037 46.9428 95.3596C46.696 94.4711 45.5645 89.8146 47.5785 85.4355C47.8879 84.78 48.2459 84.1487 48.6494 83.5468C49.2944 82.5395 49.902 81.5881 50.2326 79.795C50.3689 79.0406 50.4181 78.2731 50.3793 77.5075C50.3522 76.3623 50.3864 75.2166 50.4818 74.0751C50.5516 73.182 50.6122 72.7157 50.6913 72.1258C50.7635 71.5871 50.8426 70.9739 50.9474 69.9036C50.9733 69.6388 50.9956 69.5169 51.0151 69.4643C51.1714 70.6134 51.8844 66.9837 51.8927 66.6414C51.9055 65.7778 51.7005 64.2428 51.533 62.9884C51.3966 61.9668 51.285 61.1312 51.3362 60.9962C51.3362 60.9962 51.5691 60.6837 53.1243 60.6837C54.4681 60.6837 56.2425 60.9084 58.2934 61.1681L58.4094 61.1827L58.4551 61.1885C61.1773 61.5346 64.2612 61.9266 67.3289 61.9266C71.7875 61.9266 75.1984 61.0755 77.7502 59.3266L78.146 59.0492L78.1465 59.0488C79.3665 58.1814 81.4059 56.7314 84.0551 56.7314L84.0341 56.7454ZM84.0551 55.5655C81.0478 55.5655 78.7551 57.1898 77.4905 58.0857C77.3443 58.1893 77.2118 58.2831 77.0936 58.3636C74.4045 60.2081 70.9051 60.7607 67.3289 60.7607C64.3165 60.7607 61.2475 60.3694 58.5536 60.0259C56.4463 59.7573 54.5685 59.5178 53.1267 59.5178C52.4427 59.5178 52.0331 59.3598 51.7626 59.2554C51.4272 59.126 51.3055 59.079 51.1392 59.5178C51.0779 59.6783 51.0362 59.7331 50.9823 59.8039C50.8725 59.9481 50.7121 60.1587 50.2326 61.4645C50.2226 62.0559 50.1703 63.17 50.1193 64.2552C50.0754 65.1894 50.0325 66.1021 50.0185 66.6414C49.9882 67.8073 49.902 68.712 49.7856 69.7893C49.6843 70.842 49.6043 71.4451 49.5341 71.9745C49.4559 72.5637 49.3899 73.0616 49.32 73.9865C49.1815 75.7983 49.1998 76.7907 49.2135 77.5382C49.227 78.2743 49.2362 78.773 49.0872 79.5828C48.7963 81.1499 48.2748 81.9665 47.6711 82.9116C47.3083 83.4797 46.9159 84.0941 46.5261 84.9458C44.277 89.8426 45.6181 94.9212 45.8276 95.672C46.0139 96.3436 47.4364 101.196 51.8927 104.3C54.3071 105.981 56.2768 106.242 59.5247 106.242C60.1877 106.242 60.9042 106.231 61.6884 106.22C62.6363 106.206 63.6831 106.191 64.854 106.191C66.223 106.191 67.7597 106.212 69.5105 106.282C71.9496 106.381 74.3836 106.56 76.7259 106.733C79.8613 106.963 82.8323 107.182 85.4311 107.182C89.0491 107.182 91.9501 106.757 93.5543 105.349C94.4543 104.586 95.1706 103.63 95.6497 102.551C96.0098 101.597 95.9859 100.899 95.9587 100.103C95.9356 99.4279 95.9101 98.6831 96.1154 97.654C96.3124 96.6543 96.6042 96.1629 96.9106 95.647C97.198 95.163 97.4983 94.6573 97.7451 93.69L97.7454 93.6889C98.1365 92.164 98.7112 89.9236 97.978 87.3942C96.8394 83.4652 93.3215 81.5111 92.1457 80.8652C91.2046 80.3445 90.452 80.2355 89.8539 80.1489C89.2121 80.056 88.7483 79.9888 88.4205 79.4662C87.5661 78.1282 89.2025 75.7528 90.8348 73.3835C90.8838 73.3124 90.9327 73.2414 90.9816 73.1704C91.1276 72.9593 91.8565 71.9896 93.2521 70.1328C93.614 69.6512 94.0208 69.11 94.474 68.5068C95.6707 66.9212 96.0432 66.2777 96.3365 65.2424C96.7971 63.6647 96.0663 62.1601 95.6516 61.3062L95.6381 61.2783C94.7757 59.5163 93.4496 58.5957 92.6286 58.0258L92.6114 58.0139C91.3597 57.1529 90.2344 56.8322 88.7244 56.4019L88.6533 56.3816L88.6384 56.3774C87.6338 56.0943 85.7905 55.5748 84.1039 55.5655H84.0551Z" fill="black"/>
<path d="M84.0341 56.7454H84.0667C85.5651 56.7454 87.2687 57.225 88.23 57.4957C88.256 57.503 88.2815 57.5102 88.3064 57.5172L88.3646 57.5358C89.8501 57.9556 90.8302 58.2354 91.9292 58.9885C92.6905 59.5132 93.8407 60.306 94.5764 61.8077C94.9373 62.5398 95.538 63.771 95.2027 64.9346C94.9699 65.7507 94.7068 66.2543 93.5263 67.819C91.1609 70.9575 90.1923 72.2493 89.9967 72.5222L89.857 72.7273L89.8424 72.7485C87.9363 75.5108 86.1351 78.1212 87.4077 80.1074C88.027 81.0798 88.9327 81.2103 89.6615 81.3153C90.327 81.38 90.9724 81.5791 91.559 81.9006C92.616 82.4858 95.8313 84.2673 96.8371 87.73C97.4759 89.9309 96.9795 91.9121 96.6148 93.368L96.6043 93.4102C96.4601 93.9952 96.2202 94.5523 95.8942 95.0588C95.4331 95.7838 95.1169 96.5915 94.9629 97.4372C94.7926 98.3304 94.7339 99.2413 94.7883 100.149L94.7883 100.15C94.8139 100.882 94.8324 101.411 94.5554 102.14C94.1398 103.037 93.5345 103.833 92.7813 104.472C91.5753 105.526 89.2377 106.016 85.4241 106.016C82.8855 106.016 79.9854 105.803 76.9054 105.576L76.8235 105.57L76.7328 105.564C74.3978 105.393 71.9842 105.217 69.5524 105.118C67.9995 105.055 66.4628 105.025 64.8494 105.025C63.6979 105.025 62.6572 105.04 61.736 105.054L61.6667 105.055C60.8983 105.067 60.1743 105.076 59.52 105.076C56.3629 105.076 54.6959 104.843 52.5539 103.344C48.554 100.557 47.178 96.2037 46.9428 95.3596C46.696 94.4711 45.5645 89.8146 47.5785 85.4355C47.8879 84.78 48.2459 84.1487 48.6494 83.5468C49.2944 82.5395 49.902 81.5881 50.2326 79.795C50.3689 79.0406 50.4181 78.2731 50.3793 77.5075C50.3522 76.3623 50.3864 75.2166 50.4818 74.0751C50.5516 73.182 50.6122 72.7157 50.6913 72.1258C50.7635 71.5871 50.8426 70.9739 50.9474 69.9036C50.9733 69.6388 50.9956 69.5169 51.0151 69.4643C51.1714 70.6134 51.8844 66.9837 51.8927 66.6414C51.9055 65.7778 51.7005 64.2428 51.533 62.9884C51.3966 61.9668 51.285 61.1312 51.3362 60.9962C51.3362 60.9962 51.5691 60.6837 53.1243 60.6837C54.4681 60.6837 56.2425 60.9084 58.2934 61.1681L58.4094 61.1827L58.4551 61.1885C61.1773 61.5346 64.2612 61.9266 67.3289 61.9266C71.7875 61.9266 75.1984 61.0755 77.7502 59.3266L78.146 59.0492L78.1465 59.0488C79.3665 58.1814 81.4059 56.7314 84.0551 56.7314L84.0341 56.7454ZM84.0551 55.5655C81.0478 55.5655 78.7551 57.1898 77.4905 58.0857C77.3443 58.1893 77.2118 58.2831 77.0936 58.3636C74.4045 60.2081 70.9051 60.7607 67.3289 60.7607C64.3165 60.7607 61.2475 60.3694 58.5536 60.0259C56.4463 59.7573 54.5685 59.5178 53.1267 59.5178C52.4427 59.5178 52.0331 59.3598 51.7626 59.2554C51.4272 59.126 51.3055 59.079 51.1392 59.5178C51.0779 59.6783 51.0362 59.7331 50.9823 59.8039C50.8725 59.9481 50.7121 60.1587 50.2326 61.4645C50.2226 62.0559 50.1703 63.17 50.1193 64.2552C50.0754 65.1894 50.0325 66.1021 50.0185 66.6414C49.9882 67.8073 49.902 68.712 49.7856 69.7893C49.6843 70.842 49.6043 71.4451 49.5341 71.9745C49.4559 72.5637 49.3899 73.0616 49.32 73.9865C49.1815 75.7983 49.1998 76.7907 49.2135 77.5382C49.227 78.2743 49.2362 78.773 49.0872 79.5828C48.7963 81.1499 48.2748 81.9665 47.6711 82.9116C47.3083 83.4797 46.9159 84.0941 46.5261 84.9458C44.277 89.8426 45.6181 94.9212 45.8276 95.672C46.0139 96.3436 47.4364 101.196 51.8927 104.3C54.3071 105.981 56.2768 106.242 59.5247 106.242C60.1877 106.242 60.9042 106.231 61.6884 106.22C62.6363 106.206 63.6831 106.191 64.854 106.191C66.223 106.191 67.7597 106.212 69.5105 106.282C71.9496 106.381 74.3836 106.56 76.7259 106.733C79.8613 106.963 82.8323 107.182 85.4311 107.182C89.0491 107.182 91.9501 106.757 93.5543 105.349C94.4543 104.586 95.1706 103.63 95.6497 102.551C96.0098 101.597 95.9859 100.899 95.9587 100.103C95.9356 99.4279 95.9101 98.6831 96.1154 97.654C96.3124 96.6543 96.6042 96.1629 96.9106 95.647C97.198 95.163 97.4983 94.6573 97.7451 93.69L97.7454 93.6889C98.1365 92.164 98.7112 89.9236 97.978 87.3942C96.8394 83.4652 93.3215 81.5111 92.1457 80.8652C91.2046 80.3445 90.452 80.2355 89.8539 80.1489C89.2121 80.056 88.7483 79.9888 88.4205 79.4662C87.5661 78.1282 89.2025 75.7528 90.8348 73.3835C90.8838 73.3124 90.9327 73.2414 90.9816 73.1704C91.1276 72.9593 91.8565 71.9896 93.2521 70.1328C93.614 69.6512 94.0208 69.11 94.474 68.5068C95.6707 66.9212 96.0432 66.2777 96.3365 65.2424C96.7971 63.6647 96.0663 62.1601 95.6516 61.3062L95.6381 61.2783C94.7757 59.5163 93.4496 58.5957 92.6286 58.0258L92.6114 58.0139C91.3597 57.1529 90.2344 56.8322 88.7244 56.4019L88.6533 56.3816L88.6384 56.3774C87.6338 56.0943 85.7905 55.5748 84.1039 55.5655H84.0551Z" stroke="black"/>
<path d="M87.6013 70.1903L97.5588 65.0958L88.7591 78.9899L79.0332 83.3898" fill="white"/>
<path d="M87.6013 70.1903L97.5588 65.0958L88.7591 78.9899L79.0332 83.3898" stroke="black" stroke-miterlimit="10"/>
<path d="M74.6341 69.4957L87.602 70.1904L79.034 83.3899H64.9082L74.6341 69.4957Z" stroke="black" stroke-miterlimit="10"/>
<path d="M81.4688 34.4131C81.797 34.1418 82.2018 33.9799 82.6266 33.95C83.0735 33.9222 83.7242 34.0357 84.016 34.4131C84.4792 35.0036 84.1457 36.3583 82.8582 37.4235" fill="white"/>
<path d="M81.4688 34.4131C81.797 34.1418 82.2018 33.9799 82.6266 33.95C83.0735 33.9222 83.7242 34.0357 84.016 34.4131C84.4792 35.0036 84.1457 36.3583 82.8582 37.4235" stroke="black" stroke-miterlimit="10"/>
<path d="M71.9769 29.5502C72.5991 29.5838 73.2181 29.6612 73.8294 29.7818C75.4005 30.1139 76.8938 30.7427 78.2293 31.6343C80.6492 33.2553 82.0432 35.446 82.8607 36.7289C83.4072 37.588 83.5878 38.0257 84.2501 38.813C85.4635 40.2603 86.0795 40.2557 86.5658 41.3603C86.9409 42.2373 87.0221 43.2121 86.7973 44.1391C86.626 44.7551 86.4454 44.762 86.3342 45.2969C86.1698 46.082 86.4245 46.7165 87.0289 48.0758C88.1567 50.623 88.2678 50.6578 88.4183 51.3178C88.6128 52.1815 88.8305 53.1402 88.4183 54.0966C87.6866 55.794 85.2551 56.8268 83.7869 56.1807C82.5619 55.6458 82.7518 54.2726 81.2397 53.6335C80.6607 53.4019 80.4315 53.5038 78.924 53.4019C77.3655 53.2977 76.4277 53.2352 75.4504 52.9387C74.8206 52.7489 72.5141 52.0541 71.0506 50.1599C70.6986 49.7083 70.2725 49.0252 69.4296 48.7705C68.9768 48.6323 68.493 48.6323 68.0402 48.7705C66.1321 49.4884 65.6458 55.9492 68.0402 61.2753C68.6051 62.5062 69.304 63.6711 70.1243 64.7488C71.2335 66.2656 73.1834 68.917 76.3767 70.538C79.8271 72.2818 81.5778 71.2073 85.1764 73.5484C86.3064 74.2848 87.2257 75.1023 87.492 76.3273C87.5997 76.8495 87.5933 77.3888 87.4734 77.9083C87.3535 78.4279 87.1229 78.9154 86.7973 79.3377C86.2694 80 85.4427 80.3195 83.7869 80.9587C83.105 81.2268 82.4093 81.4587 81.7028 81.6534C80.8877 81.8641 77.6318 82.5009 68.9665 79.3377C67.1903 78.6893 68.6979 79.164 61.5563 76.0957C57.1912 74.2223 56.3297 73.5693 55.767 72.3906C55.0214 70.8344 55.4752 69.452 54.146 67.9908C53.273 67.0367 52.8469 67.3725 52.0619 66.6014C49.7717 64.3551 51.0731 59.212 52.0619 55.2544C52.525 53.3787 52.5389 53.5593 55.5354 45.5285C57.9808 38.9751 58.613 36.9604 60.8615 34.6447C62.0277 33.4634 63.3527 32.4503 64.7982 31.6343C66.2363 30.8169 68.765 29.409 71.9769 29.5502Z" fill="white" stroke="black" stroke-miterlimit="10"/>
<path d="M76.1439 37.8862C76.3787 37.0372 76.2964 36.1317 75.9124 35.3389C75.0741 33.7388 72.8857 32.9862 71.281 33.718C69.9518 34.3247 69.5257 35.7164 69.4284 36.0336C68.7013 38.398 70.4867 40.5238 70.8178 40.8966C71.2192 41.3512 71.6877 41.7417 72.2072 42.0545" fill="white"/>
<path d="M76.1439 37.8862C76.3787 37.0372 76.2964 36.1317 75.9124 35.3389C75.0741 33.7388 72.8857 32.9862 71.281 33.718C69.9518 34.3247 69.5257 35.7164 69.4284 36.0336C68.7013 38.398 70.4867 40.5238 70.8178 40.8966C71.2192 41.3512 71.6877 41.7417 72.2072 42.0545" stroke="black" stroke-miterlimit="10"/>
<path d="M73.3889 41.1285C73.0902 41.0497 73.5672 39.9058 72.854 38.7178C72.3167 37.8263 71.6544 37.817 71.5132 37.1107C71.3604 36.3442 71.9346 35.3462 72.5854 35.235C73.4653 35.0845 74.5491 36.548 74.7274 37.9143C74.952 39.6279 73.7548 41.2257 73.3889 41.1285Z" fill="black"/>
<path d="M78.459 44.139C78.7768 44.7471 79.3016 45.2215 79.9387 45.4763C80.5758 45.7311 81.283 45.7496 81.9325 45.5284" fill="white"/>
<path d="M78.459 44.139C78.7768 44.7471 79.3016 45.2215 79.9387 45.4763C80.5758 45.7311 81.283 45.7496 81.9325 45.5284" stroke="black" stroke-miterlimit="10"/>
<path d="M87.632 53.0777C89.2391 53.1263 89.3618 53.2305 89.422 53.3324C89.7902 53.9507 88.5745 55.7871 87.3611 55.7523C86.9508 55.7171 86.5615 55.5553 86.2472 55.2892C85.5988 54.8261 84.7629 53.8998 85.006 53.4042C85.1727 53.0569 85.622 53.0175 87.632 53.0777Z" fill="black"/>
<path d="M54.4133 60.2587C55.0026 61.5542 55.9581 62.649 57.162 63.408C57.5395 63.6396 57.8869 63.0468 57.5117 62.8082C56.4132 62.107 55.5445 61.099 55.0131 59.909C54.8278 59.5014 54.2304 59.8557 54.4133 60.2587Z" fill="white"/>
<path d="M59.1259 58.8455C59.0309 60.6035 59.4184 62.3541 60.2467 63.9076C61.004 65.3688 63.0858 64.3129 62.794 62.8355C62.4895 61.3432 61.9074 59.9214 61.0781 58.644C60.9191 58.3892 60.6825 58.1922 60.4031 58.0821C60.1237 57.9719 59.8163 57.9545 59.5262 58.0323C59.2362 58.1102 58.9788 58.2792 58.7921 58.5144C58.6053 58.7496 58.4991 59.0386 58.4891 59.3387L58.3849 61.3511L60.7469 60.3762L60.5987 60.0335L57.9195 60.7722L59.1931 63.9725C59.7581 65.3897 61.8399 65.2484 61.921 63.6019C61.97 62.6365 61.9576 61.6689 61.8839 60.705L59.5127 61.6869C60.3319 62.4947 61.0335 63.4138 61.5968 64.4171C62.2707 65.612 64.2066 65.0909 64.1857 63.7224L64.1417 60.0497L61.5528 60.7444L63.2664 64.0211C63.9009 65.2322 65.9156 64.6834 65.8553 63.3264L65.7488 60.8416L63.1599 61.5364L64.9939 64.5468C65.6747 65.6652 67.6732 65.2739 67.5829 63.852L67.4277 61.3974L64.6975 61.7656C65.2371 63.0508 65.0055 64.3499 66.5292 64.9219C67.7056 65.3619 68.6666 63.8636 68.0993 62.8795L67.21 61.3441L65.0263 63.0277C65.2657 63.2705 65.427 63.5793 65.4895 63.9146C65.9248 65.649 68.6041 64.9126 68.171 63.1759C67.9777 62.3816 67.5784 61.6523 67.0132 61.0616C65.9294 59.8922 64.0468 61.3928 64.8318 62.7451L65.721 64.2828L67.2888 62.2426L67.0711 62.1593L67.9001 62.7984C67.5991 62.37 67.613 61.5363 67.3999 61.0269C66.8511 59.7208 64.5609 59.6792 64.6697 61.3974L64.8249 63.852L67.4138 63.1573L65.5798 60.1469C64.8851 59.0122 62.9283 59.4291 62.9908 60.8416L63.0974 63.3264L65.6863 62.6317L63.9518 59.355C63.3058 58.1207 61.3421 58.7089 61.3629 60.0497L61.4185 63.7154L64.0074 63.0207C63.3239 61.8126 62.476 60.7051 61.4879 59.7301C60.6821 58.9335 59.0217 59.4707 59.1144 60.712C59.1881 61.6758 59.2004 62.6434 59.1514 63.6089L61.8816 63.2407L60.608 60.0404C59.9642 58.4194 57.3915 59.0284 57.9287 60.7791C58.1062 61.3554 58.4002 61.889 58.7925 62.3468C59.603 63.3588 61.1082 62.451 61.1637 61.365L61.268 59.3526L58.679 60.0474C59.3792 61.1201 59.8666 62.3174 60.1147 63.5742L62.662 62.5043C62.0817 61.3766 61.8252 60.1101 61.921 58.8455C62.0229 57.0578 59.244 57.0647 59.1421 58.8455H59.1259Z" fill="white"/>
<path d="M72.5184 72.9504C72.3105 73.4711 72.231 74.0343 72.2869 74.5922C72.3239 75.0345 73.021 75.0368 72.9816 74.5922C72.9337 74.0962 73.0084 73.596 73.1993 73.1357C73.3683 72.7212 72.6968 72.5405 72.53 72.9504H72.5184Z" fill="white"/>
<path d="M71.8576 72.9698C71.8437 73.6645 71.8576 74.3777 71.9178 75.0817C71.9526 75.5216 72.6125 75.5332 72.6125 75.0817C72.6107 74.0743 72.3944 73.0789 71.978 72.1616C71.9474 72.1092 71.9036 72.0658 71.851 72.0356C71.7984 72.0054 71.7388 71.9895 71.6782 71.9895C71.6175 71.9895 71.5579 72.0054 71.5053 72.0356C71.4527 72.0658 71.4089 72.1092 71.3783 72.1616C70.8818 73.2501 70.5478 74.4056 70.3872 75.5911C70.3293 76.0195 70.9568 76.2233 71.0564 75.7764C71.261 74.9073 71.2013 73.9969 70.885 73.162C70.8584 73.0756 70.7991 73.0031 70.7199 72.9598C70.6406 72.9164 70.5476 72.9056 70.4605 72.9297C70.3734 72.9538 70.2992 73.0109 70.2535 73.0888C70.2078 73.1668 70.1943 73.2595 70.2158 73.3472C70.3744 74.3 70.6872 75.2206 71.1421 76.0728C71.1905 76.1507 71.2672 76.2069 71.356 76.2297C71.4448 76.2526 71.5391 76.2403 71.6191 76.1955C72.7584 75.5703 72.2235 73.4746 71.9132 72.5136C71.9009 72.4214 71.8525 72.338 71.7787 72.2815C71.7049 72.2251 71.6117 72.2002 71.5195 72.2125C71.4274 72.2248 71.3439 72.2732 71.2875 72.347C71.231 72.4208 71.2062 72.5141 71.2185 72.6062C71.1865 73.5748 71.0906 74.5402 70.9313 75.4962L71.6122 75.5888L71.6261 74.1994C71.6261 74.1073 71.5895 74.0189 71.5243 73.9538C71.4592 73.8886 71.3708 73.852 71.2787 73.852C71.1866 73.852 71.0982 73.8886 71.0331 73.9538C70.9679 74.0189 70.9313 74.1073 70.9313 74.1994L70.9175 75.5888C70.9175 75.9663 71.5334 76.0751 71.6006 75.6791C71.773 74.6629 71.8774 73.6363 71.9132 72.6062L71.2324 72.6988C71.4153 73.2662 71.9804 75.1974 71.2555 75.5957L71.7303 75.7208C71.3052 74.9205 71.0134 74.0562 70.8665 73.162L70.1973 73.3472C70.4778 74.0611 70.5375 74.8429 70.3686 75.5911L71.0379 75.7764C71.1865 74.6488 71.4985 73.5489 71.9641 72.5112H71.3945C71.7543 73.3202 71.9382 74.1963 71.934 75.0817H72.6287C72.5732 74.387 72.5546 73.676 72.5685 72.9698C72.5685 72.5228 71.8738 72.5228 71.8738 72.9698H71.8576Z" fill="white"/>
<path d="M70.085 73.9444C70.8046 74.3293 71.504 74.7505 72.1807 75.2065C72.5128 75.3984 72.8987 75.4759 73.279 75.4269C73.6594 75.378 74.0131 75.2053 74.2857 74.9355C74.5444 74.6565 74.7096 74.3038 74.7581 73.9264C74.8067 73.5491 74.7363 73.166 74.5567 72.8306C74.2131 72.1294 73.7803 71.4756 73.2691 70.8854L72.0418 73.8518C72.2502 73.8518 72.2016 73.817 71.8913 73.7684C71.4953 73.7267 71.2359 73.4766 71.1132 73.0251L74.288 71.6866C74.0261 71.333 73.7981 70.9554 73.6072 70.5589L70.8793 72.6638L71.6157 73.3215C72.2919 73.9282 73.4127 74.0393 74.0727 73.3215C74.3886 72.991 74.5649 72.5514 74.5649 72.0942C74.5649 71.637 74.3886 71.1973 74.0727 70.8668C74.1769 71.0243 74.1722 71.0197 74.0727 70.853C74.0196 70.7651 73.9725 70.6738 73.9314 70.5797L71.97 73.127C72.2803 73.1779 71.8264 72.995 71.9909 73.0969C72.1553 73.1988 71.8149 72.9324 71.7871 72.8884C72.2826 73.648 73.3479 74.0463 74.163 73.5114C74.9225 73.0228 75.3208 71.9506 74.7859 71.1355C74.5813 70.7909 74.3076 70.4924 73.982 70.2589C73.6564 70.0253 73.2859 69.8618 72.894 69.7785C72.1854 69.6581 71.53 69.8039 71.0692 70.3991C70.8628 70.6732 70.74 71.0011 70.7158 71.3434C70.6916 71.6856 70.7668 72.0276 70.9326 72.328C71.1153 72.6894 71.3492 73.0225 71.6273 73.3169L74.0842 70.8622L73.3479 70.2022C73.0466 69.9109 72.651 69.737 72.2327 69.7119C71.8143 69.6869 71.4008 69.8123 71.0669 70.0656C70.3513 70.6191 70.2379 71.5152 70.62 72.3072C70.8109 72.7032 71.0381 73.0807 71.2985 73.435C71.8195 74.1297 72.6138 74.5048 73.4683 74.1459C74.1861 73.8425 74.8021 72.8977 74.4733 72.0965C74.068 71.1054 73.2182 70.2578 72.0534 70.3736C71.3448 70.4431 70.7566 70.7534 70.4671 71.4411C70.1777 72.1289 70.3652 72.7866 70.8261 73.3377C71.1503 73.7267 70.657 73.0668 70.9418 73.4836C71.0159 73.5947 71.0901 73.7013 71.1595 73.8147C71.3107 74.0614 71.4475 74.3165 71.5694 74.5789L73.9453 72.2146C73.2689 71.7581 72.5694 71.3369 71.8496 70.9525C71.0507 70.5218 69.9229 70.721 69.4737 71.5754C69.0476 72.3813 69.2421 73.4928 70.0966 73.9514L70.085 73.9444Z" fill="white"/>
<path d="M54.2429 69.1222C54.3893 63.7092 54.3893 63.7092 54.2651 61.8223C54.4831 60.2474 54.0815 60.1489 53.2944 60.0848C52.3708 60.0096 51.6986 61.3249 51.4801 62.9047C51.1124 65.6279 50.9916 68.3976 51.1224 71.0959C51.289 74.824 54.7002 77.2776 54.5341 73.5446L54.2429 69.1222Z" fill="white"/>
<path d="M56.8418 59.7702L56.8904 61.2314C56.8915 61.3146 56.9224 61.3947 56.9776 61.457C57.0328 61.5194 57.1085 61.5598 57.1909 61.571C57.2734 61.5823 57.3572 61.5635 57.427 61.5182C57.4968 61.4728 57.548 61.4039 57.5712 61.324C57.6736 60.9511 57.7096 60.5631 57.6778 60.1777L57.0294 60.3537C57.2494 60.7476 57.3954 61.1785 57.4601 61.625L58.1316 61.4398L57.8051 60.1036L57.1706 60.3699L57.8399 61.7385C58.0344 62.1415 58.6341 61.7895 58.4396 61.3889L57.7704 60.0203C57.5921 59.6567 57.0456 59.9161 57.1359 60.2866L57.4601 61.625C57.5689 62.0673 58.1965 61.8705 58.1316 61.4398C58.0523 60.9348 57.882 60.4483 57.6291 60.0041C57.4694 59.7169 56.953 59.8281 56.9831 60.1777C57.0141 60.5003 56.9867 60.8259 56.902 61.1388L57.5967 61.2314L57.5481 59.7702C57.5319 59.3256 56.8372 59.3233 56.8534 59.7702H56.8418Z" fill="white"/>
<path d="M57.6871 59.2856C57.49 59.9968 57.5045 60.75 57.7288 61.4531L58.3981 61.2678L57.6177 58.746C57.5042 58.3825 56.923 58.4334 56.9345 58.8387C56.9779 60.0757 56.9276 61.3143 56.784 62.5438L57.4787 62.4511C57.2037 61.7883 57.0432 61.0836 57.004 60.367L56.3232 60.4596L56.652 61.9417L57.3236 61.7564L56.8118 59.6468C56.7285 59.2902 56.2491 59.3458 56.1426 59.6468C55.9664 60.1083 55.9437 60.6141 56.0777 61.0895L56.7122 60.8209L55.9017 59.105C55.7582 58.8016 55.207 58.9405 55.2534 59.2786C55.3417 60.0805 55.3711 60.8877 55.3413 61.6939L55.8624 61.3952C55.4577 61.121 55.1657 60.7098 55.0403 60.2373C54.9292 59.883 54.3109 59.9247 54.3456 60.33C54.4776 61.511 54.649 62.6827 54.8597 63.8521L55.5289 63.6669C55.2411 62.7238 54.8946 61.7995 54.4915 60.8996C54.3248 60.5291 53.769 60.8 53.857 61.1682C54.0332 61.889 54.0236 62.6428 53.8292 63.3589H54.5008C54.2086 62.5475 54.0105 61.7052 53.9102 60.8487H53.2155L53.3753 62.2381C53.424 62.6711 54.07 62.7012 54.07 62.2381C54.0471 61.3188 54.1786 60.4022 54.4591 59.5264C54.5957 59.0957 53.9357 58.922 53.7898 59.3412L53.0303 61.5249H53.6995C53.4305 60.694 53.3436 59.8149 53.4448 58.9475H52.7501V60.4481C52.7501 60.5402 52.7867 60.6285 52.8518 60.6937C52.917 60.7588 53.0053 60.7954 53.0974 60.7954C53.1896 60.7954 53.2779 60.7588 53.3431 60.6937C53.4082 60.6285 53.4448 60.5402 53.4448 60.4481V58.9475C53.4448 58.4844 52.7964 58.5121 52.7501 58.9475C52.6455 59.8778 52.741 60.8197 53.0303 61.7101C53.0521 61.7819 53.0963 61.8448 53.1566 61.8895C53.2169 61.9342 53.2899 61.9583 53.3649 61.9583C53.4399 61.9583 53.513 61.9342 53.5732 61.8895C53.6335 61.8448 53.6777 61.7819 53.6995 61.7101L54.4591 59.5264L53.8014 59.3551C53.5025 60.2908 53.3624 61.27 53.3869 62.252H54.0816L53.9218 60.8626C53.8709 60.4226 53.1762 60.418 53.2271 60.8626C53.3269 61.7817 53.5328 62.6863 53.8408 63.558C53.8632 63.6295 53.9079 63.6919 53.9683 63.7362C54.0287 63.7805 54.1017 63.8044 54.1766 63.8044C54.2515 63.8044 54.3244 63.7805 54.3848 63.7362C54.4452 63.6919 54.4899 63.6295 54.5123 63.558C54.7337 62.7197 54.7424 61.8394 54.5378 60.9969L53.9033 61.2632C54.2789 62.1102 54.6021 62.9794 54.8713 63.866C54.8979 63.9523 54.9572 64.0249 55.0364 64.0682C55.1157 64.1116 55.2087 64.1224 55.2958 64.0982C55.3829 64.0741 55.4571 64.0171 55.5028 63.9391C55.5485 63.8612 55.562 63.7685 55.5405 63.6808C55.3413 62.5739 55.1785 61.4616 55.0519 60.3439L54.3688 60.4365C54.5541 61.0772 54.9591 61.6322 55.5127 62.0042C55.5658 62.0338 55.6257 62.0492 55.6865 62.0488C55.7473 62.0484 55.8069 62.0322 55.8596 62.0019C55.9123 61.9716 55.9563 61.9281 55.9872 61.8758C56.0181 61.8234 56.035 61.764 56.0361 61.7032C56.0658 60.897 56.0364 60.0898 55.9481 59.2879L55.302 59.4639L56.1125 61.1821C56.2838 61.548 56.8373 61.284 56.747 60.9135C56.6861 60.7394 56.6605 60.555 56.6716 60.3709C56.6827 60.1868 56.7304 60.0068 56.8118 59.8413H56.1426L56.6358 61.9602C56.7377 62.3956 57.4023 62.2103 57.3074 61.775L56.9762 60.2929C56.9515 60.2141 56.8998 60.1466 56.8301 60.1024C56.7605 60.0581 56.6774 60.0399 56.5956 60.051C56.5138 60.0621 56.4386 60.1018 56.3832 60.163C56.3278 60.2242 56.2959 60.303 56.2931 60.3855C56.3319 61.1629 56.5002 61.9283 56.791 62.6503C56.8157 62.7291 56.8674 62.7965 56.9371 62.8408C57.0067 62.8851 57.0898 62.9033 57.1716 62.8922C57.2534 62.8811 57.3286 62.8414 57.384 62.7802C57.4394 62.719 57.4713 62.6402 57.4741 62.5577C57.6177 61.3282 57.668 60.0896 57.6246 58.8525L56.9438 58.9452L57.7381 61.4531C57.8678 61.8792 58.537 61.6985 58.4073 61.2678C58.2184 60.6856 58.2048 60.0608 58.368 59.4708C58.3837 59.3848 58.3667 59.2961 58.3202 59.222C58.2738 59.148 58.2013 59.094 58.117 59.0707C58.0327 59.0475 57.9428 59.0567 57.865 59.0964C57.7871 59.1362 57.727 59.2037 57.6964 59.2856H57.6871Z" fill="white"/>
<path d="M87.6094 70.1911C87.431 70.0359 87.6348 69.538 87.8409 69.0332C88.1457 68.3114 88.6228 67.6754 89.2303 67.1807C90.1427 66.3544 91.2639 65.7938 92.4723 65.5597C93.9891 65.2911 94.8366 65.7403 95.9459 65.0965C96.2803 64.9014 96.5911 64.6683 96.8721 64.4018C97.502 63.7789 97.678 63.2046 97.7984 63.244C97.9188 63.2833 98.03 64.1911 97.5669 64.865C97.0111 65.6569 96.152 65.4601 94.788 66.486C94.6256 66.6143 94.4554 66.7326 94.2786 66.8403C93.7938 67.1272 93.2598 67.3211 92.7039 67.4122C90.8907 67.7503 88.1026 70.6311 87.6094 70.1911Z" fill="black"/>
<path d="M60.1227 63.8225C60.2149 63.8225 60.3032 63.7859 60.3684 63.7208C60.4335 63.6556 60.4701 63.5673 60.4701 63.4752C60.4701 63.383 60.4335 63.2947 60.3684 63.2295C60.3032 63.1644 60.2149 63.1278 60.1227 63.1278C60.0306 63.1278 59.9423 63.1644 59.8771 63.2295C59.812 63.2947 59.7754 63.383 59.7754 63.4752C59.7754 63.5673 59.812 63.6556 59.8771 63.7208C59.9423 63.7859 60.0306 63.8225 60.1227 63.8225Z" fill="white"/>
<path d="M59.5214 59.5384C59.5951 61.3804 59.9112 63.2047 60.4616 64.9641C60.5959 65.3902 61.2652 65.1956 61.1332 64.7788C60.5952 63.0804 60.2838 61.3183 60.2069 59.5384C60.186 59.0915 59.4913 59.0892 59.5122 59.5384H59.5214Z" fill="white"/>
<path d="M87.2568 69.8432C87.3147 69.5074 86.0434 68.9447 85.0291 68.6854C83.8944 68.3959 82.9936 68.4885 81.2429 68.6854C76.9844 69.1647 76.2086 69.2736 75.4537 68.6854C74.5274 67.9652 74.3514 66.7541 74.1175 66.8328C73.8837 66.9116 73.8072 68.118 74.3491 68.9169C75.0971 70.0377 76.725 69.8432 79.9184 69.8432C84.9041 69.834 87.1804 70.2855 87.2568 69.8432Z" fill="black"/>
<path d="M85.0059 66.6266C86.5757 67.8986 88.5228 68.6144 90.5427 68.6621L85.0059 66.6266Z" fill="white"/>
<path d="M85.0059 66.6266C86.5757 67.8986 88.5228 68.6144 90.5427 68.6621" stroke="black" stroke-miterlimit="10"/>
<path d="M81.9883 88.147C83.0543 88.7003 86.2335 90.5819 87.7679 95.2802C88.1385 96.4122 89.9102 101.83 87.8084 104.878C86.1503 107.285 83.2464 106.518 82.8975 106.422" stroke="black" stroke-miterlimit="10"/>
<path d="M64.7397 96.8376C66.1233 98.8237 67.8576 100.541 69.8574 101.904C71.0153 102.703 72.3862 101.615 72.4695 100.404C72.5389 99.309 72.2766 98.2188 71.7169 97.2753C70.6077 95.3347 67.6043 97.0831 68.7181 99.0283C68.9607 99.4433 69.0585 99.9272 68.996 100.404L71.6104 98.9055C70.1013 97.8742 68.7899 96.5799 67.7386 95.0846C67.2013 94.3182 66.2195 93.9615 65.3627 94.4617C64.6031 94.9063 64.2048 96.0665 64.7397 96.8376Z" fill="white"/>
<path d="M65.6091 86.8454C63.8121 85.7153 62.8812 83.8651 62.8164 81.7717C62.7469 79.5417 59.2734 79.5324 59.3428 81.7717C59.447 85.1132 61.0009 88.0495 63.8561 89.8442C65.755 91.0368 67.4987 88.0333 65.6091 86.8338V86.8454Z" fill="white"/>
<path d="M60.9751 82.5983C60.8178 82.5456 60.6744 82.4577 60.5561 82.3414C60.4377 82.225 60.3474 82.0832 60.292 81.9268L60.2735 81.7624C60.3684 81.7323 60.1531 82.376 60.2735 81.9268C60.15 82.3382 60.0633 82.7598 60.0141 83.1865C59.9536 83.6894 60.035 84.1993 60.249 84.6584C60.463 85.1175 60.8012 85.5077 61.2252 85.7847C61.8389 86.2293 62.8231 86.0163 63.3279 85.5138C63.5907 85.2372 63.7588 84.8843 63.808 84.5059C63.8571 84.1275 63.7847 83.7433 63.6011 83.4088C63.7169 83.6404 63.6011 83.4412 63.622 83.4088C63.5178 83.6751 63.7818 83.2629 63.6428 83.4088L60.7436 81.723L60.4263 82.5636C60.0929 83.4389 60.7945 84.4671 61.6374 84.6987C62.6146 84.9673 63.4413 84.3652 63.7748 83.4852L64.0921 82.647C64.7196 80.9912 62.3298 79.757 61.1905 80.9565C60.6601 81.5051 60.3176 82.2079 60.2124 82.9637C60.1071 83.7194 60.2444 84.4891 60.6046 85.1618L62.9805 82.7859C63.1154 82.8584 63.2302 82.9631 63.3146 83.0908C63.3991 83.2185 63.4506 83.3652 63.4645 83.5177C63.4645 83.3347 63.4645 83.3 63.4645 83.4181C63.395 83.557 63.5432 83.1425 63.5618 83.073C63.6849 82.6471 63.7465 82.2057 63.7447 81.7624C63.6961 80.6045 63.0685 79.5648 61.8921 79.2475C59.7316 78.6663 58.81 82.0264 60.9659 82.5983H60.9751Z" fill="white"/>
<path d="M65.9532 48.0761C65.0964 48.7847 64.6981 50.0746 65.027 53.6338C65.5202 59.0039 65.7657 61.6901 67.5742 62.8966C69.2091 63.9919 70.4966 62.9939 76.3739 61.9703C78.2125 61.6508 85.3588 61.2756 88.4155 59.6546C88.6957 59.5064 89.263 59.1915 89.226 58.8441C89.1959 58.5709 88.7767 58.381 86.2156 57.6863C85.3464 57.4359 84.4953 57.1264 83.6683 56.76C83.1968 56.5768 82.7927 56.2535 82.5105 55.8337C82.4016 55.66 82.4294 55.6392 82.2789 55.3706C82.0845 55.0356 81.8513 54.7247 81.5842 54.4443C81.1697 54.0367 80.5722 54.0391 79.2685 53.9812C77.6683 53.9117 76.8555 53.8746 76.2581 53.7496C75.54 53.595 74.8411 53.3621 74.174 53.0549C73.4258 52.7741 72.7235 52.3839 72.0898 51.897C71.4795 51.4315 70.9343 50.8864 70.4688 50.2761C70.2861 50.0004 70.0498 49.7641 69.7741 49.5813C69.6275 49.4895 69.4724 49.412 69.311 49.3498C68.7529 49.1367 68.5376 49.271 68.3847 49.1182C68.0651 48.8033 68.7552 47.9835 68.5005 47.613C68.218 47.2078 66.8077 47.3699 65.9532 48.0761Z" fill="white"/>
<path d="M142.213 72.629L143.968 70.8783C144.041 70.805 144.099 70.718 144.139 70.6223C144.178 70.5266 144.198 70.4241 144.198 70.3206C144.198 70.217 144.178 70.1145 144.138 70.0189C144.098 69.9233 144.04 69.8364 143.967 69.7633C143.893 69.6902 143.807 69.6322 143.711 69.5927C143.615 69.5531 143.513 69.5328 143.409 69.533C143.305 69.5331 143.203 69.5536 143.107 69.5933C143.012 69.633 142.925 69.6912 142.852 69.7645L140.768 71.8486H139.561C139.517 71.7048 139.459 71.5653 139.39 71.4318L140.471 70.3503C140.619 70.2026 140.703 70.0022 140.703 69.7931C140.703 69.584 140.62 69.3833 140.472 69.2353C140.325 69.0873 140.124 69.004 139.915 69.0038C139.706 69.0036 139.505 69.0865 139.357 69.2342L138.274 70.3179C138.14 70.2482 138 70.1901 137.857 70.1442V68.9401L139.941 66.8559C140.089 66.7082 140.172 66.5079 140.172 66.299C140.172 66.0901 140.089 65.8898 139.941 65.7421C139.793 65.5944 139.593 65.5114 139.384 65.5114C139.175 65.5114 138.975 65.5944 138.827 65.7421L137.072 67.4974L135.316 65.7421C135.169 65.5944 134.968 65.5114 134.76 65.5114C134.551 65.5114 134.35 65.5944 134.203 65.7421C134.055 65.8898 133.972 66.0901 133.972 66.299C133.972 66.5079 134.055 66.7082 134.203 66.8559L136.287 68.9401V70.1442C136.143 70.1905 136.002 70.2486 135.868 70.3179L134.786 69.2342C134.713 69.161 134.626 69.103 134.53 69.0635C134.435 69.024 134.332 69.0037 134.228 69.0038C134.125 69.0039 134.022 69.0244 133.927 69.0641C133.831 69.1039 133.744 69.162 133.671 69.2353C133.598 69.3086 133.54 69.3956 133.501 69.4913C133.461 69.587 133.441 69.6895 133.441 69.7931C133.441 69.8966 133.461 69.9991 133.501 70.0947C133.541 70.1903 133.599 70.2772 133.672 70.3503L134.754 71.4318C134.686 71.5661 134.629 71.7054 134.582 71.8486H133.376L131.292 69.7645C131.144 69.6168 130.944 69.5338 130.735 69.5338C130.526 69.5338 130.326 69.6168 130.178 69.7645C130.03 69.9122 129.947 70.1125 129.947 70.3214C129.947 70.5303 130.03 70.7306 130.178 70.8783L131.933 72.6336L130.178 74.3866C130.068 74.4971 129.994 74.6376 129.964 74.7903C129.934 74.943 129.95 75.1012 130.01 75.2449C130.069 75.3887 130.17 75.5116 130.299 75.5982C130.428 75.6849 130.58 75.7314 130.736 75.732C130.839 75.7324 130.942 75.7121 131.037 75.6723C131.133 75.6326 131.219 75.5741 131.292 75.5004L133.376 73.4163H134.582C134.628 73.5602 134.686 73.6997 134.756 73.8331L133.672 74.9169C133.563 75.0273 133.489 75.1675 133.459 75.32C133.428 75.4725 133.444 75.6305 133.503 75.7741C133.563 75.9178 133.663 76.0408 133.792 76.1276C133.921 76.2144 134.073 76.2613 134.228 76.2623C134.437 76.2616 134.638 76.1784 134.786 76.0307L135.868 74.947C136.002 75.0167 136.142 75.0748 136.287 75.1207V76.3248L134.203 78.409C134.055 78.5567 133.972 78.757 133.972 78.9659C133.972 79.1748 134.055 79.3751 134.203 79.5228C134.35 79.6705 134.551 79.7535 134.76 79.7535C134.968 79.7535 135.169 79.6705 135.316 79.5228L137.072 77.7675L138.827 79.5228C138.9 79.5965 138.986 79.6549 139.082 79.6947C139.177 79.7345 139.279 79.7548 139.383 79.7544C139.538 79.7538 139.69 79.7073 139.82 79.6206C139.949 79.5339 140.05 79.411 140.109 79.2673C140.169 79.1235 140.185 78.9654 140.155 78.8127C140.125 78.66 140.05 78.5195 139.941 78.409L137.857 76.3248V75.1207C138 75.0744 138.14 75.0163 138.274 74.947L139.357 76.0307C139.506 76.1784 139.706 76.2616 139.915 76.2623C140.071 76.2613 140.223 76.2144 140.351 76.1276C140.48 76.0408 140.581 75.9178 140.64 75.7741C140.699 75.6305 140.715 75.4725 140.685 75.32C140.655 75.1675 140.581 75.0273 140.471 74.9169L139.387 73.8331C139.459 73.7001 139.517 73.5605 139.561 73.4163H140.768L142.852 75.5004C143.001 75.6407 143.2 75.7173 143.405 75.714C143.61 75.7108 143.805 75.6279 143.95 75.4829C144.095 75.3379 144.178 75.1422 144.182 74.9371C144.185 74.7321 144.108 74.5338 143.968 74.3843L142.213 72.629ZM137.813 73.3607C137.618 73.5535 137.356 73.6616 137.082 73.6616C136.809 73.6616 136.546 73.5535 136.352 73.3607C136.162 73.1651 136.057 72.9027 136.059 72.6301C136.061 72.3576 136.171 72.0969 136.363 71.9044C136.556 71.7118 136.817 71.6029 137.09 71.6011C137.362 71.5994 137.624 71.7049 137.82 71.8949C138.012 72.0892 138.121 72.3518 138.121 72.6255C138.121 72.8992 138.012 73.1618 137.82 73.3561L137.813 73.3607Z" fill="#256095"/>
<path d="M14.8357 72.4826L16.591 70.7319C16.6641 70.6586 16.7221 70.5716 16.7616 70.4759C16.8011 70.3802 16.8214 70.2777 16.8213 70.1741C16.8212 70.0706 16.8007 69.9681 16.761 69.8725C16.7213 69.7769 16.6631 69.69 16.5898 69.6169C16.5165 69.5437 16.4295 69.4858 16.3338 69.4462C16.2382 69.4067 16.1356 69.3864 16.0321 69.3865C15.9285 69.3866 15.826 69.4071 15.7304 69.4469C15.6348 69.4866 15.5479 69.5448 15.4748 69.618L13.3907 71.7022H12.1842C12.1397 71.5584 12.0824 71.4189 12.0128 71.2853L13.0943 70.2039C13.2423 70.0562 13.3256 69.8558 13.3258 69.6466C13.326 69.4375 13.2431 69.2369 13.0954 69.0889C12.9477 68.9409 12.7473 68.8576 12.5382 68.8574C12.3291 68.8572 12.1284 68.94 11.9804 69.0877L10.8967 70.1715C10.763 70.1018 10.6235 70.0437 10.4798 69.9978V68.7937L12.564 66.7095C12.7117 66.5618 12.7947 66.3615 12.7947 66.1526C12.7947 65.9437 12.7117 65.7434 12.564 65.5957C12.4163 65.448 12.2159 65.365 12.007 65.365C11.7982 65.365 11.5978 65.448 11.4501 65.5957L9.69482 67.351L7.93952 65.5957C7.79182 65.448 7.59149 65.365 7.3826 65.365C7.17372 65.365 6.97338 65.448 6.82567 65.5957C6.67797 65.7434 6.59499 65.9437 6.59499 66.1526C6.59499 66.3615 6.67797 66.5618 6.82567 66.7095L8.9098 68.7937V69.9978C8.76555 70.0441 8.62536 70.1022 8.49066 70.1715L7.40923 69.0877C7.33594 69.0146 7.24897 68.9566 7.15327 68.9171C7.05757 68.8776 6.95503 68.8573 6.8515 68.8574C6.74796 68.8575 6.64545 68.878 6.54984 68.9177C6.45422 68.9574 6.36736 69.0156 6.29422 69.0889C6.22109 69.1622 6.16311 69.2492 6.12359 69.3449C6.08406 69.4406 6.06378 69.5431 6.06388 69.6466C6.06399 69.7502 6.08449 69.8527 6.12421 69.9483C6.16393 70.0439 6.2221 70.1308 6.29538 70.2039L7.37681 71.2853C7.30905 71.4197 7.25177 71.559 7.20545 71.7022H5.99897L3.91484 69.618C3.76714 69.4703 3.56681 69.3874 3.35792 69.3874C3.14904 69.3874 2.9487 69.4703 2.80099 69.618C2.65329 69.7657 2.57031 69.9661 2.57031 70.175C2.57031 70.3839 2.65329 70.5842 2.80099 70.7319L4.55629 72.4872L2.80099 74.2402C2.69146 74.3507 2.61704 74.4912 2.58708 74.6439C2.55711 74.7966 2.57293 74.9548 2.63256 75.0985C2.69218 75.2422 2.79296 75.3652 2.92222 75.4518C3.05148 75.5385 3.20346 75.585 3.35908 75.5856C3.46248 75.586 3.5649 75.5657 3.66035 75.5259C3.75579 75.4862 3.84231 75.4277 3.91484 75.354L5.99897 73.2699H7.20545C7.25073 73.4138 7.30885 73.5533 7.37913 73.6867L6.29538 74.7705C6.18599 74.8809 6.11161 75.0211 6.08157 75.1736C6.05152 75.3261 6.06714 75.4841 6.12648 75.6277C6.18582 75.7714 6.28625 75.8943 6.41515 75.9812C6.54406 76.068 6.69573 76.1149 6.85116 76.1159C7.06043 76.1152 7.26097 76.032 7.40923 75.8843L8.49066 74.8006C8.62517 74.8703 8.7654 74.9284 8.9098 74.9742V76.1784L6.82567 78.2625C6.67797 78.4102 6.59499 78.6106 6.59499 78.8195C6.59499 79.0283 6.67797 79.2287 6.82567 79.3764C6.97338 79.5241 7.17372 79.6071 7.3826 79.6071C7.59149 79.6071 7.79182 79.5241 7.93952 79.3764L9.69482 77.6211L11.4501 79.3764C11.5227 79.4501 11.6092 79.5085 11.7046 79.5483C11.8001 79.588 11.9025 79.6083 12.0059 79.6079C12.1615 79.6074 12.3135 79.5608 12.4427 79.4742C12.572 79.3875 12.6728 79.2646 12.7324 79.1209C12.792 78.9771 12.8079 78.819 12.7779 78.6662C12.7479 78.5135 12.6735 78.3731 12.564 78.2625L10.4798 76.1784V74.9742C10.6233 74.928 10.7628 74.8699 10.8967 74.8006L11.9804 75.8843C12.1287 76.032 12.3292 76.1152 12.5385 76.1159C12.6939 76.1149 12.8456 76.068 12.9745 75.9812C13.1034 75.8943 13.2038 75.7714 13.2632 75.6277C13.3225 75.4841 13.3381 75.3261 13.3081 75.1736C13.278 75.0211 13.2037 74.8809 13.0943 74.7705L12.0105 73.6867C12.0818 73.5537 12.1399 73.4141 12.1842 73.2699H13.3907L15.4748 75.354C15.6244 75.4943 15.8226 75.5709 16.0277 75.5676C16.2327 75.5643 16.4284 75.4814 16.5734 75.3364C16.7184 75.1914 16.8013 74.9957 16.8046 74.7907C16.8079 74.5857 16.7313 74.3874 16.591 74.2379L14.8357 72.4826ZM10.4358 73.2143C10.2415 73.4071 9.97893 73.5152 9.70524 73.5152C9.43155 73.5152 9.16895 73.4071 8.97465 73.2143C8.78493 73.0187 8.67981 72.7562 8.68202 72.4837C8.68422 72.2112 8.79357 71.9505 8.98642 71.758C9.17927 71.5654 9.44015 71.4565 9.71266 71.4547C9.98518 71.4529 10.2474 71.5585 10.4428 71.7485C10.6355 71.9428 10.7437 72.2054 10.7437 72.4791C10.7437 72.7528 10.6355 73.0154 10.4428 73.2097L10.4358 73.2143Z" fill="#256095"/>
<path d="M20.6525 95.0951L11.129 98.9533L12.6519 102.279L22.1754 98.4204L22.7663 99.7206L13.2656 103.557L14.7884 106.861L24.3119 103.003L24.9256 104.325L14.2202 108.652L9.37891 98.1219L20.0388 93.7949L20.6525 95.0951Z" fill="#256095"/>
<path d="M27.7671 108.098L23.6305 110.975L23.9032 111.338L30.4719 111.508L31.5629 112.894L24.6078 112.489C25.5624 114.109 25.0624 115.324 24.176 116.667C23.4714 117.668 22.8122 118.521 22.3122 119.48L21.3348 118.244C21.7212 117.477 22.3576 116.645 22.9031 115.899C23.8123 114.642 24.1987 113.469 23.0168 111.956L22.7213 111.593L18.4482 114.578L17.5391 113.448L26.8807 106.947L27.7671 108.098Z" fill="#256095"/>
<path d="M36.744 124.745C34.0619 127.538 30.8117 127.452 28.5615 125.555C26.2431 123.594 26.1977 120.546 28.5388 118.095C31.0162 115.516 34.3574 115.302 36.7212 117.285C39.1305 119.331 39.0623 122.358 36.744 124.745ZM29.7889 119.118C28.1296 120.844 27.6523 123.253 29.4479 124.767C31.2435 126.28 33.7437 125.619 35.4939 123.786C37.0394 122.166 37.744 119.715 35.8348 118.116C33.971 116.539 31.4935 117.327 29.7889 119.118Z" fill="#256095"/>
<path d="M49.6327 125.811L43.8367 135.254L42.4957 134.529L47.6552 126.109L44.2459 124.276L42.4957 127.133C41.2456 129.179 39.7455 131.417 37.7454 131.524C37.2226 131.545 36.4953 131.438 35.9043 131.119L36.3361 130.053C36.7907 130.202 37.359 130.202 37.7226 130.138C38.9955 129.84 40.2001 128.049 41.132 126.536L43.564 122.55L49.6327 125.811Z" fill="#256095"/>
<path d="M52.1329 134.828L49.8146 137.705L48.3145 137.236L55.815 128.092L57.5652 128.646L57.7243 140.178L56.1787 139.688L56.1333 136.064L52.1329 134.828ZM56.1787 134.934L56.1333 131.609C56.1333 130.863 56.1787 130.181 56.2242 129.541H56.2014C55.815 130.095 55.4059 130.671 54.9741 131.225L52.8148 133.868L56.1787 134.934Z" fill="#256095"/>
<path d="M70.5876 138.558L69.2238 141.947L67.6328 141.883L72.0877 131.119L73.9288 131.183L77.5427 142.224L75.9062 142.16L74.7697 138.686L70.5876 138.558ZM74.5197 137.599L73.4742 134.423C73.2469 133.698 73.0878 133.058 72.9287 132.419H72.8832C72.6787 133.058 72.4741 133.719 72.2014 134.38L70.9285 137.492L74.5197 137.599Z" fill="#256095"/>
<path d="M80.6348 131.161C81.3394 130.948 82.294 130.714 83.4986 130.522C84.9987 130.309 86.1352 130.458 86.9307 130.927C87.6581 131.353 88.1808 132.078 88.3399 133.037C88.499 134.018 88.3172 134.828 87.8172 135.467C87.158 136.362 85.9079 136.959 84.4305 137.172C83.9759 137.236 83.5668 137.279 83.2031 137.258L83.9305 141.563L82.4076 141.776L80.6348 131.161ZM83.0213 136.149C83.3623 136.17 83.7941 136.149 84.2941 136.085C86.1125 135.808 87.0898 134.849 86.8398 133.357C86.6125 131.929 85.3851 131.417 83.7259 131.652C83.0668 131.758 82.5667 131.865 82.3167 131.971L83.0213 136.149Z" fill="#256095"/>
<path d="M92.158 128.795L93.8626 133.357L94.3172 133.208L96.4538 127.388L98.2039 126.813L95.7264 132.93C97.6584 132.547 98.7494 133.357 99.8631 134.55C100.681 135.467 101.341 136.32 102.181 137.066L100.613 137.577C99.954 137.002 99.2949 136.192 98.7039 135.488C97.6811 134.295 96.6129 133.613 94.7263 134.231L94.2718 134.38L96.0446 139.091L94.6127 139.56L90.7715 129.264L92.158 128.795Z" fill="#256095"/>
<path d="M103.5 125.47L100.386 127.154L99.75 126.109L107.342 121.995L107.978 123.04L104.841 124.745L110.024 133.144L108.683 133.868L103.5 125.47Z" fill="#256095"/>
<path d="M110.228 119.928L113.456 123.381C114.683 124.681 115.638 125.768 116.593 126.941H116.638C116.297 125.726 116.024 124.383 115.752 122.869L114.683 116.283L115.843 115.345L123.502 123.53L122.411 124.425L119.138 120.93C117.888 119.608 117.002 118.628 116.138 117.519L116.093 117.54C116.502 118.798 116.774 120.248 117.024 121.654L118.047 128.028L116.82 129.03L109.16 120.844L110.228 119.928Z" fill="#256095"/>
<path d="M119.024 111.7L123.161 114.599L123.457 114.237L121.752 108.29L122.866 106.904L124.434 113.256C125.82 111.934 127.207 112.02 128.821 112.446C130.048 112.787 131.094 113.128 132.23 113.32L131.23 114.556C130.343 114.428 129.321 114.087 128.389 113.81C126.843 113.363 125.548 113.341 124.343 114.833L124.048 115.196L128.321 118.201L127.411 119.331L118.115 112.787L119.024 111.7Z" fill="#256095"/>
<path d="M124.73 103.685L129.185 105.604C130.866 106.328 132.23 106.947 133.594 107.65L133.617 107.629C132.776 106.648 131.935 105.518 131.048 104.24L127.207 98.6335L127.844 97.3333L138.413 101.895L137.799 103.131L133.298 101.191C131.594 100.445 130.344 99.8911 129.071 99.209L129.025 99.2517C129.935 100.254 130.821 101.468 131.662 102.662L135.367 108.076L134.685 109.462L124.139 104.9L124.73 103.685Z" fill="#256095"/>
</svg>
