<svg width="109" height="109" viewBox="0 0 109 109" fill="none" xmlns="http://www.w3.org/2000/svg">
<path d="M54.5 108C84.0472 108 108 84.0472 108 54.5C108 24.9528 84.0472 1 54.5 1C24.9528 1 1 24.9528 1 54.5C1 84.0472 24.9528 108 54.5 108Z" stroke="white" stroke-miterlimit="10"/>
<path d="M54.499 93.9576C76.2911 93.9576 93.9571 76.2916 93.9571 54.4995C93.9571 32.7075 76.2911 15.0415 54.499 15.0415C32.707 15.0415 15.041 32.7075 15.041 54.4995C15.041 76.2916 32.707 93.9576 54.499 93.9576Z" stroke="white" stroke-miterlimit="10"/>
<path d="M17.0643 29.7404L18.68 32.1164L17.9383 33.1516L12.8555 25.523L13.721 24.3147L22.5885 26.6584L21.8214 27.7293L19.0347 26.9877L17.0643 29.7404ZM18.1844 26.6856L15.6387 26.0067C15.0583 25.8523 14.5628 25.6673 14.0774 25.4976L14.0604 25.5213C14.3998 25.9321 14.7257 26.3699 15.0414 26.8163L16.5145 29.0225L18.1844 26.6856Z" fill="white"/>
<path d="M17.5723 19.7294C18.0608 19.1061 18.6007 18.5247 19.1862 17.9915C20.1519 17.0972 20.9224 16.678 21.6878 16.6338C21.9973 16.6134 22.3075 16.6639 22.5946 16.7815C22.8816 16.8992 23.138 17.0808 23.3442 17.3127C24.113 18.1443 24.0417 19.2338 23.5139 20.1401L23.5393 20.1689C24.2352 19.8295 24.9717 19.9856 25.7456 20.4846C26.7859 21.1516 27.514 21.603 27.8857 21.7116L26.9506 22.5772C26.6705 22.5059 26.0137 22.1087 25.0837 21.508C24.0654 20.8291 23.3951 20.8529 22.5482 21.5843L21.6997 22.3735L24.225 25.0991L23.3204 25.9357L17.5723 19.7294ZM21.1362 21.7659L22.0611 20.9174C23.0268 20.0213 23.1999 18.9776 22.5329 18.2597C21.7811 17.4468 20.7985 17.6996 19.8345 18.5753C19.5278 18.845 19.2512 19.1471 19.0097 19.4765L21.1362 21.7659Z" fill="white"/>
<path d="M34.1348 17.1516C33.8666 17.5708 33.22 18.236 32.2476 18.8724C29.9972 20.3472 27.4736 20.1775 25.9258 17.8253C24.4561 15.58 25.1536 12.9495 27.6229 11.3271C28.6191 10.6771 29.3726 10.4564 29.729 10.4055L29.9751 11.3254C29.3279 11.4537 28.7132 11.7111 28.1677 12.0823C26.3009 13.3076 25.7544 15.1965 26.9882 17.0803C28.1388 18.8368 30.0023 19.2288 31.9455 17.956C32.5259 17.5879 33.031 17.1128 33.4339 16.5559L34.1348 17.1516Z" fill="white"/>
<path d="M34.4707 9.00713L31.7892 10.1187L31.4277 9.24982L37.9566 6.53442L38.3163 7.40505L35.6196 8.53024L38.5438 15.5835L37.3914 16.0604L34.4707 9.00713Z" fill="white"/>
<path d="M40.9421 5.77905L43.2485 14.0389L42.0605 14.3784L39.7559 6.11169L40.9421 5.77905Z" fill="white"/>
<path d="M51.6143 12.3008C51.1934 12.5656 50.3245 12.8914 49.1738 13.051C46.5094 13.4226 44.2929 12.1905 43.9043 9.40556C43.5343 6.74617 45.2959 4.6655 48.2218 4.2565C49.3996 4.08678 50.1751 4.21577 50.518 4.32268L50.3482 5.2578C49.7085 5.09754 49.0429 5.0681 48.3915 5.17124C46.175 5.48012 44.8801 6.95661 45.1907 9.18833C45.4792 11.2673 46.9981 12.4129 49.2977 12.0972C49.9779 12.0115 50.6357 11.7973 51.2358 11.4659L51.6143 12.3008Z" fill="white"/>
<path d="M55.6671 11.3016C56.3053 11.7343 57.0392 12.0051 57.8054 12.0908C59.0596 12.2215 59.8556 11.7056 59.9455 10.8451C60.0304 10.0475 59.5704 9.53834 58.3349 8.95962C56.8381 8.30283 55.959 7.48143 56.0829 6.27987C56.222 4.95102 57.5526 4.09398 59.3973 4.28745C60.1223 4.34071 60.8254 4.5596 61.4526 4.92726L61.0198 5.7894C60.4851 5.46028 59.8829 5.25662 59.2582 5.19371C57.9633 5.05794 57.3913 5.70285 57.3353 6.28326C57.2522 7.08091 57.7885 7.53404 59.0494 8.12803C60.5972 8.8527 61.3405 9.63507 61.2082 10.8875C61.0707 12.2045 59.8657 13.2279 57.6256 12.992C56.7108 12.8952 55.735 12.5507 55.2598 12.1926L55.6671 11.3016Z" fill="white"/>
<path d="M68.7558 15.0321C68.2637 15.1016 67.337 15.0473 66.2203 14.7266C63.6356 13.9815 62.1116 11.9552 62.8889 9.25337C63.6305 6.67375 66.0795 5.48407 68.9238 6.30208C70.0677 6.63132 70.7262 7.059 70.996 7.2949L70.4614 8.08066C69.9428 7.67583 69.3485 7.37868 68.7134 7.20665C66.5631 6.5889 64.7778 7.412 64.1566 9.58261C63.5762 11.6005 64.496 13.2688 66.7278 13.9103C67.3868 14.1103 68.078 14.1829 68.7643 14.1241L68.7558 15.0321Z" fill="white"/>
<path d="M74.7983 8.70665L73.1267 11.8854L77.2167 14.0271L78.8969 10.8433L80.0017 11.422L76.0118 19.0234L74.9086 18.4447L76.7755 14.8808L72.6854 12.7407L70.8186 16.3047L69.7324 15.731L73.7071 8.12793L74.7983 8.70665Z" fill="white"/>
<path d="M86.4912 21.8746C84.5837 24.1266 82.0482 24.0299 80.1898 22.4567C78.2653 20.8274 78.0498 18.3429 79.7265 16.3623C81.4864 14.285 84.0745 14.1442 86.0194 15.7904C88.0085 17.4824 88.1357 19.9398 86.4912 21.8746ZM80.7482 17.2007C79.5602 18.5991 79.3463 20.5661 80.8279 21.8203C82.3095 23.0744 84.2052 22.5636 85.4628 21.0786C86.5659 19.7769 86.9596 17.7777 85.3932 16.4506C83.8268 15.1234 81.965 15.7649 80.7482 17.2007Z" fill="white"/>
<path d="M92.8154 29.9905C90.4564 31.7657 88.0058 31.1106 86.5361 29.164C85.0188 27.1495 85.3583 24.6785 87.4321 23.1189C89.6078 21.4811 92.1637 21.9156 93.6962 23.9521C95.2643 26.0345 94.8519 28.4597 92.8154 29.9905ZM88.2501 24.1558C86.7855 25.2572 86.1389 27.1275 87.3048 28.6769C88.4708 30.2264 90.436 30.15 91.9906 28.979C93.3483 27.9607 94.1799 26.0939 92.9461 24.4511C91.7123 22.8083 89.7504 23.0238 88.2468 24.1558H88.2501Z" fill="white"/>
<path d="M97.4823 29.9934L98.0237 31.0999L91.1537 34.4568L92.9425 38.1226L92.1092 38.5299L89.7773 33.7542L97.4823 29.9934Z" fill="white"/>
<path d="M53.9487 19.5544C53.8893 19.6376 54.1099 19.7971 54.7395 20.4811C55.5219 21.3296 55.4812 21.4128 55.8189 21.6283C56.4553 22.039 56.9153 21.9525 57.0408 22.2444C57.1664 22.5363 56.8423 22.9232 56.4655 23.0929C55.9954 23.3017 55.6899 23.0556 55.2266 23.188C54.5936 23.3679 54.5936 23.9873 54.1473 24.6102C53.5176 25.491 52.406 25.7982 52.0632 25.9034C50.4136 26.3735 49.6567 25.3569 46.9956 25.3942C45.5412 25.4146 45.7312 25.7184 44.1207 25.7608C41.4969 25.8287 40.9131 25.0226 39.698 25.4214C38.2554 25.9 38.7561 27.1457 37.0216 28.2692C35.9694 28.948 35.6283 28.5933 33.4458 29.3044C31.6331 29.9081 29.9285 30.7979 28.3969 31.94C27.4305 32.6326 26.5656 33.4569 25.8274 34.389C25.0043 35.4548 25.1129 35.7212 24.1031 36.9211C23.2206 37.9716 22.7794 38.496 22.1633 38.9678C21.5473 39.4396 21.179 39.594 21.2299 39.8588C21.3199 40.3306 22.5588 40.4613 24.5189 41.1741C25.3386 41.4727 27.7621 42.3536 27.701 42.8881C27.6484 43.3379 25.9241 42.9017 23.7977 43.8368C22.8999 44.2306 22.5961 44.5785 21.6593 44.6854C20.5018 44.8195 19.453 44.4614 19.453 44.5157C19.4344 44.6056 22.2635 44.8449 23.1561 46.2281C23.6364 46.9714 23.5346 48.01 22.9067 48.4445C21.9936 49.0758 20.0436 48.3902 18.9524 47.6638C18.1666 47.1428 17.9545 46.6846 17.6388 46.7389C16.96 46.8577 17.2468 49.0979 17.335 49.7937C17.5641 51.6079 17.6744 52.5091 18.3974 52.9351C19.5956 53.636 21.8069 52.801 23.0509 51.7624C24.0302 50.9461 24.5291 49.8701 25.5304 47.7198C26.2228 46.2264 26.435 45.444 27.2174 45.3201C27.9997 45.1962 28.9009 45.7749 29.3744 46.3299C30.3723 47.4941 30.0532 49.2863 29.1436 50.403C27.8504 52 25.9717 51.4942 25.2979 53.0776C25.006 53.765 25.1384 54.3861 24.4358 54.9869C24.0122 55.3678 23.461 55.5756 22.8914 55.569C22.2991 55.5453 22.1345 55.272 21.7594 55.2635C20.7819 55.2449 19.9723 57.0642 19.784 58.7291C19.5803 60.5212 19.9774 63.1874 21.2588 63.5523C22.2482 63.8357 23.0764 62.5476 24.3679 62.9634C25.152 63.2162 25.5236 63.9087 25.8783 63.7984C25.9971 63.761 26.0854 63.6422 26.1651 62.7343C26.2687 61.5649 26.1651 61.2713 26.4333 61.0931C26.7999 60.8505 27.6111 60.9862 27.9251 61.3528C28.3901 61.8942 27.6298 62.775 27.8538 62.904C28.0523 63.0177 28.872 62.4644 29.4168 61.6125C30.0957 60.5619 29.6578 60.1495 30.1534 59.5267C31.1207 58.3116 33.327 59.1992 33.999 58.1368C34.3758 57.5411 33.7496 57.1541 33.943 55.1227C33.9821 54.7256 34.0534 54.2419 34.4641 53.8363C34.8442 53.4612 35.5061 53.1574 35.8116 53.3424C36.2019 53.5732 35.8659 54.4964 36.0101 54.5389C36.2036 54.5932 36.5702 52.8927 37.322 52.8927C37.6614 52.8927 37.8091 53.2474 38.5982 53.9517C39.2279 54.5134 40.2954 55.4791 41.0065 55.3094C41.5326 55.1923 41.3951 54.5541 41.9416 54.4184C42.5899 54.2588 43.469 54.9937 43.9357 55.3857C45.3697 56.5856 45.0677 57.1507 46.0588 57.8143C47.4012 58.7138 48.4551 58.0078 49.4191 58.8631C50.1726 59.5301 49.6024 60.0257 50.4272 61.5616C51.1264 62.8649 51.9732 63.3215 51.739 63.7678C51.5388 64.1581 50.848 63.9375 49.6736 64.3533C48.9578 64.5994 48.3109 65.0125 47.7864 65.5583C46.8683 66.585 47.3622 67.3402 46.4576 67.9122C45.7788 68.3432 45.3545 68.0038 44.7503 68.4519C43.9594 69.0374 44.5042 69.7535 43.8169 70.6259C43.2314 71.3692 42.673 71.062 41.373 71.9666C40.2665 72.7371 40.4634 73.1054 39.5062 73.7469C39.2143 73.9437 37.9516 74.7889 36.2902 74.7363C34.3826 74.6752 33.9142 73.4923 31.5094 73.1614C30.5726 73.0324 28.8585 72.9662 28.6243 73.5279C28.4546 73.9488 29.1538 74.648 31.9693 76.5709C34.5472 78.3308 35.8353 79.2116 37.9007 80.3045C41.5903 82.2919 44.309 83.3101 49.1306 85.0701C54.0522 86.8758 55.6187 87.1881 57.0374 86.6314C58.5649 86.0357 59.6646 84.5406 59.4134 84.2724C59.2081 84.0586 58.071 84.5915 57.976 84.4557C57.8809 84.3199 58.9043 83.7887 59.8971 83.1184C61.7945 81.8404 61.5127 81.4806 62.7907 80.7577C64.0686 80.0347 66.3122 79.2676 67.4985 80.0279C68.1213 80.4284 67.9482 80.9308 68.7034 81.3534C69.4061 81.7471 69.8914 81.4993 71.2372 81.6079C72.0077 81.6707 73.4435 81.7776 74.6315 82.5244C75.8195 83.2711 75.8093 84.0416 76.7699 84.2436C77.5217 84.4014 78.3923 84.1095 78.4772 83.7039C78.5383 83.4137 78.1683 83.2117 77.4351 82.4225C76.5866 81.5146 76.0282 80.9104 76.2115 80.5235C76.4202 80.0805 77.5862 79.9431 78.17 80.3368C78.5756 80.6117 78.4059 80.941 78.8488 81.6639C79.2918 82.3869 80.0283 82.9843 80.2507 82.8994C80.4407 82.8265 80.1505 82.2953 80.0351 81.1276C79.9797 80.7461 79.9672 80.3596 79.9978 79.9753C80.1573 78.6295 81.1654 77.5773 81.1654 77.5773C82.6419 77.5043 82.9626 77.3482 82.9626 77.3482C83.0068 77.3261 83.7993 76.9256 83.8112 76.1483C83.8012 75.8657 83.7177 75.5905 83.5689 75.35C83.4201 75.1096 83.2111 74.912 82.9626 74.777C82.165 74.351 81.4352 74.8788 79.044 75.1487C77.7695 75.2929 77.1212 75.3591 76.6358 75.0706C76.0503 74.7312 75.9994 74.1627 75.6633 72.2381C75.1406 69.241 74.9845 69.0408 75.0507 68.0751C75.1169 67.1094 75.3901 65.319 75.9671 65.3241C76.4559 65.3241 77.0278 66.641 77.279 67.5303C77.9307 69.8316 76.8479 70.7243 77.6591 71.9174C78.4262 73.0477 80.1726 73.3854 81.1993 73.5856C84.322 74.1915 87.3327 73.0765 87.2207 72.4961C87.1206 71.987 84.6496 72.3875 82.798 70.8753C81.2316 69.5957 80.6885 67.4166 81.4301 66.938C81.5456 66.8634 81.9104 66.6869 84.6666 67.8103C86.4095 68.5197 88.7074 69.5855 88.6921 69.6093C88.6768 69.633 85.5168 68.6911 84.3068 66.5697C84.1371 66.2812 83.6754 65.4649 84.0539 64.932C84.6258 64.1276 86.8066 64.4229 86.8032 64.389C86.7998 64.355 83.8961 64.5994 83.3343 63.739C82.9117 63.089 84.1116 62.2489 83.5855 61.5225C83.2766 61.0948 82.7929 61.2866 82.2006 60.8623C81.2469 60.1835 81.7713 59.1482 80.96 57.1015C80.5527 56.0832 80.3491 55.5605 79.862 55.3789C78.6367 54.919 77.5845 57.0761 75.2628 56.9929C73.7354 56.9352 72.2962 55.9305 72.3675 55.4994C72.4388 55.0684 74.1105 55.5113 75.9077 54.5966C77.0176 54.0348 77.5726 53.2542 77.9561 53.4357C78.3397 53.6173 78.0495 54.5915 78.3159 54.6763C78.5824 54.7612 78.9676 54.0145 79.5922 53.1642C80.5273 51.8897 80.9957 51.2532 81.532 51.1175C83.3157 50.6643 86.3552 53.9041 86.547 53.7548C86.7387 53.6055 83.5668 51.1141 84.21 49.5544C84.4001 49.0928 84.7955 49.0215 84.8566 48.4445C84.9398 47.6316 84.2559 46.7949 83.8672 46.3214C83.2902 45.6171 83.0288 45.5917 82.9491 45.2166C82.7794 44.4257 83.7875 43.7418 84.0997 43.528C85.1706 42.7982 86.3213 42.749 86.2737 42.5436C86.2262 42.3383 85.1825 42.5606 84.3322 42.0209C83.336 41.3879 83.7128 40.4222 82.9474 40.076C82.148 39.7145 81.4743 40.6513 79.5158 40.5852C79.4021 40.5852 78.1785 40.5291 78.0597 40.1931C77.9629 39.9216 78.7029 39.7994 79.0287 39.1748C79.3138 38.625 79.1102 38.0293 78.8488 37.2707C78.4551 36.1234 78.0444 36.0538 77.985 35.3241C77.9103 34.3958 78.5467 34.148 78.2548 33.683C77.9001 33.1212 76.9158 33.3995 75.7737 32.5866C75.4546 32.3592 74.9251 31.9842 74.8572 31.4818C74.7486 30.7351 75.755 30.4635 75.6107 29.9714C75.4512 29.4283 74.0833 29.3197 72.4473 28.8343C71.1083 28.4338 70.2631 27.9857 68.583 27.0778C66.8561 26.155 65.2343 25.0476 63.7462 23.7752C61.3176 21.6623 61.394 20.8477 59.9531 20.4675C58.6446 20.1281 58.0642 20.6593 56.0497 20.1281C54.967 19.8379 54.0675 19.3949 53.9487 19.5544Z" fill="white" fill-opacity="0.58"/>
<path d="M58.8882 72.7099C58.6149 72.7099 58.5606 71.8291 57.7002 70.6734C56.9637 69.6839 56.4325 69.5651 56.4053 69.039C56.3646 68.2312 57.5695 67.6915 58.0413 67.4811C59.0445 67.0253 60.1733 66.9265 61.2404 67.2011C61.8751 67.3708 62.8866 67.8069 62.8764 68.2193C62.8662 68.5672 62.1144 68.8235 61.4916 68.8456C60.6787 68.8778 60.0439 68.5061 59.9998 68.5876C59.9183 68.7251 62.3164 69.6059 62.391 70.6598C62.4233 71.1095 62.0313 71.583 61.6189 71.5932C60.9044 71.6119 60.4309 70.2355 59.8929 70.2712C59.1971 70.3204 59.3379 72.7116 58.8882 72.7099Z" fill="#D6E6EE"/>
<path d="M63.2162 78.6683C61.3409 78.6683 59.1923 78.5105 56.9148 78.3442C55.1956 78.2169 53.4187 78.0862 51.6283 78.0149C50.5031 77.9691 49.3881 77.947 48.2204 77.947C47.3617 77.947 46.5878 77.9589 45.9039 77.9691C45.3438 77.9776 44.8143 77.9844 44.334 77.9844C41.9852 77.9844 40.6598 77.7926 39.0136 76.647C35.9774 74.5358 34.9405 71.2417 34.7572 70.6019C34.5705 69.923 33.7135 66.41 35.2443 63.087C35.4774 62.5919 35.748 62.1153 36.0538 61.6615C36.5001 60.9639 36.9227 60.3038 37.1467 59.0835C37.2416 58.5626 37.2752 58.0323 37.2469 57.5035C37.2279 56.6542 37.2534 55.8045 37.3232 54.9578C37.3741 54.296 37.4217 53.9396 37.4777 53.517C37.5286 53.1266 37.588 52.6854 37.6627 51.9115C37.7373 51.1376 37.8001 50.4927 37.8324 49.5915C37.8442 49.1181 37.8324 48.8414 37.8324 48.5495C37.8324 48.317 37.8239 48.076 37.8324 47.7196C37.8527 46.3993 37.8646 45.6033 37.9732 45.3199C38.1005 44.9805 38.6724 44.8192 39.6703 44.8192C40.6683 44.8192 42.031 44.989 43.5737 45.1858C45.556 45.437 47.8012 45.7238 50.0228 45.7238C53.1845 45.7238 55.591 45.1281 57.3798 43.9062C57.4646 43.8485 57.558 43.7806 57.6615 43.7076C58.5321 43.0916 60.1495 41.9426 62.2149 41.9426H62.2403C63.4283 41.9426 64.7368 42.3211 65.4445 42.5213L65.4869 42.5332C66.5697 42.8404 67.3538 43.061 68.2023 43.6499C68.7929 44.0572 69.6873 44.6682 70.2728 45.8562C70.5613 46.4468 71.045 47.4328 70.7565 48.4375C70.5562 49.1316 70.3135 49.5508 69.465 50.676C67.7424 52.9552 67.0381 53.8887 66.9023 54.0838L66.8005 54.2332C65.4886 56.1306 64.2548 57.9227 65.0236 59.1362C65.363 59.6792 65.8722 59.7522 66.3677 59.8235C66.9036 59.8769 67.4231 60.038 67.8951 60.297C68.703 60.7433 71.1621 62.1044 71.9445 64.796C72.4536 66.5254 72.0565 68.0443 71.7748 69.1542C71.6602 69.6195 71.4698 70.0627 71.2113 70.4661C70.898 70.952 70.6829 71.4945 70.5783 72.0631C70.4606 72.6808 70.4207 73.3108 70.4595 73.9384C70.4799 74.5002 70.4951 74.9431 70.2626 75.5592C69.9352 76.2774 69.4537 76.9148 68.8523 77.426C67.8968 78.278 66.1047 78.6683 63.2162 78.6683Z" fill="white"/>
<path d="M61.853 41.8545H61.8769C62.975 41.8545 64.2236 42.206 64.9281 42.4043C64.9471 42.4097 64.9658 42.415 64.9841 42.4201L65.0267 42.4338C66.1154 42.7414 66.8337 42.9464 67.6391 43.4984C68.1971 43.8829 69.04 44.4639 69.5792 45.5645C69.8437 46.1011 70.2839 47.0034 70.0382 47.8561C69.8676 48.4542 69.6747 48.8234 68.8096 49.97C67.076 52.2702 66.3662 53.2169 66.2229 53.4169L66.1205 53.5673L66.1098 53.5828C64.7128 55.6072 63.3928 57.5203 64.3254 58.976C64.7793 59.6886 65.4431 59.7843 65.9772 59.8612C66.4649 59.9086 66.9379 60.0545 67.3678 60.2901C68.1425 60.719 70.4989 62.0246 71.236 64.5624C71.7041 66.1753 71.3404 67.6274 71.0731 68.6943L71.0654 68.7252C70.9598 69.154 70.7839 69.5623 70.545 69.9334C70.2071 70.4648 69.9753 71.0568 69.8624 71.6765C69.7376 72.3311 69.6946 72.9987 69.7345 73.664L69.7345 73.6645C69.7533 74.2008 69.7668 74.5887 69.5638 75.1234C69.2592 75.7807 68.8156 76.3638 68.2636 76.8323C67.3798 77.6047 65.6666 77.9636 62.8717 77.9636C61.0113 77.9636 58.886 77.8074 56.6288 77.6416L56.5685 77.6372L56.5024 77.6323C54.791 77.5074 53.022 77.3782 51.2397 77.3056C50.1016 77.2595 48.9754 77.2373 47.793 77.2373C46.9496 77.2373 46.1874 77.2487 45.5125 77.2587L45.4604 77.2595C44.8973 77.268 44.3667 77.2749 43.8872 77.2749C41.5734 77.2749 40.3517 77.104 38.7819 76.0052C35.8504 73.963 34.842 70.7725 34.6697 70.1539C34.4888 69.5028 33.6595 66.0901 35.1355 62.8808C35.3623 62.4004 35.6246 61.9377 35.9204 61.4966C36.3931 60.7583 36.8384 60.0611 37.0807 58.747C37.1805 58.1941 37.2166 57.6316 37.1882 57.0705C37.1683 56.2313 37.1934 55.3916 37.2633 54.555C37.3145 53.9005 37.3588 53.5587 37.4168 53.1264C37.4697 52.7316 37.5278 52.2822 37.6045 51.4978C37.6235 51.3038 37.6398 51.2144 37.6541 51.1759C37.7687 52.018 38.2912 49.3579 38.2973 49.107C38.3067 48.4741 38.1565 47.3492 38.0337 46.4298C37.9337 45.6811 37.852 45.0687 37.8895 44.9698C37.8895 44.9698 38.0601 44.7408 39.1999 44.7408C40.1847 44.7408 41.4852 44.9054 42.9883 45.0957L43.0733 45.1065L43.1068 45.1108C45.1018 45.3643 47.3619 45.6516 49.6102 45.6516C52.8778 45.6516 55.3775 45.0279 57.2477 43.7462L57.5377 43.5429L57.5381 43.5426C58.4322 42.9069 59.9268 41.8442 61.8684 41.8442L61.853 41.8545ZM61.8684 40.9897C59.6644 40.9897 57.9841 42.1802 57.0574 42.8368C56.9502 42.9127 56.8531 42.9815 56.7665 43.0404C54.7957 44.3922 52.2311 44.7972 49.6102 44.7972C47.4024 44.7972 45.1533 44.5104 43.1789 44.2587C41.6346 44.0618 40.2584 43.8863 39.2017 43.8863C38.7004 43.8863 38.4002 43.7705 38.202 43.694C37.9562 43.5992 37.8669 43.5647 37.7451 43.8863C37.7002 44.0039 37.6696 44.0441 37.6301 44.0959C37.5496 44.2017 37.4321 44.356 37.0807 45.313C37.0734 45.7464 37.035 46.5629 36.9976 47.3582C36.9654 48.0429 36.934 48.7118 36.9237 49.107C36.9015 49.9615 36.8384 50.6245 36.7531 51.4141C36.6788 52.1856 36.6202 52.6276 36.5687 53.0155C36.5115 53.4474 36.4631 53.8122 36.4118 54.4901C36.3104 55.8179 36.3237 56.5452 36.3338 57.0931C36.3437 57.6325 36.3504 57.998 36.2412 58.5914C36.028 59.74 35.6458 60.3384 35.2034 61.0311C34.9375 61.4474 34.6499 61.8977 34.3642 62.5219C32.7159 66.1106 33.6988 69.8326 33.8523 70.3829C33.9889 70.875 35.0314 74.4313 38.2973 76.7058C40.0668 77.9379 41.5103 78.1293 43.8906 78.1293C44.3765 78.1293 44.9016 78.1216 45.4763 78.1132C46.171 78.103 46.9382 78.0917 47.7964 78.0917C48.7997 78.0917 49.9258 78.1071 51.209 78.1584C52.9966 78.2315 54.7804 78.3627 56.497 78.4889C58.7949 78.6579 60.9722 78.818 62.8768 78.818C65.5284 78.818 67.6545 78.507 68.8301 77.4748C69.4897 76.9159 70.0147 76.2148 70.3658 75.4241C70.6297 74.7255 70.6122 74.2133 70.5922 73.6304C70.5753 73.1355 70.5566 72.5896 70.7071 71.8354C70.8514 71.1028 71.0653 70.7427 71.2899 70.3646C71.5005 70.0098 71.7206 69.6392 71.9015 68.9303L71.9017 68.9295C72.1884 67.8119 72.6095 66.17 72.0721 64.3163C71.2377 61.4368 68.6595 60.0047 67.7978 59.5313C67.1081 59.1497 66.5565 59.0698 66.1182 59.0064C65.6479 58.9383 65.3079 58.889 65.0677 58.506C64.4415 57.5254 65.6408 55.7846 66.8371 54.0481C66.873 53.9961 66.9088 53.944 66.9446 53.892C67.0517 53.7372 67.586 53.0264 68.6091 51.6652C68.8743 51.3124 69.1722 50.9159 69.5041 50.4742C70.3812 49.3121 70.6542 48.8404 70.8692 48.0817C71.2067 46.9255 70.6712 45.8228 70.3672 45.197L70.3573 45.1766C69.7253 43.8852 68.7534 43.2105 68.1517 42.7929L68.1391 42.7841C67.2218 42.1531 66.3971 41.9181 65.2904 41.6027L65.2383 41.5879L65.2274 41.5848C64.4912 41.3773 63.1402 40.9965 61.9042 40.9897H61.8684Z" fill="black"/>
<path d="M61.853 41.8545H61.8769C62.975 41.8545 64.2236 42.206 64.9281 42.4043C64.9471 42.4097 64.9658 42.415 64.9841 42.4201L65.0267 42.4338C66.1154 42.7414 66.8337 42.9464 67.6391 43.4984C68.1971 43.8829 69.04 44.4639 69.5792 45.5645C69.8437 46.1011 70.2839 47.0034 70.0382 47.8561C69.8676 48.4542 69.6747 48.8234 68.8096 49.97C67.076 52.2702 66.3662 53.2169 66.2229 53.4169L66.1205 53.5673L66.1098 53.5828C64.7128 55.6072 63.3928 57.5203 64.3254 58.976C64.7793 59.6886 65.4431 59.7843 65.9772 59.8612C66.4649 59.9086 66.9379 60.0545 67.3678 60.2901C68.1425 60.719 70.4989 62.0246 71.236 64.5624C71.7041 66.1753 71.3404 67.6274 71.0731 68.6943L71.0654 68.7252C70.9598 69.154 70.7839 69.5623 70.545 69.9334C70.2071 70.4648 69.9753 71.0568 69.8624 71.6765C69.7376 72.3311 69.6946 72.9987 69.7345 73.664L69.7345 73.6645C69.7533 74.2008 69.7668 74.5887 69.5638 75.1234C69.2592 75.7807 68.8156 76.3638 68.2636 76.8323C67.3798 77.6047 65.6666 77.9636 62.8717 77.9636C61.0113 77.9636 58.886 77.8074 56.6288 77.6416L56.5685 77.6372L56.5024 77.6323C54.791 77.5074 53.022 77.3782 51.2397 77.3056C50.1016 77.2595 48.9754 77.2373 47.793 77.2373C46.9496 77.2373 46.1874 77.2487 45.5125 77.2587L45.4604 77.2595C44.8973 77.268 44.3667 77.2749 43.8872 77.2749C41.5734 77.2749 40.3517 77.104 38.7819 76.0052C35.8504 73.963 34.842 70.7725 34.6697 70.1539C34.4888 69.5028 33.6595 66.0901 35.1355 62.8808C35.3623 62.4004 35.6246 61.9377 35.9204 61.4966C36.3931 60.7583 36.8384 60.0611 37.0807 58.747C37.1805 58.1941 37.2166 57.6316 37.1882 57.0705C37.1683 56.2313 37.1934 55.3916 37.2633 54.555C37.3145 53.9005 37.3588 53.5587 37.4168 53.1264C37.4697 52.7316 37.5278 52.2822 37.6045 51.4978C37.6235 51.3038 37.6398 51.2144 37.6541 51.1759C37.7687 52.018 38.2912 49.3579 38.2973 49.107C38.3067 48.4741 38.1565 47.3492 38.0337 46.4298C37.9337 45.6811 37.852 45.0687 37.8895 44.9698C37.8895 44.9698 38.0601 44.7408 39.1999 44.7408C40.1847 44.7408 41.4852 44.9054 42.9883 45.0957L43.0733 45.1065L43.1068 45.1108C45.1018 45.3643 47.3619 45.6516 49.6102 45.6516C52.8778 45.6516 55.3775 45.0279 57.2477 43.7462L57.5377 43.5429L57.5381 43.5426C58.4322 42.9069 59.9268 41.8442 61.8684 41.8442L61.853 41.8545ZM61.8684 40.9897C59.6644 40.9897 57.9841 42.1802 57.0574 42.8368C56.9502 42.9127 56.8531 42.9815 56.7665 43.0404C54.7957 44.3922 52.2311 44.7972 49.6102 44.7972C47.4024 44.7972 45.1533 44.5104 43.1789 44.2587C41.6346 44.0618 40.2584 43.8863 39.2017 43.8863C38.7004 43.8863 38.4002 43.7705 38.202 43.694C37.9562 43.5992 37.8669 43.5647 37.7451 43.8863C37.7002 44.0039 37.6696 44.0441 37.6301 44.0959C37.5496 44.2017 37.4321 44.356 37.0807 45.313C37.0734 45.7464 37.035 46.5629 36.9976 47.3582C36.9654 48.0429 36.934 48.7118 36.9237 49.107C36.9015 49.9615 36.8384 50.6245 36.7531 51.4141C36.6788 52.1856 36.6202 52.6276 36.5687 53.0155C36.5115 53.4474 36.4631 53.8122 36.4118 54.4901C36.3104 55.8179 36.3237 56.5452 36.3338 57.0931C36.3437 57.6325 36.3504 57.998 36.2412 58.5914C36.028 59.74 35.6458 60.3384 35.2034 61.0311C34.9375 61.4474 34.6499 61.8977 34.3642 62.5219C32.7159 66.1106 33.6988 69.8326 33.8523 70.3829C33.9889 70.875 35.0314 74.4313 38.2973 76.7058C40.0668 77.9379 41.5103 78.1293 43.8906 78.1293C44.3765 78.1293 44.9016 78.1216 45.4763 78.1132C46.171 78.103 46.9382 78.0917 47.7964 78.0917C48.7997 78.0917 49.9258 78.1071 51.209 78.1584C52.9966 78.2315 54.7804 78.3627 56.497 78.4889C58.7949 78.6579 60.9722 78.818 62.8768 78.818C65.5284 78.818 67.6545 78.507 68.8301 77.4748C69.4897 76.9159 70.0147 76.2148 70.3658 75.4241C70.6297 74.7255 70.6122 74.2133 70.5922 73.6304C70.5753 73.1355 70.5566 72.5896 70.7071 71.8354C70.8514 71.1028 71.0653 70.7427 71.2899 70.3646C71.5005 70.0098 71.7206 69.6392 71.9015 68.9303L71.9017 68.9295C72.1884 67.8119 72.6095 66.17 72.0721 64.3163C71.2377 61.4368 68.6595 60.0047 67.7978 59.5313C67.1081 59.1497 66.5565 59.0698 66.1182 59.0064C65.6479 58.9383 65.3079 58.889 65.0677 58.506C64.4415 57.5254 65.6408 55.7846 66.8371 54.0481C66.873 53.9961 66.9088 53.944 66.9446 53.892C67.0517 53.7372 67.586 53.0264 68.6091 51.6652C68.8743 51.3124 69.1722 50.9159 69.5041 50.4742C70.3812 49.3121 70.6542 48.8404 70.8692 48.0817C71.2067 46.9255 70.6712 45.8228 70.3672 45.197L70.3573 45.1766C69.7253 43.8852 68.7534 43.2105 68.1517 42.7929L68.1391 42.7841C67.2218 42.1531 66.3971 41.9181 65.2904 41.6027L65.2383 41.5879L65.2274 41.5848C64.4912 41.3773 63.1402 40.9965 61.9042 40.9897H61.8684Z" stroke="black"/>
<path d="M64.4688 51.7078L71.7664 47.9741L65.3174 58.1568L58.1895 61.3814" fill="white"/>
<path d="M64.4688 51.7078L71.7664 47.9741L65.3174 58.1568L58.1895 61.3814" stroke="black" stroke-miterlimit="10"/>
<path d="M54.9638 51.199L64.4677 51.7081L58.1884 61.3817H47.8359L54.9638 51.199Z" stroke="black" stroke-miterlimit="10"/>
<path d="M59.9727 25.4879C60.2132 25.289 60.5099 25.1703 60.8212 25.1484C61.1488 25.1281 61.6257 25.2112 61.8395 25.4879C62.1789 25.9206 61.9345 26.9134 60.9909 27.6941" fill="white"/>
<path d="M59.9727 25.4879C60.2132 25.289 60.5099 25.1703 60.8212 25.1484C61.1488 25.1281 61.6257 25.2112 61.8395 25.4879C62.1789 25.9206 61.9345 26.9134 60.9909 27.6941" stroke="black" stroke-miterlimit="10"/>
<path d="M53.0178 21.9237C53.4738 21.9484 53.9275 22.0051 54.3755 22.0935C55.5269 22.3369 56.6213 22.7977 57.6 23.4511C59.3735 24.6391 60.3952 26.2446 60.9942 27.1848C61.3948 27.8144 61.5271 28.1352 62.0125 28.7122C62.9018 29.7729 63.3532 29.7695 63.7096 30.579C63.9845 31.2218 64.0441 31.9362 63.8793 32.6156C63.7537 33.067 63.6214 33.0721 63.5399 33.4641C63.4194 34.0395 63.6061 34.5045 64.049 35.5007C64.8755 37.3675 64.957 37.393 65.0673 37.8767C65.2099 38.5097 65.3694 39.2123 65.0673 39.9132C64.531 41.1572 62.7491 41.9141 61.6731 41.4406C60.7753 41.0486 60.9145 40.0422 59.8063 39.5738C59.382 39.4041 59.214 39.4787 58.1091 39.4041C56.967 39.3277 56.2796 39.2819 55.5635 39.0646C55.1018 38.9255 53.4115 38.4163 52.3389 37.0281C52.081 36.6972 51.7687 36.1965 51.1509 36.0098C50.8191 35.9086 50.4645 35.9086 50.1327 36.0098C48.7342 36.5359 48.3778 41.2709 50.1327 45.1743C50.5467 46.0764 51.0589 46.9301 51.6601 47.72C52.473 48.8316 53.902 50.7748 56.2423 51.9628C58.771 53.2407 60.054 52.4532 62.6914 54.169C63.5195 54.7087 64.1933 55.3078 64.3885 56.2056C64.4674 56.5883 64.4627 56.9835 64.3748 57.3643C64.287 57.745 64.118 58.1024 63.8793 58.4118C63.4924 58.8972 62.8865 59.1314 61.6731 59.5998C61.1733 59.7963 60.6634 59.9663 60.1457 60.1089C59.5483 60.2634 57.1621 60.7301 50.8115 58.4118C49.5098 57.9366 50.6147 58.2845 45.3807 56.0358C42.1817 54.6629 41.5503 54.1843 41.1379 53.3204C40.5915 52.18 40.9241 51.1668 39.95 50.0959C39.3101 49.3967 38.9979 49.6428 38.4225 49.0777C36.7441 47.4314 37.6979 43.6621 38.4225 40.7618C38.762 39.3871 38.7722 39.5195 40.9682 33.6339C42.7604 28.831 43.2237 27.3545 44.8716 25.6574C45.7263 24.7917 46.6973 24.0491 47.7567 23.4511C48.8106 22.8521 50.6639 21.8202 53.0178 21.9237Z" fill="white" stroke="black" stroke-miterlimit="10"/>
<path d="M56.0715 28.0329C56.2436 27.4107 56.1833 26.7471 55.9018 26.1661C55.2875 24.9934 53.6837 24.4418 52.5076 24.9781C51.5334 25.4228 51.2212 26.4427 51.1499 26.6752C50.617 28.408 51.9255 29.9659 52.1682 30.2392C52.4623 30.5723 52.8057 30.8585 53.1864 31.0877" fill="white"/>
<path d="M56.0715 28.0329C56.2436 27.4107 56.1833 26.7471 55.9018 26.1661C55.2875 24.9934 53.6837 24.4418 52.5076 24.9781C51.5334 25.4228 51.2212 26.4427 51.1499 26.6752C50.617 28.408 51.9255 29.9659 52.1682 30.2392C52.4623 30.5723 52.8057 30.8585 53.1864 31.0877" stroke="black" stroke-miterlimit="10"/>
<path d="M54.0511 30.4093C53.8322 30.3516 54.1818 29.5132 53.6591 28.6426C53.2654 27.9892 52.78 27.9824 52.6765 27.4648C52.5644 26.903 52.9853 26.1716 53.4622 26.0901C54.1071 25.9798 54.9014 27.0524 55.0321 28.0537C55.1967 29.3096 54.3193 30.4806 54.0511 30.4093Z" fill="black"/>
<path d="M57.7676 32.6155C58.0005 33.0612 58.3851 33.4088 58.852 33.5956C59.3189 33.7823 59.8372 33.7959 60.3133 33.6338" fill="white"/>
<path d="M57.7676 32.6155C58.0005 33.0612 58.3851 33.4088 58.852 33.5956C59.3189 33.7823 59.8372 33.7959 60.3133 33.6338" stroke="black" stroke-miterlimit="10"/>
<path d="M64.4913 39.1665C65.6691 39.2021 65.759 39.2785 65.8032 39.3531C66.073 39.8063 65.182 41.1521 64.2927 41.1266C63.992 41.1008 63.7068 40.9822 63.4764 40.7872C63.0012 40.4478 62.3886 39.7689 62.5667 39.4058C62.6889 39.1512 63.0182 39.1223 64.4913 39.1665Z" fill="black"/>
<path d="M40.1444 44.4292C40.5762 45.3787 41.2765 46.181 42.1588 46.7373C42.4355 46.907 42.69 46.4725 42.4151 46.2977C41.61 45.7838 40.9733 45.0451 40.5839 44.1729C40.4481 43.8742 40.0103 44.1339 40.1444 44.4292Z" fill="white"/>
<path d="M43.5991 43.3936C43.5294 44.682 43.8134 45.9649 44.4205 47.1035C44.9754 48.1744 46.5011 47.4005 46.2873 46.3177C46.0641 45.2241 45.6376 44.1821 45.0297 43.2459C44.9133 43.0592 44.7398 42.9148 44.5351 42.8341C44.3303 42.7533 44.105 42.7406 43.8924 42.7976C43.6799 42.8547 43.4912 42.9785 43.3544 43.1509C43.2175 43.3233 43.1397 43.5351 43.1324 43.7551L43.056 45.2298L44.787 44.5154L44.6784 44.2642L42.7149 44.8056L43.6483 47.151C44.0624 48.1896 45.5881 48.0861 45.6475 46.8794C45.6834 46.1719 45.6744 45.4628 45.6203 44.7564L43.8825 45.4759C44.4829 46.068 44.9971 46.7416 45.4099 47.4768C45.9038 48.3525 47.3225 47.9707 47.3073 46.9677L47.275 44.2761L45.3776 44.7852L46.6335 47.1866C47.0985 48.0742 48.575 47.672 48.5309 46.6775L48.4528 44.8565L46.5554 45.3656L47.8996 47.5719C48.3985 48.3916 49.8631 48.1048 49.7969 47.0627L49.6832 45.2638L47.6823 45.5336C48.0778 46.4755 47.9081 47.4276 49.0248 47.8468C49.8869 48.1693 50.5912 47.0712 50.1754 46.3499L49.5237 45.2248L47.9233 46.4586C48.0988 46.6365 48.217 46.8629 48.2627 47.1086C48.5818 48.3797 50.5454 47.84 50.228 46.5672C50.0864 45.985 49.7937 45.4506 49.3795 45.0177C48.5852 44.1607 47.2054 45.2604 47.7808 46.2515L48.4325 47.3784L49.5814 45.8832L49.4219 45.8221L50.0295 46.2905C49.8088 45.9766 49.819 45.3656 49.6629 44.9923C49.2607 44.0351 47.5822 44.0045 47.662 45.2638L47.7757 47.0627L49.6731 46.5536L48.3289 44.3473C47.8198 43.5158 46.3857 43.8212 46.4316 44.8565L46.5096 46.6775L48.407 46.1684L47.1359 43.7669C46.6624 42.8624 45.2232 43.2934 45.2385 44.2761L45.2792 46.9626L47.1766 46.4535C46.6756 45.568 46.0542 44.7564 45.3301 44.0419C44.7395 43.4581 43.5227 43.8518 43.5906 44.7614C43.6446 45.4679 43.6537 46.177 43.6177 46.8845L45.6186 46.6147L44.6852 44.2693C44.2134 43.0813 42.3279 43.5276 42.7217 44.8107C42.8517 45.233 43.0672 45.624 43.3547 45.9596C43.9487 46.7013 45.0518 46.036 45.0925 45.24L45.1689 43.7652L43.2715 44.2744C43.7847 45.0605 44.1419 45.938 44.3237 46.8591L46.1906 46.075C45.7653 45.2485 45.5773 44.3204 45.6475 43.3936C45.7222 42.0834 43.6856 42.0885 43.6109 43.3936H43.5991Z" fill="white"/>
<path d="M53.4148 53.7308C53.2624 54.1124 53.2042 54.5251 53.2451 54.934C53.2723 55.2582 53.7831 55.2599 53.7543 54.934C53.7192 54.5705 53.7739 54.2039 53.9138 53.8666C54.0377 53.5628 53.5455 53.4304 53.4233 53.7308H53.4148Z" fill="white"/>
<path d="M52.9297 53.745C52.9195 54.2541 52.9297 54.7769 52.9739 55.2928C52.9993 55.6152 53.483 55.6237 53.483 55.2928C53.4817 54.5545 53.3231 53.825 53.018 53.1527C52.9955 53.1143 52.9635 53.0825 52.9249 53.0604C52.8863 53.0383 52.8427 53.0266 52.7982 53.0266C52.7537 53.0266 52.7101 53.0383 52.6715 53.0604C52.633 53.0825 52.6009 53.1143 52.5784 53.1527C52.2145 53.9504 51.9698 54.7973 51.8521 55.6661C51.8096 55.9801 52.2695 56.1295 52.3425 55.8019C52.4925 55.165 52.4488 54.4978 52.2169 53.8859C52.1974 53.8226 52.154 53.7695 52.0959 53.7377C52.0378 53.7059 51.9696 53.698 51.9058 53.7157C51.842 53.7333 51.7876 53.7752 51.7541 53.8323C51.7206 53.8894 51.7107 53.9573 51.7265 54.0216C51.8427 54.72 52.072 55.3946 52.4053 56.0192C52.4408 56.0762 52.497 56.1174 52.5621 56.1342C52.6272 56.1509 52.6963 56.142 52.7549 56.1091C53.5899 55.6509 53.1979 54.115 52.9705 53.4107C52.9615 53.3432 52.926 53.282 52.8719 53.2406C52.8178 53.1992 52.7495 53.181 52.6819 53.1901C52.6144 53.1991 52.5533 53.2345 52.5119 53.2886C52.4705 53.3427 52.4523 53.411 52.4613 53.4786C52.4379 54.1884 52.3676 54.896 52.2509 55.5966L52.7498 55.6645L52.76 54.6462C52.76 54.5787 52.7332 54.5139 52.6855 54.4662C52.6377 54.4184 52.573 54.3916 52.5054 54.3916C52.4379 54.3916 52.3732 54.4184 52.3254 54.4662C52.2777 54.5139 52.2509 54.5787 52.2509 54.6462L52.2407 55.6645C52.2407 55.9411 52.6921 56.0208 52.7413 55.7306C52.8677 54.9859 52.9442 54.2335 52.9705 53.4786L52.4715 53.5464C52.6056 53.9622 53.0197 55.3776 52.4885 55.6695L52.8364 55.7612C52.5249 55.1746 52.311 54.5412 52.2034 53.8859L51.7129 54.0216C51.9185 54.5449 51.9622 55.1178 51.8385 55.6661L52.3289 55.8019C52.4379 54.9756 52.6666 54.1694 53.0078 53.409H52.5903C52.854 54.0018 52.9888 54.6439 52.9857 55.2928H53.4949C53.4541 54.7836 53.4406 54.2626 53.4507 53.745C53.4507 53.4175 52.9416 53.4175 52.9416 53.745H52.9297Z" fill="white"/>
<path d="M51.6311 54.4592C52.1584 54.7412 52.6711 55.0499 53.167 55.3841C53.4103 55.5248 53.6932 55.5815 53.9719 55.5457C54.2507 55.5098 54.5099 55.3832 54.7097 55.1855C54.8993 54.9811 55.0203 54.7225 55.0559 54.446C55.0915 54.1694 55.0399 53.8886 54.9083 53.6428C54.6565 53.129 54.3393 52.6498 53.9647 52.2173L53.0652 54.3913C53.2179 54.3913 53.1823 54.3658 52.9549 54.3302C52.6647 54.2996 52.4746 54.1163 52.3846 53.7854L54.7114 52.8045C54.5194 52.5453 54.3524 52.2686 54.2124 51.978L52.2132 53.5206L52.7529 54.0026C53.2485 54.4473 54.0699 54.5287 54.5536 54.0026C54.7851 53.7604 54.9143 53.4382 54.9143 53.1032C54.9143 52.7681 54.7851 52.4459 54.5536 52.2037C54.6299 52.3191 54.6265 52.3157 54.5536 52.1935C54.5147 52.1291 54.4801 52.0622 54.45 51.9932L53.0126 53.8601C53.24 53.8974 52.9074 53.7633 53.0279 53.838C53.1483 53.9127 52.8989 53.7175 52.8785 53.6853C53.2417 54.2419 54.0224 54.5338 54.6198 54.1418C55.1764 53.7837 55.4683 52.9979 55.0763 52.4005C54.9264 52.148 54.7258 51.9293 54.4871 51.7581C54.2485 51.587 53.977 51.4671 53.6897 51.406C53.1704 51.3178 52.6901 51.4247 52.3524 51.8609C52.2011 52.0617 52.1112 52.3021 52.0934 52.5529C52.0756 52.8038 52.1308 53.0544 52.2523 53.2746C52.3861 53.5394 52.5576 53.7835 52.7614 53.9992L54.562 52.2003L54.0224 51.7166C53.8016 51.5031 53.5117 51.3756 53.2051 51.3573C52.8985 51.3389 52.5954 51.4309 52.3507 51.6165C51.8263 52.0221 51.7431 52.6789 52.0232 53.2593C52.1631 53.5495 52.3296 53.8262 52.5204 54.0858C52.9023 54.5949 53.4844 54.8699 54.1106 54.6068C54.6367 54.3845 55.0882 53.6921 54.8472 53.1049C54.5502 52.3785 53.9273 51.7573 53.0737 51.8422C52.5544 51.8931 52.1233 52.1205 51.9112 52.6246C51.699 53.1286 51.8365 53.6106 52.1742 54.0145C52.4118 54.2996 52.0503 53.816 52.2591 54.1214C52.3134 54.2029 52.3677 54.281 52.4186 54.3641C52.5294 54.5449 52.6297 54.7319 52.719 54.9242L54.4602 53.1914C53.9645 52.8569 53.4519 52.5482 52.9243 52.2665C52.3388 51.9508 51.5123 52.0968 51.1831 52.723C50.8708 53.3136 51.0134 54.1282 51.6396 54.4642L51.6311 54.4592Z" fill="white"/>
<path d="M40.0207 50.9251C40.128 46.9581 40.128 46.9581 40.0369 45.5752C40.1967 44.421 39.9024 44.3488 39.3255 44.3019C38.6487 44.2468 38.156 45.2107 37.9959 46.3685C37.7264 48.3643 37.6378 50.3941 37.7337 52.3717C37.8558 55.1039 40.3558 56.9021 40.234 54.1662L40.0207 50.9251Z" fill="white"/>
<path d="M41.9258 44.0712L41.9614 45.1421C41.9622 45.2031 41.9849 45.2618 42.0253 45.3074C42.0657 45.3531 42.1212 45.3828 42.1816 45.391C42.2421 45.3992 42.3035 45.3855 42.3546 45.3522C42.4058 45.319 42.4433 45.2685 42.4604 45.21C42.5354 44.9367 42.5618 44.6523 42.5384 44.3699L42.0633 44.4989C42.2245 44.7875 42.3315 45.1033 42.3789 45.4306L42.8711 45.2948L42.6318 44.3156L42.1668 44.5107L42.6572 45.5137C42.7998 45.809 43.2394 45.5511 43.0968 45.2575L42.6063 44.2545C42.4756 43.988 42.0751 44.1781 42.1413 44.4496L42.3789 45.4306C42.4587 45.7547 42.9186 45.6105 42.8711 45.2948C42.8129 44.9247 42.6881 44.5682 42.5028 44.2426C42.3857 44.0322 42.0072 44.1136 42.0293 44.3699C42.0521 44.6063 42.032 44.8449 41.9699 45.0742L42.479 45.1421L42.4434 44.0712C42.4315 43.7453 41.9224 43.7436 41.9343 44.0712H41.9258Z" fill="white"/>
<path d="M42.5449 43.716C42.4004 44.2372 42.411 44.7892 42.5754 45.3045L43.0659 45.1687L42.494 43.3205C42.4108 43.0541 41.9848 43.0914 41.9933 43.3884C42.0251 44.295 41.9882 45.2028 41.883 46.1038L42.3921 46.0359C42.1906 45.5502 42.0729 45.0337 42.0442 44.5085L41.5453 44.5764L41.7863 45.6626L42.2784 45.5268L41.9034 43.9807C41.8423 43.7194 41.491 43.7601 41.4129 43.9807C41.2838 44.3189 41.2671 44.6896 41.3654 45.038L41.8304 44.8412L41.2364 43.5836C41.1312 43.3613 40.7273 43.4631 40.7612 43.7109C40.8259 44.2985 40.8475 44.8902 40.8257 45.481L41.2075 45.262C40.9109 45.0611 40.697 44.7598 40.6051 44.4135C40.5236 44.1538 40.0705 44.1844 40.0959 44.4814C40.1927 45.3469 40.3182 46.2057 40.4727 47.0627L40.9632 46.9269C40.7522 46.2357 40.4983 45.5584 40.2028 44.8989C40.0806 44.6273 39.6733 44.8259 39.7378 45.0957C39.867 45.624 39.86 46.1764 39.7175 46.7012H40.2096C39.9955 46.1065 39.8503 45.4893 39.7769 44.8615H39.2677L39.3848 45.8798C39.4205 46.1972 39.894 46.2192 39.894 45.8798C39.8772 45.2061 39.9735 44.5343 40.1791 43.8925C40.2792 43.5768 39.7955 43.4495 39.6886 43.7567L39.132 45.3571H39.6224C39.4253 44.7482 39.3616 44.1039 39.4357 43.4682H38.9266V44.5679C38.9266 44.6354 38.9534 44.7002 39.0012 44.7479C39.0489 44.7957 39.1137 44.8225 39.1812 44.8225C39.2487 44.8225 39.3134 44.7957 39.3612 44.7479C39.4089 44.7002 39.4357 44.6354 39.4357 44.5679V43.4682C39.4357 43.1288 38.9606 43.1491 38.9266 43.4682C38.85 44.15 38.92 44.8403 39.132 45.4929C39.1479 45.5455 39.1804 45.5916 39.2245 45.6243C39.2687 45.6571 39.3222 45.6747 39.3772 45.6747C39.4322 45.6747 39.4857 45.6571 39.5299 45.6243C39.574 45.5916 39.6065 45.5455 39.6224 45.4929L40.1791 43.8925L39.6971 43.7669C39.478 44.4527 39.3754 45.1703 39.3933 45.89H39.9025L39.7853 44.8717C39.748 44.5493 39.2389 44.5459 39.2762 44.8717C39.3493 45.5454 39.5003 46.2083 39.7259 46.8472C39.7424 46.8995 39.7752 46.9453 39.8194 46.9778C39.8637 47.0102 39.9171 47.0277 39.972 47.0277C40.0269 47.0277 40.0804 47.0102 40.1246 46.9778C40.1689 46.9453 40.2016 46.8995 40.2181 46.8472C40.3803 46.2328 40.3868 45.5876 40.2368 44.9701L39.7718 45.1653C40.047 45.7861 40.2839 46.4231 40.4812 47.0729C40.5007 47.1361 40.5441 47.1893 40.6022 47.2211C40.6603 47.2528 40.7285 47.2607 40.7923 47.2431C40.8561 47.2254 40.9105 47.1836 40.944 47.1265C40.9775 47.0693 40.9874 47.0014 40.9716 46.9371C40.8257 46.1259 40.7063 45.3107 40.6135 44.4916L40.1129 44.5594C40.2487 45.029 40.5455 45.4358 40.9513 45.7084C40.9902 45.7301 41.0341 45.7413 41.0786 45.741C41.1232 45.7407 41.1669 45.7289 41.2055 45.7067C41.2441 45.6845 41.2764 45.6526 41.299 45.6143C41.3217 45.5759 41.334 45.5323 41.3348 45.4878C41.3566 44.897 41.335 44.3053 41.2703 43.7177L40.7968 43.8467L41.3908 45.1059C41.5164 45.3741 41.922 45.1806 41.8558 44.9091C41.8112 44.7815 41.7924 44.6463 41.8006 44.5114C41.8087 44.3765 41.8437 44.2445 41.9034 44.1233H41.4129L41.7744 45.6761C41.849 45.9952 42.3361 45.8594 42.2665 45.5404L42.0239 44.4542C42.0058 44.3965 41.9678 44.347 41.9168 44.3146C41.8657 44.2821 41.8048 44.2688 41.7449 44.2769C41.6849 44.2851 41.6298 44.3141 41.5892 44.359C41.5487 44.4039 41.5253 44.4616 41.5232 44.5221C41.5516 45.0918 41.675 45.6528 41.8881 46.1819C41.9062 46.2396 41.9441 46.2891 41.9952 46.3215C42.0462 46.354 42.1071 46.3673 42.167 46.3592C42.227 46.3511 42.2821 46.322 42.3227 46.2771C42.3633 46.2322 42.3867 46.1745 42.3887 46.114C42.494 45.213 42.5308 44.3052 42.499 43.3986L42.0001 43.4665L42.5822 45.3045C42.6772 45.6167 43.1677 45.4844 43.0727 45.1687C42.9342 44.742 42.9242 44.2841 43.0438 43.8517C43.0554 43.7887 43.0429 43.7237 43.0088 43.6694C42.9748 43.6151 42.9217 43.5756 42.8599 43.5585C42.7981 43.5415 42.7322 43.5482 42.6752 43.5773C42.6181 43.6065 42.5741 43.6559 42.5517 43.716H42.5449Z" fill="white"/>
<path d="M64.4739 51.7085C64.3432 51.5948 64.4926 51.2299 64.6436 50.8599C64.867 50.3309 65.2166 49.8648 65.6619 49.5022C66.3305 48.8967 67.1522 48.4858 68.0379 48.3142C69.1495 48.1174 69.7706 48.4466 70.5835 47.9748C70.8287 47.8318 71.0565 47.661 71.2624 47.4657C71.724 47.0092 71.853 46.5883 71.9412 46.6171C72.0295 46.646 72.111 47.3112 71.7715 47.8051C71.3642 48.3855 70.7346 48.2413 69.735 48.9931C69.6159 49.0872 69.4912 49.1739 69.3616 49.2528C69.0063 49.463 68.615 49.6052 68.2076 49.6719C66.8787 49.9197 64.8354 52.0309 64.4739 51.7085Z" fill="black"/>
<path d="M44.3288 47.0411C44.3963 47.0411 44.461 47.0143 44.5088 46.9666C44.5565 46.9188 44.5834 46.8541 44.5834 46.7866C44.5834 46.719 44.5565 46.6543 44.5088 46.6065C44.461 46.5588 44.3963 46.532 44.3288 46.532C44.2613 46.532 44.1965 46.5588 44.1488 46.6065C44.101 46.6543 44.0742 46.719 44.0742 46.7866C44.0742 46.8541 44.101 46.9188 44.1488 46.9666C44.1965 47.0143 44.2613 47.0411 44.3288 47.0411Z" fill="white"/>
<path d="M43.888 43.9016C43.942 45.2515 44.1736 46.5885 44.577 47.8779C44.6754 48.1902 45.1659 48.0476 45.0692 47.7422C44.6749 46.4974 44.4467 45.2061 44.3903 43.9016C44.3751 43.574 43.8659 43.5723 43.8812 43.9016H43.888Z" fill="white"/>
<path d="M64.2151 51.4536C64.2575 51.2075 63.3258 50.7951 62.5824 50.605C61.7508 50.3929 61.0907 50.4607 59.8076 50.605C56.6866 50.9563 56.1181 51.0361 55.5648 50.605C54.886 50.0772 54.757 49.1896 54.5856 49.2473C54.4142 49.305 54.3582 50.1892 54.7553 50.7747C55.3035 51.5961 56.4966 51.4536 58.8369 51.4536C62.4908 51.4468 64.159 51.7777 64.2151 51.4536Z" fill="black"/>
<path d="M62.5664 49.0962C63.7169 50.0284 65.1439 50.553 66.6242 50.588L62.5664 49.0962Z" fill="white"/>
<path d="M62.5664 49.0962C63.7169 50.0284 65.1439 50.553 66.6242 50.588" stroke="black" stroke-miterlimit="10"/>
<path d="M60.3535 64.8679C61.1348 65.2734 63.4647 66.6525 64.5893 70.0957C64.8608 70.9253 66.1593 74.8961 64.619 77.13C63.4037 78.8935 61.2755 78.3315 61.0199 78.2614" stroke="black" stroke-miterlimit="10"/>
<path d="M47.7132 71.2369C48.7272 72.6925 49.9982 73.9509 51.4638 74.9502C52.3124 75.5357 53.3171 74.7381 53.3782 73.8505C53.429 73.0481 53.2368 72.2491 52.8266 71.5577C52.0137 70.1355 49.8125 71.4168 50.6289 72.8424C50.8066 73.1465 50.8783 73.5012 50.8325 73.8505L52.7486 72.7525C51.6426 71.9966 50.6814 71.0481 49.911 69.9522C49.5172 69.3905 48.7977 69.1291 48.1697 69.4957C47.6131 69.8215 47.3212 70.6718 47.7132 71.2369Z" fill="white"/>
<path d="M48.351 63.914C47.034 63.0858 46.3518 61.7298 46.3042 60.1956C46.2533 58.5613 43.7077 58.5545 43.7586 60.1956C43.8349 62.6445 44.9737 64.7965 47.0663 66.1117C48.4579 66.9858 49.7358 64.7846 48.351 63.9055V63.914Z" fill="white"/>
<path d="M44.9553 60.8014C44.8399 60.7628 44.7349 60.6984 44.6482 60.6131C44.5614 60.5278 44.4952 60.4239 44.4546 60.3093L44.4411 60.1888C44.5106 60.1667 44.3528 60.6385 44.4411 60.3093C44.3506 60.6108 44.287 60.9197 44.251 61.2325C44.2067 61.6011 44.2663 61.9747 44.4231 62.3112C44.58 62.6477 44.8278 62.9336 45.1386 63.1367C45.5883 63.4625 46.3096 63.3064 46.6796 62.9381C46.8722 62.7354 46.9954 62.4767 47.0314 62.1994C47.0674 61.9221 47.0143 61.6406 46.8798 61.3954C46.9647 61.5651 46.8798 61.4192 46.8951 61.3954C46.8187 61.5906 47.0122 61.2885 46.9104 61.3954L44.7856 60.1599L44.5531 60.776C44.3087 61.4175 44.8229 62.171 45.4407 62.3407C46.1568 62.5376 46.7627 62.0963 47.0071 61.4514L47.2396 60.8371C47.6995 59.6236 45.9481 58.7191 45.1131 59.5982C44.7244 60.0002 44.4734 60.5153 44.3963 61.0692C44.3191 61.6231 44.4198 62.1871 44.6837 62.6801L46.425 60.9389C46.5238 60.992 46.608 61.0688 46.6699 61.1624C46.7318 61.256 46.7695 61.3634 46.7797 61.4752C46.7797 61.3411 46.7797 61.3157 46.7797 61.4022C46.7288 61.504 46.8374 61.2003 46.851 61.1493C46.9412 60.8372 46.9863 60.5137 46.985 60.1888C46.9494 59.3402 46.4895 58.5782 45.6273 58.3457C44.0439 57.9197 43.3685 60.3822 44.9485 60.8014H44.9553Z" fill="white"/>
<path d="M48.6029 35.501C47.9749 36.0203 47.683 36.9656 47.924 39.5741C48.2855 43.5097 48.4654 45.4784 49.7908 46.3626C50.989 47.1653 51.9326 46.4339 56.2399 45.6837C57.5874 45.4495 62.8247 45.1746 65.0649 43.9866C65.2703 43.878 65.6861 43.6472 65.6589 43.3926C65.6369 43.1924 65.3297 43.0532 63.4527 42.5441C62.8156 42.3606 62.1919 42.1338 61.5858 41.8652C61.2403 41.731 60.9441 41.494 60.7373 41.1864C60.6575 41.0591 60.6779 41.0438 60.5676 40.8469C60.4251 40.6014 60.2542 40.3736 60.0584 40.1681C59.7546 39.8694 59.3168 39.8711 58.3613 39.8287C57.1886 39.7778 56.5929 39.7506 56.155 39.659C55.6288 39.5457 55.1166 39.3749 54.6276 39.1498C54.0793 38.944 53.5646 38.6581 53.1002 38.3013C52.6529 37.9601 52.2534 37.5606 51.9122 37.1133C51.7783 36.9112 51.6052 36.7381 51.4031 36.6041C51.2956 36.5369 51.182 36.48 51.0637 36.4344C50.6547 36.2783 50.4968 36.3767 50.3848 36.2647C50.1506 36.0339 50.6564 35.4331 50.4697 35.1616C50.2626 34.8646 49.2291 34.9834 48.6029 35.501Z" fill="white"/>
<path d="M104.506 53.4953L105.779 52.2123C105.832 52.1586 105.874 52.0949 105.903 52.0247C105.932 51.9546 105.946 51.8795 105.946 51.8036C105.946 51.7277 105.931 51.6526 105.902 51.5825C105.874 51.5124 105.831 51.4488 105.778 51.3952C105.725 51.3416 105.662 51.2991 105.593 51.2701C105.523 51.2411 105.449 51.2263 105.374 51.2263C105.299 51.2264 105.224 51.2415 105.155 51.2706C105.085 51.2997 105.022 51.3423 104.969 51.396L103.457 52.9234H102.582C102.55 52.818 102.508 52.7158 102.458 52.6179L103.242 51.8254C103.35 51.7171 103.41 51.5702 103.41 51.417C103.41 51.2637 103.35 51.1167 103.243 51.0082C103.136 50.8997 102.991 50.8387 102.839 50.8386C102.687 50.8384 102.542 50.8991 102.434 51.0074L101.648 51.8016C101.551 51.7505 101.45 51.7079 101.346 51.6743V50.7918L102.858 49.2644C102.965 49.1562 103.025 49.0094 103.025 48.8563C103.025 48.7032 102.965 48.5564 102.858 48.4481C102.75 48.3399 102.605 48.2791 102.454 48.2791C102.302 48.2791 102.157 48.3399 102.05 48.4481L100.776 49.7345L99.5027 48.4481C99.3955 48.3399 99.2502 48.2791 99.0986 48.2791C98.9471 48.2791 98.8018 48.3399 98.6946 48.4481C98.5874 48.5564 98.5272 48.7032 98.5272 48.8563C98.5272 49.0094 98.5874 49.1562 98.6946 49.2644L100.207 50.7918V51.6743C100.102 51.7083 100 51.7508 99.9025 51.8016L99.118 51.0074C99.0648 50.9538 99.0017 50.9113 98.9323 50.8823C98.8628 50.8533 98.7884 50.8385 98.7133 50.8386C98.6382 50.8386 98.5638 50.8537 98.4945 50.8828C98.4251 50.9119 98.3621 50.9545 98.309 51.0082C98.256 51.0619 98.2139 51.1257 98.1852 51.1958C98.1566 51.2659 98.1419 51.3411 98.1419 51.417C98.142 51.4929 98.1569 51.568 98.1857 51.6381C98.2145 51.7081 98.2567 51.7718 98.3099 51.8254L99.0944 52.6179C99.0453 52.7164 99.0037 52.8185 98.9701 52.9234H98.0948L96.5828 51.396C96.4757 51.2878 96.3304 51.2269 96.1788 51.2269C96.0273 51.2269 95.8819 51.2878 95.7748 51.396C95.6676 51.5043 95.6074 51.6511 95.6074 51.8042C95.6074 51.9573 95.6676 52.1041 95.7748 52.2123L97.0482 53.4987L95.7748 54.7835C95.6953 54.8645 95.6413 54.9674 95.6196 55.0793C95.5978 55.1913 95.6093 55.3072 95.6526 55.4125C95.6958 55.5179 95.7689 55.6079 95.8627 55.6715C95.9565 55.735 96.0668 55.7691 96.1797 55.7695C96.2547 55.7698 96.329 55.7549 96.3982 55.7258C96.4675 55.6966 96.5302 55.6538 96.5828 55.5998L98.0948 54.0724H98.9701C99.003 54.1778 99.0451 54.28 99.0961 54.3779L98.3099 55.1721C98.2305 55.253 98.1766 55.3558 98.1548 55.4676C98.133 55.5793 98.1443 55.6951 98.1873 55.8004C98.2304 55.9057 98.3033 55.9958 98.3968 56.0594C98.4903 56.123 98.6003 56.1574 98.7131 56.1581C98.8649 56.1576 99.0104 56.0967 99.118 55.9884L99.9025 55.1942C100 55.2453 100.102 55.2878 100.207 55.3215V56.204L98.6946 57.7314C98.5874 57.8396 98.5272 57.9864 98.5272 58.1395C98.5272 58.2926 98.5874 58.4394 98.6946 58.5477C98.8018 58.6559 98.9471 58.7167 99.0986 58.7167C99.2502 58.7167 99.3955 58.6559 99.5027 58.5477L100.776 57.2613L102.05 58.5477C102.102 58.6017 102.165 58.6445 102.234 58.6737C102.303 58.7028 102.378 58.7177 102.453 58.7174C102.566 58.717 102.676 58.6829 102.77 58.6194C102.863 58.5558 102.937 58.4658 102.98 58.3604C103.023 58.2551 103.035 58.1391 103.013 58.0272C102.991 57.9153 102.937 57.8124 102.858 57.7314L101.346 56.204V55.3215C101.45 55.2875 101.551 55.245 101.648 55.1942L102.434 55.9884C102.542 56.0967 102.687 56.1576 102.839 56.1581C102.952 56.1574 103.062 56.123 103.155 56.0594C103.249 55.9958 103.322 55.9057 103.365 55.8004C103.408 55.6951 103.419 55.5793 103.397 55.4676C103.376 55.3558 103.322 55.253 103.242 55.1721L102.456 54.3779C102.508 54.2804 102.55 54.1781 102.582 54.0724H103.457L104.969 55.5998C105.078 55.7026 105.222 55.7587 105.37 55.7563C105.519 55.7539 105.661 55.6932 105.766 55.5869C105.872 55.4806 105.932 55.3372 105.934 55.1869C105.936 55.0367 105.881 54.8914 105.779 54.7818L104.506 53.4953ZM101.314 54.0316C101.173 54.1729 100.982 54.2522 100.784 54.2522C100.585 54.2522 100.395 54.1729 100.254 54.0316C100.116 53.8883 100.04 53.6959 100.041 53.4962C100.043 53.2965 100.122 53.1054 100.262 52.9643C100.402 52.8232 100.591 52.7434 100.789 52.7421C100.987 52.7408 101.177 52.8181 101.319 52.9574C101.459 53.0998 101.537 53.2922 101.537 53.4928C101.537 53.6934 101.459 53.8858 101.319 54.0282L101.314 54.0316Z" fill="white"/>
<path d="M12.0975 53.3879L13.3709 52.1049C13.424 52.0512 13.466 51.9874 13.4947 51.9173C13.5234 51.8472 13.5381 51.772 13.538 51.6961C13.5379 51.6203 13.5231 51.5451 13.4943 51.4751C13.4654 51.405 13.4232 51.3413 13.3701 51.2877C13.3169 51.2341 13.2538 51.1916 13.1844 51.1627C13.1149 51.1337 13.0405 51.1188 12.9654 51.1189C12.8903 51.119 12.816 51.134 12.7466 51.1631C12.6772 51.1923 12.6142 51.2349 12.5612 51.2886L11.0492 52.816H10.1739C10.1416 52.7106 10.1 52.6084 10.0496 52.5105L10.8341 51.718C10.9415 51.6097 11.0019 51.4628 11.0021 51.3096C11.0022 51.1563 10.9421 51.0093 10.835 50.9008C10.7278 50.7923 10.5824 50.7313 10.4307 50.7311C10.279 50.731 10.1334 50.7917 10.026 50.8999L9.23981 51.6942C9.14281 51.6431 9.04164 51.6005 8.93742 51.5669V50.6844L10.4494 49.157C10.5566 49.0488 10.6168 48.9019 10.6168 48.7489C10.6168 48.5958 10.5566 48.4489 10.4494 48.3407C10.3422 48.2324 10.1969 48.1716 10.0454 48.1716C9.89382 48.1716 9.74849 48.2324 9.64133 48.3407L8.3679 49.6271L7.09447 48.3407C6.98731 48.2324 6.84198 48.1716 6.69043 48.1716C6.53889 48.1716 6.39355 48.2324 6.28639 48.3407C6.17923 48.4489 6.11904 48.5958 6.11904 48.7489C6.11904 48.9019 6.17923 49.0488 6.28639 49.157L7.79838 50.6844V51.5669C7.69373 51.6008 7.59203 51.6434 7.4943 51.6942L6.70975 50.8999C6.65658 50.8463 6.59348 50.8039 6.52406 50.7749C6.45463 50.7459 6.38024 50.7311 6.30513 50.7311C6.23001 50.7312 6.15564 50.7462 6.08628 50.7753C6.01691 50.8045 5.9539 50.8471 5.90084 50.9008C5.84778 50.9545 5.80572 51.0183 5.77704 51.0884C5.74837 51.1585 5.73365 51.2337 5.73373 51.3096C5.73381 51.3854 5.74868 51.4606 5.77749 51.5306C5.80631 51.6007 5.84851 51.6644 5.90168 51.718L6.68623 52.5105C6.63707 52.609 6.59551 52.7111 6.56191 52.816H5.68663L4.17465 51.2886C4.06749 51.1803 3.92216 51.1195 3.77061 51.1195C3.61907 51.1195 3.47373 51.1803 3.36657 51.2886C3.25941 51.3968 3.19922 51.5437 3.19922 51.6967C3.19922 51.8498 3.25941 51.9967 3.36657 52.1049L4.64001 53.3913L3.36657 54.676C3.28711 54.7571 3.23312 54.86 3.21138 54.9719C3.18964 55.0838 3.20112 55.1997 3.24438 55.3051C3.28763 55.4104 3.36074 55.5005 3.45452 55.564C3.54829 55.6275 3.65855 55.6617 3.77145 55.6621C3.84647 55.6623 3.92077 55.6475 3.99001 55.6183C4.05926 55.5892 4.12203 55.5464 4.17465 55.4924L5.68663 53.9649H6.56191C6.59476 54.0704 6.63693 54.1726 6.68791 54.2704L5.90168 55.0647C5.82231 55.1456 5.76835 55.2484 5.74656 55.3601C5.72476 55.4719 5.73609 55.5877 5.77914 55.693C5.8222 55.7982 5.89505 55.8883 5.98857 55.952C6.08209 56.0156 6.19212 56.05 6.30488 56.0507C6.4567 56.0502 6.60219 55.9892 6.70975 55.881L7.4943 55.0867C7.59189 55.1378 7.69362 55.1804 7.79838 55.214V56.0965L6.28639 57.6239C6.17923 57.7322 6.11904 57.879 6.11904 58.0321C6.11904 58.1852 6.17923 58.332 6.28639 58.4403C6.39355 58.5485 6.53889 58.6093 6.69043 58.6093C6.84198 58.6093 6.98731 58.5485 7.09447 58.4403L8.3679 57.1538L9.64133 58.4403C9.69395 58.4943 9.75672 58.5371 9.82596 58.5662C9.8952 58.5954 9.96951 58.6102 10.0445 58.61C10.1574 58.6095 10.2677 58.5754 10.3615 58.5119C10.4552 58.4484 10.5283 58.3583 10.5716 58.253C10.6149 58.1476 10.6263 58.0317 10.6046 57.9198C10.5829 57.8079 10.5289 57.705 10.4494 57.6239L8.93742 56.0965V55.214C9.04152 55.1801 9.14267 55.1375 9.23981 55.0867L10.026 55.881C10.1336 55.9892 10.2791 56.0502 10.4309 56.0507C10.5437 56.05 10.6537 56.0156 10.7472 55.952C10.8407 55.8883 10.9136 55.7982 10.9567 55.693C10.9997 55.5877 11.011 55.4719 10.9892 55.3601C10.9674 55.2484 10.9135 55.1456 10.8341 55.0647L10.0479 54.2704C10.0996 54.173 10.1418 54.0707 10.1739 53.9649H11.0492L12.5612 55.4924C12.6697 55.5952 12.8135 55.6513 12.9622 55.6489C13.111 55.6465 13.253 55.5857 13.3582 55.4795C13.4633 55.3732 13.5235 55.2298 13.5259 55.0795C13.5283 54.9293 13.4727 54.784 13.3709 54.6743L12.0975 53.3879ZM8.9055 53.9242C8.76453 54.0655 8.57401 54.1447 8.37546 54.1447C8.1769 54.1447 7.98639 54.0655 7.84543 53.9242C7.70779 53.7808 7.63153 53.5885 7.63313 53.3888C7.63473 53.1891 7.71406 52.998 7.85397 52.8569C7.99388 52.7158 8.18314 52.6359 8.38084 52.6346C8.57854 52.6333 8.76881 52.7107 8.91053 52.8499C9.05036 52.9923 9.12883 53.1848 9.12883 53.3854C9.12883 53.586 9.05036 53.7784 8.91053 53.9208L8.9055 53.9242Z" fill="white"/>
<path d="M15.4028 69.9603L8.42326 72.7878L9.53932 75.2248L16.5189 72.3973L16.952 73.3502L9.98908 76.1621L11.1051 78.5835L18.0847 75.7559L18.5344 76.7245L10.6887 79.8957L7.14062 72.1785L14.953 69.0073L15.4028 69.9603Z" fill="white"/>
<path d="M20.617 79.4893L17.5853 81.5983L17.7852 81.8638L22.5993 81.9888L23.3988 83.0042L18.3016 82.7074C19.0012 83.8947 18.6348 84.7851 17.9851 85.7693C17.4687 86.5035 16.9857 87.1284 16.6192 87.8314L15.9029 86.9253C16.1861 86.3629 16.6525 85.7537 17.0523 85.2069C17.7186 84.2852 18.0018 83.426 17.1356 82.3169L16.919 82.0513L13.7874 84.2383L13.1211 83.4104L19.9674 78.6458L20.617 79.4893Z" fill="white"/>
<path d="M27.1958 91.69C25.2302 93.7365 22.8482 93.674 21.1991 92.2836C19.5 90.8464 19.4667 88.6125 21.1825 86.816C22.9981 84.9258 25.4468 84.7696 27.1792 86.2224C28.9449 87.7221 28.8949 89.9404 27.1958 91.69ZM22.0986 87.5659C20.8826 88.8312 20.5328 90.5965 21.8488 91.7056C23.1647 92.8148 24.997 92.3305 26.2797 90.987C27.4124 89.7998 27.9288 88.0033 26.5295 86.8316C25.1636 85.6756 23.3479 86.2536 22.0986 87.5659Z" fill="white"/>
<path d="M36.6413 92.4712L32.3936 99.3916L31.4108 98.8605L35.1921 92.6899L32.6934 91.3464L31.4108 93.4397C30.4946 94.9394 29.3952 96.5797 27.9293 96.6578C27.5462 96.6734 27.0132 96.5953 26.5801 96.361L26.8966 95.5799C27.2297 95.6893 27.6462 95.6893 27.9127 95.6424C28.8455 95.4237 29.7284 94.1115 30.4113 93.0023L32.1937 90.0811L36.6413 92.4712Z" fill="white"/>
<path d="M38.4743 99.0791L36.7752 101.188L35.6758 100.844L41.1728 94.1426L42.4554 94.5487L42.572 103L41.4393 102.641L41.406 99.9851L38.4743 99.0791ZM41.4393 99.1572L41.406 96.7202C41.406 96.1734 41.4393 95.6735 41.4726 95.2049H41.456C41.1728 95.611 40.873 96.0328 40.5565 96.439L38.974 98.3761L41.4393 99.1572Z" fill="white"/>
<path d="M51.9995 101.813L51 104.297L49.834 104.25L53.0989 96.3611L54.4481 96.4079L57.0967 104.5L55.8974 104.453L55.0645 101.907L51.9995 101.813ZM54.8812 101.11L54.115 98.7825C53.9484 98.2513 53.8318 97.7827 53.7152 97.314H53.6819C53.532 97.7827 53.3821 98.2669 53.1822 98.7512L52.2493 101.032L54.8812 101.11Z" fill="white"/>
<path d="M59.3633 96.3924C59.8797 96.2362 60.5793 96.0643 61.4621 95.9237C62.5615 95.7675 63.3944 95.8769 63.9774 96.2206C64.5105 96.533 64.8936 97.0641 65.0102 97.7671C65.1268 98.4857 64.9936 99.0793 64.6271 99.548C64.144 100.204 63.2278 100.642 62.1451 100.798C61.812 100.845 61.5121 100.876 61.2456 100.86L61.7786 104.016L60.6626 104.172L59.3633 96.3924ZM61.1123 100.048C61.3622 100.064 61.6787 100.048 62.0452 100.001C63.3778 99.7979 64.094 99.095 63.9108 98.0014C63.7442 96.9548 62.8447 96.5799 61.6287 96.7517C61.1456 96.8298 60.7792 96.9079 60.5959 96.986L61.1123 100.048Z" fill="white"/>
<path d="M67.8071 94.6581L69.0565 98.0012L69.3896 97.8919L70.9554 93.6271L72.2381 93.2053L70.4224 97.6888C71.8383 97.4076 72.6378 98.0012 73.4541 98.876C74.0537 99.5478 74.5368 100.173 75.1531 100.719L74.0038 101.094C73.5207 100.673 73.0376 100.079 72.6045 99.5634C71.8549 98.6886 71.072 98.1887 69.6894 98.6417L69.3563 98.7511L70.6556 102.203L69.6062 102.547L66.791 95.0018L67.8071 94.6581Z" fill="white"/>
<path d="M76.1196 92.2212L73.8375 93.4553L73.3711 92.6898L78.9347 89.6748L79.4011 90.4403L77.1024 91.69L80.9003 97.845L79.9175 98.3761L76.1196 92.2212Z" fill="white"/>
<path d="M81.0505 88.1595L83.4159 90.6902C84.3154 91.6431 85.015 92.4398 85.7146 93.299H85.7479C85.4981 92.4086 85.2982 91.4244 85.0983 90.3153L84.3154 85.4881L85.1649 84.8008L90.7785 90.7995L89.979 91.4557L87.5803 88.8937C86.6641 87.9251 86.0145 87.2065 85.3815 86.3942L85.3481 86.4098C85.648 87.3315 85.8479 88.3938 86.0311 89.4248L86.7807 94.0957L85.8812 94.83L80.2676 88.8312L81.0505 88.1595Z" fill="white"/>
<path d="M87.4964 82.1294L90.5281 84.254L90.7446 83.9884L89.4953 79.6299L90.3115 78.6145L91.4609 83.2698C92.477 82.3012 93.4931 82.3637 94.6758 82.6762C95.5753 82.9261 96.3416 83.1761 97.1745 83.3167L96.4415 84.2227C95.7919 84.129 95.0423 83.879 94.3593 83.676C93.2266 83.3479 92.2771 83.3323 91.3943 84.4258L91.1777 84.6914L94.3093 86.894L93.643 87.722L86.8301 82.9261L87.4964 82.1294Z" fill="white"/>
<path d="M91.6792 76.2556L94.9441 77.6616C96.1767 78.1927 97.1762 78.6458 98.1757 79.1613L98.1923 79.1457C97.576 78.4271 96.9597 77.5991 96.31 76.6618L93.4949 72.5533L93.9613 71.6003L101.707 74.9434L101.257 75.8495L97.9591 74.4279C96.7098 73.8811 95.7936 73.475 94.8608 72.9751L94.8275 73.0063C95.4938 73.7405 96.1434 74.631 96.7598 75.5058L99.475 79.4737L98.9752 80.4891L91.2461 77.1461L91.6792 76.2556Z" fill="white"/>
</svg>
