<svg width="623" height="624" viewBox="0 0 623 624" fill="none" xmlns="http://www.w3.org/2000/svg">
<path fill-rule="evenodd" clip-rule="evenodd" d="M623 0L0 0L0 624H623V0ZM8.63288 401.173L80.9374 335.005L190.163 7.24449L442.46 54.9467L404 276.531L602.453 261.143L614.76 367.319L514.765 401.173L487.074 528.891L308.62 616.602L151.704 607.369L80.9374 562.745L8.63288 401.173Z" fill="white"/>
<path d="M80.9354 335.005L8.63086 401.173L80.9354 562.745L151.702 607.369L308.618 616.602L487.072 528.891L514.763 401.173L614.758 367.319L602.451 261.143L403.998 276.531L442.458 54.9467L190.161 7.24451L80.9354 335.005Z" stroke="#256095" stroke-width="2"/>
</svg>
